<svg width="56" height="56" viewBox="0 0 56 56" fill="none" xmlns="http://www.w3.org/2000/svg">
<path d="M47.7812 4H8.21875C5.89253 4 4 5.89995 4 8.23529V47.7647C4 50.1 5.89253 52 8.21875 52H47.7812C50.1075 52 52 50.1 52 47.7647V8.23529C52 5.89995 50.1075 4 47.7812 4ZM8.21875 6.82353H47.7812C48.5567 6.82353 49.1875 7.45685 49.1875 8.23529V15.2941H6.8125V8.23529C6.8125 7.45685 7.44334 6.82353 8.21875 6.82353ZM47.7812 49.1765H8.21875C7.44334 49.1765 6.8125 48.5432 6.8125 47.7647V18.1176H49.1875V47.7647C49.1875 48.5432 48.5567 49.1765 47.7812 49.1765Z" fill="black"/>
<path d="M33.1556 22.1173C32.4486 21.8027 31.6297 22.1428 31.3268 22.8769L22.9702 43.1263C22.6671 43.8605 22.9947 44.7109 23.7017 45.0255C24.4089 45.3403 25.2276 44.9999 25.5304 44.2659L33.887 24.0165C34.1901 23.2822 33.8625 22.4319 33.1556 22.1173V22.1173Z" fill="black"/>
<path d="M20.8208 26.8325C20.3138 26.2041 19.3889 26.1023 18.7555 26.605L11.4083 32.4335C10.6737 33.0161 10.6732 34.1261 11.4083 34.7092L18.7555 40.5377C19.3892 41.0405 20.3141 40.9385 20.8208 40.3102C21.3278 39.6818 21.2251 38.7647 20.5913 38.2621L14.6785 33.5714L20.5913 28.8807C21.2251 28.378 21.3278 27.461 20.8208 26.8325V26.8325Z" fill="#283474"/>
<path d="M44.5917 32.4336L37.2446 26.6051C36.6109 26.1023 35.6861 26.2042 35.1792 26.8326C34.6723 27.461 34.775 28.378 35.4088 28.8806L41.3216 33.5714L35.4088 38.2621C34.775 38.7648 34.6723 39.6818 35.1792 40.3102C35.6869 40.9393 36.6117 41.0399 37.2446 40.5377L44.5917 34.7092C45.3264 34.1266 45.3269 33.0166 44.5917 32.4336Z" fill="#283474"/>
<path d="M11.2857 12.5714C11.9958 12.5714 12.5714 11.9958 12.5714 11.2857C12.5714 10.5756 11.9958 10 11.2857 10C10.5756 10 10 10.5756 10 11.2857C10 11.9958 10.5756 12.5714 11.2857 12.5714Z" fill="#283474"/>
<path d="M16.4285 12.5714C17.1386 12.5714 17.7143 11.9958 17.7143 11.2857C17.7143 10.5756 17.1386 10 16.4285 10C15.7185 10 15.1428 10.5756 15.1428 11.2857C15.1428 11.9958 15.7185 12.5714 16.4285 12.5714Z" fill="#283474"/>
<path d="M21.5714 12.5714C22.2814 12.5714 22.8571 11.9958 22.8571 11.2857C22.8571 10.5756 22.2814 10 21.5714 10C20.8613 10 20.2856 10.5756 20.2856 11.2857C20.2856 11.9958 20.8613 12.5714 21.5714 12.5714Z" fill="#283474"/>
<path d="M36.3572 12.5714H45.3572C46.1856 12.5714 46.8572 11.9958 46.8572 11.2857C46.8572 10.5757 46.1856 10 45.3572 10H36.3572C35.5288 10 34.8572 10.5757 34.8572 11.2857C34.8572 11.9958 35.5288 12.5714 36.3572 12.5714Z" fill="black"/>
</svg>
