<svg width="688" height="366" viewBox="0 0 688 366" fill="none" xmlns="http://www.w3.org/2000/svg">
<path d="M687.336 332.085C465.615 377.378 236.486 377.232 0 332.085L161.605 281.765H525.732L687.336 332.085Z" fill="white" fill-opacity="0.2"/>
<path fill-rule="evenodd" clip-rule="evenodd" d="M679.058 332.378H635.736L646.887 336.882L646.534 337.76L633.166 332.378H555.211L582.602 346.887L582.098 347.765L553.245 332.378H474.736L501.17 354.198L500.464 354.881L473.325 332.378H394.312L404.188 360.686L403.231 360.979L393.253 332.378H314.089L304.162 360.979L303.204 360.686L313.03 332.378H234.067L206.755 357.811L206.05 357.128L232.656 332.378H154.096L122.098 350.277L121.594 349.398L152.131 332.378H74.176L52.9902 339.812L52.5871 338.933L71.606 332.378H7.14844V331.402H73.9744L130.211 308.316H88.4079V307.34H132.63L157.473 297.139H117.059V296.163H159.841L187.052 285.035L187.455 285.914L162.461 296.163H215.171L234.571 285.035L235.075 285.914L217.136 296.163H270.45L281.989 285.133L282.695 285.816L271.911 296.163H325.628L329.408 285.328L330.365 285.621L326.686 296.163H380.655L376.977 285.621L377.934 285.328L381.714 296.163H435.481L424.647 285.816L425.353 285.133L436.892 296.163H490.206L472.317 285.914L472.821 285.035L492.171 296.163H544.931L519.887 285.914L520.29 285.035L547.501 296.163H569.148V297.139H549.869L574.763 307.34H604.709V308.316H577.131L633.368 331.402H679.058V332.378ZM493.885 297.139L511.673 307.34H572.193L547.299 297.139H493.885ZM437.95 297.139L448.583 307.34H509.657L491.919 297.139H437.95ZM382.066 297.139L385.644 307.34H447.172L436.489 297.139H382.066ZM326.384 297.139L322.857 307.34H384.586L381.008 297.139H326.384ZM270.903 297.139L260.22 307.34H321.799L325.326 297.139H270.903ZM215.473 297.139L197.735 307.34H258.809L269.492 297.139H215.473ZM135.2 307.34H195.72L213.457 297.139H160.093L135.2 307.34ZM153.845 331.402L194.006 308.316H132.781L76.5444 331.402H153.845ZM233.664 331.402L257.802 308.316H196.022L155.86 331.402H233.664ZM313.383 331.402L321.395 308.316H259.162L235.075 331.402H313.383ZM392.951 331.402L384.888 308.316H322.504L314.441 331.402H392.951ZM472.317 331.402L448.23 308.316H385.997L394.009 331.402H472.317ZM551.583 331.402L511.421 308.316H449.691L473.779 331.402H551.583ZM630.798 331.402L574.561 308.316H513.386L553.548 331.402H630.798Z" fill="#E8E9EB" fill-opacity="0.2"/>
<path d="M217.14 138.496L203.437 147.657C201.458 148.976 201.535 151.888 203.593 153.091L282.079 198.389C285.029 200.097 288.6 200.058 291.55 198.389L445.572 108.724C447.008 107.87 447.047 105.813 445.649 104.92L435.907 98.8262L291.123 180.185L217.14 138.496Z" fill="#E8E9EB" fill-opacity="0.2"/>
<path d="M210.23 125.687V143.814C210.23 145.211 210.968 146.492 212.171 147.191L279.129 186.084L279.711 186.434C279.711 186.434 279.724 186.434 279.75 186.434L281.186 187.288C282.312 187.792 283.476 187.947 284.486 187.947L284.059 168.307L210.23 125.687Z" fill="#4B20D2"/>
<path d="M284.059 168.307L284.486 187.947C286.388 187.87 287.94 187.171 288.6 186.822C288.626 186.822 288.639 186.822 288.639 186.822L288.988 186.628L433.345 103.251C434.936 102.358 435.907 100.65 435.907 98.8258V81.2422L284.059 168.307Z" fill="#7346FF"/>
<path d="M237.597 121.65L301.41 158.719L425.466 87.1035L361.226 50.2671L237.597 121.65Z" fill="white"/>
<path d="M237.597 121.65L301.41 158.719L425.466 87.1035L361.226 50.2671L237.597 121.65Z" fill="white"/>
<path d="M230.222 149.946V152.585C230.222 152.818 230.338 153.012 230.532 153.129L256.112 167.879C256.5 168.112 257.005 167.801 257.005 167.374V164.696C257.005 164.502 256.888 164.308 256.694 164.191L231.114 149.441C230.726 149.208 230.222 149.48 230.222 149.946Z" fill="#6B749B"/>
<path d="M230.222 149.946V151.46C230.222 151.654 230.338 151.848 230.532 151.964L256.112 166.714C256.5 166.947 257.005 166.676 257.005 166.21V164.696C257.005 164.502 256.888 164.308 256.694 164.191L231.114 149.441C230.726 149.208 230.222 149.48 230.222 149.946Z" fill="#AE97F8"/>
<path d="M267.796 173.585C267.874 175.138 268.611 176.419 269.426 176.38C269.53 176.354 269.62 176.328 269.698 176.302C270.358 175.992 270.824 174.827 270.746 173.43C270.668 172.071 270.164 170.985 269.504 170.713C269.375 170.661 269.245 170.635 269.116 170.635C268.301 170.674 267.718 171.994 267.796 173.585Z" fill="#6B749B"/>
<path d="M268.456 173.585C268.495 174.905 269.038 176.031 269.698 176.302C270.358 175.992 270.823 174.827 270.746 173.43C270.668 172.071 270.164 170.985 269.504 170.713C268.844 170.985 268.378 172.188 268.456 173.585Z" fill="#51557C"/>
<path d="M434.781 83.1051L289.648 166.909C286.465 168.772 282.545 168.772 279.362 166.909L211.395 127.433C209.842 126.54 209.842 124.328 211.395 123.435L360.06 37.6127C360.759 37.1857 361.652 37.1857 362.35 37.6127L434.781 79.107C436.334 79.9998 436.334 82.2123 434.781 83.1051Z" fill="#855EFF"/>
<path d="M246.214 138.883C246.214 141.639 250.561 143.852 255.918 143.852C261.274 143.852 265.583 141.639 265.583 138.883C265.583 136.128 261.274 133.915 255.918 133.915C250.561 133.915 246.214 136.128 246.214 138.883Z" fill="#AE97F8"/>
<path d="M237.597 115.711L262.206 129.995L273.385 136.477L296.325 149.83L301.41 152.78L321.905 140.941L342.206 129.18L353.385 122.736L381.177 106.705L406.757 91.9166L425.427 81.1257L406.757 70.4513L381.177 55.7788L361.226 44.3281L353.385 48.8696L342.206 55.3131L321.905 67.0355L296.325 81.8244L273.385 95.0607L262.206 101.504L237.597 115.711Z" fill="#E9DDFF"/>
<path d="M301.487 138.884C301.215 138.884 300.943 138.806 300.672 138.651L257.819 113.77C257.042 113.343 256.771 112.334 257.236 111.519C257.702 110.743 258.711 110.471 259.488 110.937L302.341 135.818C303.117 136.283 303.389 137.293 302.923 138.069C302.612 138.612 302.069 138.884 301.487 138.884Z" fill="#5E2FF0"/>
<path d="M313.054 132.518C312.782 132.518 312.51 132.44 312.238 132.285L269.424 107.404C268.609 106.938 268.338 105.929 268.803 105.153C269.269 104.376 270.278 104.105 271.055 104.532L313.908 129.452C314.684 129.879 314.956 130.888 314.49 131.703C314.179 132.208 313.636 132.518 313.054 132.518Z" fill="#5E2FF0"/>
<path d="M324.66 126.114C324.35 126.114 324.078 126.075 323.807 125.92L280.992 101.039C280.216 100.573 279.944 99.5639 280.41 98.7488C280.837 97.9725 281.846 97.7008 282.662 98.1666L325.476 123.048C326.252 123.513 326.524 124.523 326.058 125.299C325.786 125.842 325.204 126.114 324.66 126.114Z" fill="#5E2FF0"/>
<path d="M336.227 119.747C335.955 119.747 335.645 119.67 335.412 119.515L292.559 94.6334C291.783 94.1676 291.511 93.1584 291.977 92.3821C292.442 91.6058 293.452 91.3341 294.228 91.7999L337.042 116.681C337.857 117.147 338.129 118.156 337.663 118.932C337.353 119.437 336.809 119.747 336.227 119.747Z" fill="#5E2FF0"/>
<path d="M347.794 113.382C347.523 113.382 347.251 113.304 346.979 113.149L304.126 88.268C303.35 87.8022 303.078 86.793 303.544 86.0167C304.01 85.2015 305.019 84.9298 305.795 85.3956L348.648 110.277C349.425 110.742 349.696 111.752 349.23 112.567C348.92 113.071 348.377 113.382 347.794 113.382Z" fill="#5E2FF0"/>
<path d="M359.4 106.977C359.09 106.977 358.818 106.9 358.546 106.783L315.732 81.8634C314.917 81.4365 314.684 80.4272 315.111 79.6121C315.577 78.8358 316.586 78.5641 317.363 79.0299L360.216 103.911C360.992 104.377 361.264 105.386 360.798 106.162C360.487 106.706 359.944 106.977 359.4 106.977Z" fill="#5E2FF0"/>
<path d="M370.967 100.612C370.695 100.612 370.385 100.534 370.113 100.379L327.299 75.4977C326.523 75.0319 326.251 74.0227 326.717 73.2464C327.144 72.4701 328.153 72.1983 328.968 72.6641L371.782 97.5452C372.559 97.9722 372.83 98.9814 372.403 99.7965C372.093 100.301 371.511 100.612 370.967 100.612Z" fill="#5E2FF0"/>
<path d="M382.535 94.2457C382.263 94.2457 381.952 94.1681 381.719 94.0128L338.866 69.1318C338.09 68.666 337.818 67.6568 338.284 66.8805C338.75 66.0653 339.759 65.7936 340.536 66.2594L383.35 91.1405C384.165 91.6063 384.436 92.6155 383.971 93.3918C383.66 93.9352 383.117 94.2457 382.535 94.2457Z" fill="#5E2FF0"/>
<path d="M394.102 87.8412C393.831 87.8412 393.559 87.7635 393.287 87.6083L350.473 62.7272C349.658 62.2614 349.386 61.2522 349.852 60.4759C350.318 59.6995 351.327 59.4278 352.103 59.8936L394.956 84.7747C395.733 85.2405 396.004 86.2497 395.539 87.026C395.228 87.5694 394.685 87.8412 394.102 87.8412Z" fill="#5E2FF0"/>
<path d="M405.707 81.4751C405.397 81.4751 405.125 81.3974 404.854 81.2422L362.039 56.3611C361.263 55.8953 360.991 54.8861 361.418 54.1098C361.884 53.2946 362.893 53.0617 363.709 53.4887L406.523 78.3698C407.299 78.8356 407.571 79.8448 407.105 80.6599C406.833 81.1645 406.251 81.4751 405.707 81.4751Z" fill="#5E2FF0"/>
<path opacity="0.1" d="M255.491 97.9715L304.477 126.268L364.758 91.4504L315.772 63.1924L255.491 97.9715Z" fill="#5A00FF"/>
<path d="M367.555 36.3703V89.2378L313.561 123.784L308.709 126.889C308.684 126.915 308.658 126.928 308.632 126.928C308.205 127.2 307.623 127.355 307.04 127.355C306.575 127.394 306.148 127.316 305.798 127.122L298.035 122.503C297.259 122.037 296.793 121.183 296.793 120.291V85.6279C296.793 84.8904 297.142 84.1917 297.686 83.6871C297.815 83.5836 297.945 83.48 298.074 83.3765L333.047 63.3087L339.025 47.1612C339.491 45.9191 340.383 44.8711 341.509 44.1724L361.305 32.7605C364.1 31.169 367.555 33.1874 367.555 36.3703Z" fill="#4F1FE5"/>
<path d="M296.871 85.0845C296.819 85.2656 296.793 85.4468 296.793 85.6279V120.291C296.793 121.183 297.259 122.037 298.035 122.503L305.798 127.122C306.575 127.549 307.972 127.355 308.709 126.889L313.561 123.784L307.196 93.1194C303.974 91.6056 298.152 87.2194 296.871 85.0845Z" fill="#5E2FF0"/>
<path d="M342.362 60.0482L313.017 77.2049C311.775 77.9424 310.999 79.2621 310.999 80.6983V99.6017C310.999 102.707 314.376 104.648 317.093 103.095L350.048 83.8424V64.4732C350.048 60.514 345.778 58.0686 342.362 60.0482Z" fill="#E5E5E5"/>
<path d="M345.584 60.8629L315.618 78.3689C314.376 79.0676 313.6 80.4262 313.6 81.8624V100.727C313.6 103.871 317.015 105.812 319.694 104.22L346.438 88.6552C348.689 87.3354 350.048 84.9288 350.048 82.3282V63.4636C350.048 61.1346 347.564 59.6984 345.584 60.8629Z" fill="white"/>
<path d="M319.578 100.961C319.034 100.961 318.607 100.495 318.607 99.8737V83.2992C318.607 82.717 319.034 82.2124 319.578 82.2124C320.082 82.2124 320.509 82.717 320.509 83.2992V99.8737C320.509 100.495 320.082 100.961 319.578 100.961Z" fill="#E5E5E5"/>
<path d="M324.662 97.5445C324.118 97.5445 323.691 97.0399 323.691 96.4577V79.8832C323.691 79.2622 324.118 78.7964 324.662 78.7964C325.166 78.7964 325.632 79.2622 325.632 79.8832V96.4577C325.632 97.0399 325.166 97.5445 324.662 97.5445Z" fill="#E5E5E5"/>
<path d="M329.748 94.0899C329.204 94.0899 328.777 93.6241 328.777 93.0031V76.4286C328.777 75.8464 329.204 75.3418 329.748 75.3418C330.291 75.3418 330.718 75.8464 330.718 76.4286V93.0031C330.718 93.6241 330.291 94.0899 329.748 94.0899Z" fill="#E5E5E5"/>
<path d="M334.832 90.6739C334.288 90.6739 333.861 90.1693 333.861 89.5871V73.0126C333.861 72.3916 334.288 71.9258 334.832 71.9258C335.375 71.9258 335.802 72.3916 335.802 73.0126V89.5871C335.802 90.1693 335.375 90.6739 334.832 90.6739Z" fill="#E5E5E5"/>
<path d="M339.916 87.2193C339.372 87.2193 338.945 86.7147 338.945 86.1325V69.558C338.945 68.9758 339.372 68.4712 339.916 68.4712C340.459 68.4712 340.886 68.9758 340.886 69.558V86.1325C340.886 86.7147 340.459 87.2193 339.916 87.2193Z" fill="#E5E5E5"/>
<path d="M345.001 83.7645C344.496 83.7645 344.03 83.2987 344.03 82.6777V66.142C344.03 65.521 344.496 65.0552 345.001 65.0552C345.544 65.0552 345.971 65.521 345.971 66.142V82.6777C345.971 83.2987 345.544 83.7645 345.001 83.7645Z" fill="#E5E5E5"/>
<path d="M370.66 42.3477V91.6828C370.66 91.7604 370.622 91.7993 370.583 91.8381L308.632 126.928C308.205 127.199 307.623 127.355 307.041 127.355V93.3519C307.041 93.2743 307.119 93.1578 307.196 93.119L311 90.9453L313.601 89.4315L318.608 86.5591L320.51 85.4722L323.693 83.6479L325.634 82.5222L328.778 80.7367L330.719 79.611L333.863 77.7867L335.804 76.6998L338.948 74.8755L340.889 73.7498L341.665 73.3228L344.033 66.8794L344.693 65.0938L346.4 60.5524L346.711 59.6596L348.341 55.2346L367.555 44.1332L370.66 42.3477Z" fill="#855DFF"/>
<path d="M333.707 90.8668L337.239 88.5378L337.317 101.541C337.317 103.249 338.52 103.831 340.034 102.822C341.509 101.852 342.712 99.678 342.712 97.9701L342.635 84.9279L346.128 82.599L342.984 81.2016L339.879 79.8042L336.812 85.3161L333.707 90.8668Z" fill="#BD10E9"/>
<path d="M185.893 287.031C187.928 293.731 177.605 302.863 162.865 307.379C148.075 311.895 134.427 310.109 132.343 303.409C130.308 296.709 140.631 287.626 155.421 283.061C170.21 278.544 183.858 280.331 185.893 287.031Z" fill="#E8E9EB" fill-opacity="0.2"/>
<path d="M178.549 124.94C178.582 125.039 178.598 125.138 178.598 125.238C178.632 125.37 178.665 125.502 178.698 125.635C180.286 133.526 191.8 146.678 191.8 146.678L197.706 143.253C192.098 135.709 185.894 120.076 185.894 120.076L182.023 122.657L178.549 124.94Z" fill="#BD10E9"/>
<path d="M173.984 115.561C174.728 119.134 176.564 122.36 178.301 124.841C178.401 124.974 178.5 125.106 178.599 125.238C178.699 125.338 178.781 125.437 178.847 125.536C179.377 126.198 179.873 126.794 180.336 127.323C181.13 126.33 182.024 125.387 182.867 124.395C183.513 123.551 184.059 122.658 184.654 121.814C185.051 121.218 185.448 120.623 185.895 120.077C182.123 111.789 176.713 94.0215 176.713 94.0215C176.713 94.0215 172.396 107.471 173.984 115.561Z" fill="#AE97F8"/>
<path d="M178.302 124.841C178.401 124.973 178.5 125.106 178.6 125.238C178.633 125.37 178.666 125.503 178.699 125.635C178.732 125.602 178.782 125.569 178.848 125.536C179.592 124.841 180.684 123.997 182.074 123.501C182.222 123.451 182.322 123.302 182.322 123.104C182.322 123.071 182.322 123.021 182.322 122.955C182.272 122.806 182.123 122.707 182.024 122.657C181.925 122.657 181.842 122.674 181.776 122.707C180.287 123.203 179.145 124.096 178.302 124.841Z" fill="#A200CB"/>
<path d="M139.293 285.442C138.351 285.789 137.656 286.633 137.507 287.626C137.408 288.469 137.308 289.76 137.358 291.397C137.457 295.12 137.507 296.609 137.507 296.609C137.507 296.609 138.599 298.544 141.825 299.09L142.768 299.239C142.768 299.239 150.013 303.557 153.388 303.904C157.855 304.351 162.371 302.316 158.699 297.998C155.225 293.929 150.162 292.34 148.673 289.065C148.475 288.668 147.333 287.874 147.085 287.576C144.604 285.045 142.718 284.35 139.293 285.442Z" fill="#37474F"/>
<path d="M146.686 293.285C146.835 293.285 146.984 293.186 147.083 293.037C147.083 292.987 147.629 291.747 148.671 291.399C149.664 291.052 150.756 291.945 150.756 291.945C150.954 292.094 151.202 292.044 151.351 291.896C151.5 291.697 151.451 291.449 151.302 291.3C151.252 291.25 149.862 290.109 148.423 290.605C147.034 291.102 146.339 292.64 146.339 292.69C146.239 292.888 146.339 293.136 146.537 293.236C146.603 293.269 146.653 293.285 146.686 293.285Z" fill="white"/>
<path d="M148.127 294.327C148.275 294.327 148.474 294.227 148.524 294.029C148.524 294.029 149.07 292.788 150.112 292.441C151.104 292.093 152.196 292.987 152.196 292.987C152.395 293.136 152.643 293.086 152.792 292.937C152.941 292.739 152.891 292.49 152.742 292.342C152.692 292.292 151.303 291.15 149.864 291.647C148.474 292.093 147.779 293.682 147.779 293.731C147.68 293.93 147.779 294.178 147.978 294.277C148.044 294.31 148.093 294.327 148.127 294.327Z" fill="white"/>
<path d="M149.762 295.22C149.961 295.22 150.11 295.12 150.159 294.972C150.159 294.972 150.705 293.681 151.748 293.334C152.79 293.036 153.832 293.88 153.832 293.88C154.03 294.029 154.279 294.029 154.428 293.83C154.576 293.681 154.576 293.383 154.378 293.235C154.328 293.235 152.939 292.093 151.499 292.589C150.11 293.036 149.415 294.575 149.415 294.674C149.316 294.872 149.415 295.12 149.613 295.17C149.68 295.203 149.729 295.22 149.762 295.22Z" fill="white"/>
<path d="M139.74 278.246L139.393 287.428C139.393 287.428 141.676 289.76 145.249 288.172L146.142 278.345C146.142 278.345 142.271 276.956 139.74 278.246Z" fill="#FCB38F"/>
<path d="M137.654 227.772C140.532 212.734 138.249 188.912 138.001 177.994L162.22 181.716L162.965 196.654C162.965 196.605 161.178 196.803 161.129 196.704C161.129 196.704 160.086 196.257 158.846 196.307C157.158 196.406 156.612 199.235 156.414 200.079C155.52 210.848 155.52 224.1 154.528 232.338C152.592 248.666 146.488 284.896 146.488 284.896C143.56 285.541 141.823 285.392 138.845 284.3C138.845 284.3 135.817 237.301 137.654 227.772Z" fill="#283474"/>
<path d="M140.333 283.804C140.631 283.804 140.829 283.606 140.829 283.308C140.78 281.67 140.283 242.363 139.936 239.386C139.638 236.358 140.631 225.539 141.574 219.633C142.268 215.464 141.772 195.811 141.772 194.967C141.772 194.719 141.524 194.521 141.276 194.521C141.028 194.521 140.829 194.769 140.829 195.017C140.829 195.215 141.325 215.365 140.68 219.484C139.688 225.44 138.695 236.408 139.042 239.485C139.34 242.413 139.886 282.911 139.886 283.357C139.886 283.606 140.085 283.804 140.333 283.804Z" fill="#252B3D"/>
<path d="M147.234 281.967C147.234 281.967 142.073 282.513 138.152 281.471C137.854 283.01 138.053 284.647 138.4 285.491C138.4 285.491 143.065 286.732 146.837 285.789C147.234 284.647 147.582 283.307 147.234 281.967Z" fill="#6B749B"/>
<path d="M160.383 278.892C159.44 279.189 158.795 280.033 158.646 281.075C158.497 281.919 158.398 283.16 158.447 284.847C158.547 288.52 158.596 290.058 158.596 290.058C158.596 290.058 159.738 291.994 162.914 292.54L163.857 292.639C163.857 292.639 171.153 297.006 174.527 297.354C178.944 297.8 183.461 295.766 179.788 291.448C176.364 287.378 171.252 285.74 169.763 282.515C169.614 282.117 168.473 281.323 168.175 281.026C165.743 278.495 163.857 277.75 160.383 278.892Z" fill="#37474F"/>
<path d="M167.831 286.683C167.979 286.683 168.128 286.634 168.178 286.435C168.178 286.435 168.773 285.194 169.816 284.847C170.808 284.5 171.851 285.343 171.9 285.393C172.049 285.492 172.297 285.492 172.446 285.294C172.595 285.145 172.595 284.897 172.396 284.748C172.347 284.698 170.957 283.557 169.518 284.053C168.128 284.5 167.483 286.038 167.433 286.137C167.334 286.336 167.433 286.584 167.632 286.683C167.698 286.683 167.764 286.683 167.831 286.683Z" fill="white"/>
<path d="M169.27 287.725C169.419 287.725 169.568 287.626 169.617 287.477C169.617 287.477 170.213 286.187 171.255 285.839C172.248 285.542 173.29 286.385 173.34 286.385C173.488 286.534 173.737 286.534 173.886 286.336C174.034 286.187 174.034 285.889 173.836 285.79C173.786 285.74 172.446 284.599 171.007 285.095C169.568 285.542 168.923 287.08 168.873 287.179C168.774 287.378 168.873 287.626 169.071 287.725C169.138 287.725 169.204 287.725 169.27 287.725Z" fill="white"/>
<path d="M170.905 288.668C171.054 288.668 171.203 288.569 171.302 288.42C171.302 288.371 171.848 287.13 172.89 286.783C173.883 286.435 174.974 287.328 174.974 287.328C175.123 287.477 175.421 287.428 175.57 287.279C175.669 287.08 175.669 286.832 175.471 286.683C175.421 286.634 174.081 285.542 172.642 285.988C171.252 286.485 170.557 288.023 170.508 288.073C170.409 288.271 170.508 288.52 170.756 288.619C170.789 288.652 170.839 288.668 170.905 288.668Z" fill="white"/>
<path d="M160.879 271.696L160.482 280.828C160.482 280.828 162.815 283.16 166.388 281.622L167.282 271.745C167.282 271.745 163.411 270.405 160.879 271.696Z" fill="#FCB38F"/>
<path d="M177.556 194.471C176.713 205.241 174.976 217.4 173.983 225.589C172.097 241.917 167.631 278.345 167.631 278.345C164.653 278.99 162.965 278.841 159.988 277.749C159.988 277.749 156.762 230.552 157.854 220.973C159.591 205.191 159.591 189.31 159.342 178.341L178.698 175.612L177.556 194.471Z" fill="#283474"/>
<path d="M162.52 194.124C162.272 194.124 162.073 194.372 162.073 194.62C162.173 200.972 162.222 210.253 161.776 212.884C160.833 218.839 159.84 229.857 160.138 232.934C160.436 235.862 160.981 276.36 160.981 276.757C160.981 277.055 161.23 277.253 161.478 277.253C161.726 277.253 161.924 277.005 161.924 276.757C161.924 275.069 161.379 235.763 161.081 232.835C160.783 229.807 161.726 218.938 162.719 213.082C163.165 210.303 163.116 200.972 163.016 194.62C163.016 194.372 162.768 194.124 162.52 194.124Z" fill="#252B3D"/>
<path d="M168.376 275.367C168.376 275.367 163.214 275.962 159.293 274.92C158.996 276.458 159.145 278.047 159.492 278.94C159.492 278.94 164.157 280.131 167.929 279.238C168.376 278.096 168.673 276.756 168.376 275.367Z" fill="#6B749B"/>
<path d="M176.714 94.0213C170.759 92.731 160.634 91.9865 155.274 93.8725C147.681 96.5028 144.058 99.0339 138.897 102.707C138.748 105.684 137.854 119.928 137.805 123.104C137.805 123.865 137.805 124.61 137.805 125.338C137.805 125.668 137.805 125.983 137.805 126.281C137.954 135.909 136.763 157.398 136.564 162.56C136.167 171.89 135.82 176.754 136.068 177.349C137.358 180.724 145.795 183.801 158.351 183.106C170.908 182.362 177.062 182.064 178.402 177.449C179.791 172.833 179.047 169.309 177.657 155.612C176.417 144.048 176.466 104.047 176.714 94.0213Z" fill="#9979FF"/>
<path d="M167.93 156.456C168.228 156.555 168.476 156.406 168.526 156.158C168.625 155.86 168.476 155.612 168.228 155.513C168.129 155.513 161.379 153.428 155.324 149.16C155.126 149.011 154.828 149.061 154.63 149.26C154.481 149.508 154.53 149.805 154.779 149.954C160.982 154.322 167.881 156.456 167.93 156.456Z" fill="#BD10E9"/>
<path d="M149.118 68.8588C149.118 68.8588 150.855 62.01 153.585 60.2729L154.627 61.8611C155.62 61.5137 158.3 57.9403 162.617 57.5929C162.617 57.5929 162.121 58.6848 162.469 59.2803C162.816 59.9255 166.538 56.6003 170.906 56.65C170.906 56.65 169.714 59.7766 170.26 61.2159C170.26 61.2159 172.097 58.8337 173.883 58.4863C173.883 58.4863 172.345 63.2507 173.139 65.1366C173.933 66.9729 173.288 68.3625 172.345 69.8514L149.118 68.8588Z" fill="#252B3D"/>
<path d="M162.817 90.9442L162.37 95.262L162.221 96.7509C157.358 97.942 153.685 94.6664 153.685 94.6664L153.238 87.9664C153.304 87.9334 153.387 87.8837 153.486 87.8175C156.117 86.6761 162.817 90.9442 162.817 90.9442Z" fill="#FCB38F"/>
<path d="M162.817 90.9442L162.37 95.262C157.407 93.5249 154.727 89.902 153.486 87.8175C156.117 86.6761 162.817 90.9442 162.817 90.9442Z" fill="#FD8471"/>
<path d="M170.51 76.7997C170.51 76.7997 172.644 74.2189 174.033 76.5019C175.373 78.7849 172.941 85.1871 169.368 83.4004L170.51 76.7997Z" fill="#FD8471"/>
<path d="M170.261 81.4639C170.41 81.4639 170.559 81.3646 170.559 81.2157C171.254 79.2305 173.388 78.5357 173.388 78.5357C173.586 78.4861 173.636 78.3372 173.586 78.1387C173.537 77.9898 173.388 77.8905 173.239 77.9402C173.14 77.9898 170.757 78.7342 170.013 81.0172C169.963 81.2157 170.013 81.3646 170.212 81.4142C170.212 81.4142 170.228 81.4308 170.261 81.4639Z" fill="#D6615D"/>
<path d="M172.444 80.5218C172.477 80.5549 172.526 80.5549 172.593 80.5218C172.741 80.4226 172.791 80.2241 172.692 80.0752C172.692 80.0752 172.344 79.4796 171.6 79.0826C171.451 79.0329 171.253 79.0826 171.203 79.2315C171.104 79.3804 171.153 79.5789 171.352 79.6285C171.898 79.9263 172.196 80.3729 172.196 80.3729C172.245 80.4722 172.344 80.5218 172.444 80.5218Z" fill="#D6615D"/>
<path d="M171.949 80.1241C171.916 80.7528 171.849 81.3483 171.75 81.9108C170.956 86.7745 166.688 96.75 158.052 91.6878C155.968 90.4967 154.429 89.3056 153.238 87.9656C152.295 87.0227 151.601 85.9308 151.005 84.7893C150.757 84.3427 150.658 83.8464 150.459 83.3501C150.459 83.2839 150.443 83.2012 150.409 83.1019C150.376 83.0688 150.36 83.0192 150.36 82.953C149.913 81.5634 149.615 80.1241 149.318 78.7841C149.02 77.0967 148.821 75.5086 148.672 74.2182C148.474 71.836 149.516 69.5034 151.452 68.1138C156.663 64.2923 162.718 64.739 166.787 65.7812C169.616 66.5256 171.651 68.9575 171.849 71.8856C171.949 73.2753 171.998 74.8138 172.048 76.4019C172.048 77.6923 172.048 78.933 171.949 80.1241Z" fill="#FCB38F"/>
<path d="M153.932 82.9536C153.932 82.9536 153.039 84.6906 151.004 84.7899C150.805 84.3267 150.623 83.8469 150.458 83.3507C151.451 83.5492 152.989 83.6484 153.932 82.9536Z" fill="#FD8471"/>
<path d="M153.238 87.9662C152.295 87.0233 151.6 85.9314 151.005 84.7899C150.757 84.3433 150.657 83.847 150.459 83.3507C150.459 83.2845 150.442 83.2018 150.409 83.1025C150.608 83.1025 150.955 83.2018 151.501 83.3507C151.501 83.3507 153.834 85.9811 153.238 87.9662Z" fill="#252B3D"/>
<path d="M166.789 86.031C166.342 87.2717 165.2 89.5051 162.372 89.1577C159.493 88.7606 158.997 86.5273 158.897 84.9888L166.789 86.031Z" fill="white"/>
<path d="M160.038 78.5362C160.038 79.231 159.641 79.7769 159.195 79.7273C158.748 79.7273 158.45 79.1317 158.45 78.4369C158.5 77.7421 158.897 77.1962 159.344 77.2458C159.79 77.2458 160.088 77.8414 160.038 78.5362Z" fill="#252B3D"/>
<path d="M168.723 78.8336C168.673 79.5285 168.326 80.0248 167.879 80.0248C167.432 79.9751 167.085 79.4292 167.135 78.7344C167.184 78.0396 167.581 77.4937 167.978 77.4937C168.425 77.5433 168.772 78.1388 168.723 78.8336Z" fill="#252B3D"/>
<path d="M155.521 75.0625C155.521 75.0625 158.35 73.4247 160.831 74.1195L160.782 75.4595C160.782 75.4595 157.308 75.658 155.72 76.5514C155.471 76.1047 155.372 75.6084 155.521 75.0625Z" fill="#252B3D"/>
<path d="M171.551 75.6586C171.551 75.6586 168.871 73.8223 166.34 74.2193L166.29 75.5593C166.29 75.5593 169.714 76.1052 171.253 77.1474C171.501 76.7008 171.65 76.2045 171.551 75.6586Z" fill="#252B3D"/>
<path d="M164.058 84.0447C163.562 83.9951 163.066 83.7966 162.966 83.747C162.817 83.6973 162.768 83.4988 162.817 83.3499C162.917 83.201 163.066 83.1514 163.214 83.201C163.512 83.3003 164.157 83.5484 164.455 83.3499C164.505 83.3499 164.604 83.2507 164.604 83.1018C164.803 82.0099 164.654 78.387 164.654 78.387C164.604 78.1884 164.753 78.0396 164.902 78.0396C165.1 78.0396 165.249 78.1884 165.249 78.3373C165.249 78.4862 165.398 82.0595 165.249 83.1514C165.15 83.5981 164.952 83.7966 164.753 83.8958C164.554 83.9951 164.306 84.0447 164.058 84.0447Z" fill="#FD8471"/>
<path d="M151.054 76.7497C151.054 76.7497 148.721 74.3675 147.53 76.7497C146.339 79.1319 148.721 85.1371 152.89 83.4L151.054 76.7497Z" fill="#FCB38F"/>
<path d="M151.65 81.3643C151.501 81.3643 151.352 81.3147 151.302 81.1658C150.508 79.2799 148.325 78.734 148.275 78.734C148.126 78.6843 148.027 78.5354 148.076 78.3369C148.076 78.188 148.275 78.0888 148.424 78.1384C148.523 78.1384 150.905 78.7339 151.898 80.9176C151.947 81.1162 151.848 81.2651 151.699 81.3643C151.699 81.3643 151.683 81.3643 151.65 81.3643Z" fill="#FD8471"/>
<path d="M149.417 80.6211C149.351 80.6542 149.301 80.6542 149.268 80.6211C149.069 80.5218 149.02 80.3729 149.119 80.2241C149.119 80.1744 149.417 79.5789 150.112 79.1322C150.26 79.0329 150.459 79.0826 150.558 79.2315C150.657 79.3804 150.608 79.5789 150.459 79.6285C149.863 79.9759 149.665 80.4722 149.665 80.4722C149.615 80.5715 149.516 80.6211 149.417 80.6211Z" fill="#FD8471"/>
<path d="M148.871 75.6578C148.871 75.6578 150.708 74.8141 151.502 76.6008C152.296 78.4371 152.693 79.4297 152.693 79.4297L154.082 79.4793C154.082 79.4793 152.991 76.8986 153.338 75.3104C153.636 73.7719 154.827 73.3748 154.529 71.7371C154.231 70.0993 155.025 68.0149 156.713 67.7171C158.45 67.4193 165.894 66.923 168.525 68.1141C171.105 69.2556 170.609 72.0349 171.304 73.0274C171.949 74.02 172.048 76.4023 172.048 76.4023C172.445 75.8067 172.693 75.1119 172.693 74.4171C172.693 73.5734 172.693 72.283 172.495 70.5956C172.098 67.4193 167.532 63.6475 160.534 63.6475C153.536 63.6475 149.368 66.923 148.474 70.3475C147.581 73.7719 148.871 75.6578 148.871 75.6578Z" fill="#252B3D"/>
<path d="M200.088 125.982L169.317 143.7L148.82 131.888L179.392 114.021L200.088 125.982Z" fill="#6B749B"/>
<mask id="mask0_371_1974" style="mask-type:luminance" maskUnits="userSpaceOnUse" x="153" y="99" width="42" height="42">
<path d="M154.156 131.863L169.328 140.623L194.723 125.962L194.167 104.453L180.633 99.6636L153.451 113.952L154.156 131.863Z" fill="white"/>
</mask>
<g mask="url(#mask0_371_1974)">
<path d="M194.728 125.982L179.392 117.098L154.131 131.888L169.318 140.623L194.728 125.982Z" fill="#252B3D"/>
<path d="M174.332 112.78L157.508 122.557C156.813 123.004 156.366 123.748 156.366 124.592V135.362C156.366 137.198 158.302 138.29 159.84 137.397L178.7 126.379V115.311C178.7 113.028 176.268 111.639 174.332 112.78Z" fill="#E5E5E5"/>
<path d="M176.169 113.227L158.997 123.252C158.302 123.649 157.855 124.394 157.855 125.238V136.057C157.855 137.843 159.791 138.935 161.33 138.042L176.615 129.109C177.906 128.364 178.7 126.975 178.7 125.486V114.716C178.7 113.376 177.261 112.582 176.169 113.227Z" fill="white"/>
<path d="M161.279 136.156C160.932 136.156 160.684 135.907 160.684 135.56V126.081C160.684 125.733 160.932 125.436 161.279 125.436C161.577 125.436 161.825 125.733 161.825 126.081V135.56C161.825 135.907 161.577 136.156 161.279 136.156Z" fill="#E5E5E5"/>
<path d="M164.159 134.219C163.861 134.219 163.613 133.922 163.613 133.574V124.095C163.613 123.748 163.861 123.5 164.159 123.5C164.457 123.5 164.705 123.748 164.705 124.095V133.574C164.705 133.922 164.457 134.219 164.159 134.219Z" fill="#E5E5E5"/>
<path d="M167.086 132.235C166.788 132.235 166.54 131.937 166.54 131.639V122.16C166.54 121.812 166.788 121.515 167.086 121.515C167.384 121.515 167.632 121.812 167.632 122.16V131.639C167.632 131.937 167.384 132.235 167.086 132.235Z" fill="#E5E5E5"/>
<path d="M170.014 130.25C169.716 130.25 169.468 130.002 169.468 129.655V120.175C169.468 119.828 169.716 119.53 170.014 119.53C170.311 119.53 170.56 119.828 170.56 120.175V129.655C170.56 130.002 170.311 130.25 170.014 130.25Z" fill="#E5E5E5"/>
<path d="M172.894 128.314C172.596 128.314 172.348 128.016 172.348 127.669V118.19C172.348 117.842 172.596 117.594 172.894 117.594C173.191 117.594 173.44 117.842 173.44 118.19V127.669C173.44 128.016 173.191 128.314 172.894 128.314Z" fill="#E5E5E5"/>
<path d="M175.822 126.329C175.525 126.329 175.276 126.081 175.276 125.734V116.255C175.276 115.907 175.525 115.609 175.822 115.609C176.12 115.609 176.368 115.907 176.368 116.255V125.734C176.368 126.081 176.12 126.329 175.822 126.329Z" fill="#E5E5E5"/>
<path d="M180.882 115.807L164.057 125.634C163.363 126.031 162.916 126.825 162.916 127.619V138.438C162.916 140.225 164.852 141.367 166.39 140.424L185.249 129.455V118.338C185.249 116.105 182.817 114.666 180.882 115.807Z" fill="#E5E5E5"/>
<path d="M182.719 116.303L165.547 126.279C164.852 126.726 164.405 127.47 164.405 128.314V139.083C164.405 140.92 166.341 142.012 167.879 141.118L183.165 132.185C184.456 131.44 185.25 130.051 185.25 128.562V117.743C185.25 116.452 183.86 115.609 182.719 116.303Z" fill="white"/>
<path d="M167.828 139.233C167.53 139.233 167.282 138.935 167.282 138.637V129.158C167.282 128.81 167.53 128.513 167.828 128.513C168.126 128.513 168.374 128.81 168.374 129.158V138.637C168.374 138.935 168.126 139.233 167.828 139.233Z" fill="#E5E5E5"/>
<path d="M170.708 137.246C170.41 137.246 170.162 136.998 170.162 136.651V127.172C170.162 126.824 170.41 126.526 170.708 126.526C171.006 126.526 171.254 126.824 171.254 127.172V136.651C171.254 136.998 171.006 137.246 170.708 137.246Z" fill="#E5E5E5"/>
<path d="M173.637 135.311C173.339 135.311 173.091 135.014 173.091 134.666V125.187C173.091 124.839 173.339 124.591 173.637 124.591C173.935 124.591 174.183 124.839 174.183 125.187V134.666C174.183 135.014 173.935 135.311 173.637 135.311Z" fill="#E5E5E5"/>
<path d="M176.563 133.326C176.266 133.326 176.018 133.078 176.018 132.731V123.252C176.018 122.904 176.266 122.606 176.563 122.606C176.861 122.606 177.109 122.904 177.109 123.252V132.731C177.109 133.078 176.861 133.326 176.563 133.326Z" fill="#E5E5E5"/>
<path d="M179.443 131.391C179.146 131.391 178.897 131.093 178.897 130.746V121.266C178.897 120.919 179.146 120.621 179.443 120.621C179.791 120.621 180.039 120.919 180.039 121.266V130.746C180.039 131.093 179.791 131.391 179.443 131.391Z" fill="#E5E5E5"/>
<path d="M182.37 129.406C182.072 129.406 181.824 129.108 181.824 128.761V119.282C181.824 118.934 182.072 118.686 182.37 118.686C182.668 118.686 182.916 118.934 182.916 119.282V128.761C182.916 129.108 182.668 129.406 182.37 129.406Z" fill="#E5E5E5"/>
<path d="M186.986 118.288L170.162 128.115C169.467 128.512 169.021 129.256 169.021 130.1V140.919C169.021 142.706 170.956 143.798 172.495 142.904L191.403 131.887V120.819C191.403 118.536 188.922 117.147 186.986 118.288Z" fill="#E5E5E5"/>
<path d="M188.823 118.735L171.701 128.761C170.956 129.158 170.51 129.952 170.51 130.746V141.565C170.51 143.352 172.445 144.493 174.033 143.55L189.319 134.666C190.61 133.922 191.404 132.532 191.404 131.044V120.224C191.404 118.934 189.965 118.09 188.823 118.735Z" fill="white"/>
<path d="M173.935 141.714C173.637 141.714 173.389 141.416 173.389 141.068V131.589C173.389 131.242 173.637 130.994 173.935 130.994C174.232 130.994 174.481 131.242 174.481 131.589V141.068C174.481 141.416 174.232 141.714 173.935 141.714Z" fill="#E5E5E5"/>
<path d="M176.862 139.728C176.515 139.728 176.267 139.43 176.267 139.132V129.653C176.267 129.306 176.515 129.008 176.862 129.008C177.16 129.008 177.408 129.306 177.408 129.653V139.132C177.408 139.43 177.16 139.728 176.862 139.728Z" fill="#E5E5E5"/>
<path d="M179.739 137.742C179.442 137.742 179.193 137.494 179.193 137.147V127.668C179.193 127.32 179.442 127.022 179.739 127.022C180.037 127.022 180.285 127.32 180.285 127.668V137.147C180.285 137.494 180.037 137.742 179.739 137.742Z" fill="#E5E5E5"/>
<path d="M182.666 135.808C182.368 135.808 182.12 135.511 182.12 135.163V125.684C182.12 125.337 182.368 125.088 182.666 125.088C182.964 125.088 183.212 125.337 183.212 125.684V135.163C183.212 135.511 182.964 135.808 182.666 135.808Z" fill="#E5E5E5"/>
<path d="M185.598 133.822C185.3 133.822 185.052 133.574 185.052 133.226V123.747C185.052 123.4 185.3 123.102 185.598 123.102C185.895 123.102 186.144 123.4 186.144 123.747V133.226C186.144 133.574 185.895 133.822 185.598 133.822Z" fill="#E5E5E5"/>
<path d="M188.476 131.887C188.178 131.887 187.93 131.59 187.93 131.242V121.763C187.93 121.415 188.178 121.118 188.476 121.118C188.773 121.118 189.022 121.415 189.022 121.763V131.242C189.022 131.59 188.773 131.887 188.476 131.887Z" fill="#E5E5E5"/>
</g>
<path d="M200.088 125.982V161.467L169.317 179.234V143.7L200.088 125.982Z" fill="#3A4059"/>
<path d="M169.317 179.234L148.82 167.125V131.888L169.317 143.7V179.234Z" fill="#252B3D"/>
<path d="M136.961 141.119C139.84 140.722 143.066 139.531 145.894 138.935C145.828 138.571 145.762 138.191 145.696 137.794C145.663 137.661 145.646 137.529 145.646 137.397C145.613 137.198 145.58 137.016 145.547 136.851C143.909 125.684 142.867 99.9761 142.867 99.9761C142.867 99.9761 135.026 103.5 133.835 112.929C133.04 119.183 135.572 134.121 136.961 141.119Z" fill="#AE97F8"/>
<path d="M136.961 141.12C137.705 148.316 155.969 167.473 162.471 171.84L164.307 163.999C151.254 146.629 146.837 139.432 145.845 137.794C145.712 137.53 145.646 137.397 145.646 137.397L141.527 139.184L136.961 141.12Z" fill="#AE97F8"/>
<path d="M141.476 139.085C141.476 139.118 141.493 139.151 141.526 139.184C141.559 139.217 141.592 139.234 141.625 139.234C141.774 139.333 141.973 139.333 142.122 139.234C143.313 138.489 144.653 138.043 145.695 137.795C145.761 137.795 145.811 137.795 145.844 137.795C145.711 137.53 145.645 137.397 145.645 137.397C145.612 137.199 145.579 137.017 145.546 136.852C144.355 137.1 142.965 137.546 141.625 138.39C141.377 138.539 141.327 138.886 141.476 139.085Z" fill="#9979FF"/>
<path d="M164.306 163.999C164.306 163.999 168.624 164.495 168.972 166.133V168.912V175.364C168.972 175.364 165.994 176.604 162.47 171.84C161.825 168.912 162.569 166.331 164.306 163.999Z" fill="#FCB38F"/>
<path d="M168.921 164.247C168.921 164.247 174.728 165.041 174.132 166.53C173.884 167.076 169.417 167.027 169.417 167.027L169.517 167.771C169.517 167.771 174.331 168.168 174.926 169.508C175.571 170.848 169.715 170.054 169.715 170.054L169.814 170.997C169.814 170.997 173.686 171.245 174.331 172.337C174.976 173.478 169.417 173.131 169.417 173.131L169.467 173.826C169.467 173.826 171.7 174.273 172.494 175.364C173.289 176.407 169.417 175.91 167.879 175.315C166.291 174.719 166.638 173.528 166.837 172.982C166.837 172.982 166.092 171.047 167.035 170.004C167.035 170.004 166.092 168.416 167.134 167.374C167.134 167.374 166.043 164.148 168.921 164.247Z" fill="#FCB38F"/>
<path d="M164.306 163.998C164.306 163.998 164.951 162.906 165.398 161.765C165.795 160.623 166.787 159.085 167.135 159.929C167.631 160.971 167.283 162.063 167.184 163.055C166.936 165.289 167.73 164.892 167.581 165.636C167.432 166.38 164.157 165.388 164.306 163.998Z" fill="#FCB38F"/>
<path d="M200.537 141.963C200.537 141.963 194.731 142.806 195.376 144.295C195.624 144.841 200.091 144.742 200.091 144.742L199.992 145.486C199.992 145.486 195.177 145.933 194.582 147.273C193.986 148.613 199.793 147.769 199.793 147.769L199.694 148.712C199.694 148.712 195.872 149.01 195.227 150.102C194.632 151.243 200.19 150.846 200.19 150.846L200.091 151.541C200.091 151.541 197.857 152.037 197.113 153.08C196.319 154.171 200.19 153.625 201.729 152.98C203.267 152.385 202.92 151.194 202.721 150.697C202.721 150.697 203.466 148.762 202.523 147.67C202.523 147.67 203.416 146.131 202.374 145.04C202.374 145.04 203.416 141.814 200.537 141.963Z" fill="#FCB38F"/>
<path d="M201.828 142.657C201.778 143.302 200.935 143.749 200.091 143.947V137.992C200.488 138.141 200.984 139.332 201.133 140.225C201.332 141.466 201.828 142.657 201.828 142.657Z" fill="#FCB38F"/>
<path d="M143.162 42.1268C143.162 43.7959 142.541 45.6591 141.609 47.2894C140.678 48.9585 139.397 50.3946 137.961 51.2098L101.047 72.7139C98.213 74.3441 95.9617 72.9468 96.0005 69.6086C96.0005 68.8711 96.1169 68.1336 96.311 67.3961C96.5827 66.3868 97.0097 65.3776 97.5531 64.4072C98.2518 63.2039 99.1446 62.0783 100.115 61.2631C100.542 51.4427 107.296 39.8367 115.525 35.0623C120.882 31.9182 125.539 32.5005 128.179 35.9163C128.916 35.1788 129.732 34.5577 130.547 34.0919C130.806 33.9367 131.064 33.8073 131.323 33.7038C135.321 31.8018 138.388 34.0143 138.349 38.8663C138.349 38.8663 138.349 38.8792 138.349 38.9051C141.066 37.4301 143.201 38.8663 143.162 42.1268Z" fill="#AE97F8"/>
<path d="M210.557 6.09335C210.557 7.21902 210.169 8.46113 209.509 9.58679C208.888 10.6736 208.034 11.644 207.103 12.1875L182.377 26.5494C180.514 27.6751 179 26.7047 179 24.4921C179 23.9875 179.078 23.5217 179.233 23.0171C179.388 22.3184 179.699 21.6586 180.048 20.9987C180.514 20.1836 181.135 19.4461 181.795 18.9026C182.066 12.3427 186.569 4.57953 192.081 1.3578C195.652 -0.699453 198.757 -0.350108 200.543 1.94004C201.035 1.47424 201.565 1.07315 202.134 0.736741C202.315 0.633231 202.484 0.542662 202.639 0.46503C205.317 -0.777083 207.375 0.65911 207.336 3.95847C209.16 2.98807 210.596 3.91966 210.557 6.09335Z" fill="#AE97F8"/>
<path d="M527.403 46.41C527.442 48.0791 528.024 49.9423 528.994 51.6114C529.926 53.2417 531.207 54.6778 532.604 55.493L569.557 76.9971C572.391 78.6661 574.642 77.23 574.603 73.8918C574.603 73.1931 574.487 72.4556 574.293 71.6793C574.021 70.67 573.594 69.6608 573.051 68.7292C572.352 67.4871 571.459 66.4003 570.45 65.5851C570.062 55.7259 563.269 44.1199 555.079 39.3455C549.722 36.2014 545.064 36.7837 542.425 40.1995C541.648 39.5008 540.872 38.8797 540.018 38.3751C539.759 38.2199 539.513 38.0905 539.281 37.987C535.283 36.1238 532.177 38.2975 532.255 43.1883C529.538 41.7521 527.364 43.1495 527.403 46.41Z" fill="#AE97F8"/>
<path d="M444.001 10.1093C444.04 11.235 444.428 12.4771 445.049 13.5639C445.67 14.6508 446.563 15.6212 447.494 16.1646L472.181 30.5653C474.083 31.6522 475.597 30.7206 475.558 28.4693C475.558 28.0035 475.481 27.4989 475.364 26.9943C475.17 26.3344 474.859 25.6357 474.51 25.0146C474.044 24.1995 473.462 23.462 472.802 22.9186C472.531 16.3199 467.989 8.55665 462.516 5.37374C458.906 3.27767 455.801 3.66583 454.054 5.95598C453.537 5.46431 452.993 5.05027 452.424 4.71386C452.269 4.63623 452.1 4.54566 451.919 4.44215C449.241 3.20004 447.184 4.67505 447.222 7.93559C445.437 6.96519 443.962 7.89678 444.001 10.1093Z" fill="#AE97F8"/>
<path d="M318.14 290.27L304.437 299.431C302.458 300.712 302.535 303.662 304.593 304.865L383.079 350.163C385.99 351.832 389.6 351.832 392.511 350.163L546.572 260.498C548.008 259.644 548.047 257.587 546.611 256.694L536.907 250.6L392.123 331.958L318.14 290.27Z" fill="#E8E9EB" fill-opacity="0.2"/>
<path d="M311.23 277.46V295.548C311.23 296.946 311.968 298.265 313.171 298.964L380.129 337.858L380.711 338.207L382.147 339.061C382.173 339.061 382.186 339.061 382.186 339.061C383.312 339.566 384.437 339.721 385.486 339.721L385.02 320.08L311.23 277.46Z" fill="#4B20D2"/>
<path d="M385.019 320.08L385.484 339.721C387.386 339.643 388.939 338.945 389.599 338.595C389.599 338.595 389.612 338.595 389.638 338.595L389.948 338.401L534.344 255.024C535.935 254.132 536.906 252.424 536.906 250.599V233.016L385.019 320.08Z" fill="#7346FF"/>
<path d="M338.596 273.423L402.37 310.492L526.426 238.877L462.225 202.041L338.596 273.423Z" fill="white"/>
<path d="M338.596 273.423L402.37 310.492L526.426 238.877L462.225 202.041L338.596 273.423Z" fill="white"/>
<path d="M331.22 301.72V304.359C331.22 304.592 331.336 304.786 331.53 304.864L357.071 319.653C357.498 319.885 357.964 319.575 357.964 319.109V316.47C357.964 316.276 357.848 316.043 357.692 315.965L332.112 301.176C331.724 300.982 331.22 301.254 331.22 301.72Z" fill="#DFD5FF"/>
<path d="M331.22 301.72V303.233C331.22 303.427 331.336 303.622 331.53 303.738L357.071 318.488C357.498 318.721 357.964 318.449 357.964 317.983V316.47C357.964 316.276 357.848 316.043 357.692 315.965L332.112 301.176C331.724 300.982 331.22 301.254 331.22 301.72Z" fill="#AE97F8"/>
<path d="M368.793 325.32C368.871 326.911 369.569 328.192 370.385 328.114C370.488 328.114 370.592 328.101 370.695 328.076C371.355 327.765 371.782 326.601 371.743 325.203C371.665 323.845 371.122 322.758 370.462 322.447C370.359 322.396 370.242 322.383 370.113 322.408C369.298 322.447 368.715 323.767 368.793 325.32Z" fill="#DFD5FF"/>
<path d="M369.414 325.319C369.491 326.678 370.035 327.803 370.694 328.075C371.354 327.765 371.781 326.6 371.743 325.203C371.665 323.844 371.121 322.757 370.462 322.447C369.802 322.757 369.375 323.922 369.414 325.319Z" fill="#AE97F8"/>
<path d="M535.78 234.879L390.608 318.682C387.425 320.545 383.505 320.545 380.322 318.682L312.355 279.206C310.841 278.314 310.841 276.101 312.355 275.208L461.059 189.386C461.758 188.959 462.651 188.959 463.349 189.386L535.78 230.88C537.333 231.773 537.333 233.986 535.78 234.879Z" fill="#855DFF"/>
<path d="M347.212 290.657C347.212 293.413 351.52 295.626 356.877 295.626C362.234 295.626 366.581 293.413 366.581 290.657C366.581 287.901 362.234 285.689 356.877 285.689C351.52 285.689 347.212 287.901 347.212 290.657Z" fill="#AE97F8"/>
<path d="M338.595 267.445L363.204 281.769L374.344 288.251L397.323 301.603L402.369 304.515L422.903 292.676L443.204 280.953L454.344 274.51L482.136 258.479L507.755 243.69L526.425 232.899L507.755 222.186L482.136 207.513L462.224 196.102L454.344 200.604L443.204 207.048L422.903 218.809L397.323 233.559L374.344 246.834L363.204 253.239L338.595 267.445Z" fill="#E9DDFF"/>
<path d="M399.15 294.772C398.878 294.772 398.568 294.695 398.335 294.539L355.482 269.658C354.705 269.231 354.434 268.222 354.899 267.407C355.365 266.631 356.374 266.359 357.151 266.825L399.965 291.706C400.78 292.172 401.052 293.181 400.586 293.957C400.275 294.501 399.732 294.772 399.15 294.772Z" fill="#5E2FF0"/>
<path d="M410.717 288.406C410.445 288.406 410.173 288.329 409.902 288.173L367.087 263.292C366.272 262.826 366.001 261.817 366.466 261.041C366.932 260.265 367.941 259.993 368.718 260.42L411.571 285.34C412.347 285.767 412.619 286.776 412.153 287.591C411.842 288.096 411.299 288.406 410.717 288.406Z" fill="#5E2FF0"/>
<path d="M422.323 282.002C422.013 282.002 421.741 281.963 421.469 281.808L378.655 256.927C377.84 256.461 377.607 255.452 378.034 254.637C378.5 253.861 379.509 253.589 380.285 254.055L423.138 278.936C423.915 279.402 424.186 280.411 423.721 281.187C423.41 281.731 422.867 282.002 422.323 282.002Z" fill="#5E2FF0"/>
<path d="M433.89 275.636C433.618 275.636 433.308 275.558 433.075 275.403L390.222 250.522C389.446 250.056 389.174 249.047 389.64 248.27C390.067 247.494 391.076 247.222 391.891 247.688L434.705 272.569C435.52 273.035 435.753 274.044 435.326 274.82C435.016 275.325 434.433 275.636 433.89 275.636Z" fill="#5E2FF0"/>
<path d="M445.457 269.27C445.186 269.27 444.914 269.192 444.642 269.037L401.789 244.156C401.013 243.69 400.741 242.681 401.207 241.905C401.673 241.09 402.682 240.857 403.458 241.284L446.311 266.165C447.088 266.631 447.359 267.64 446.894 268.455C446.583 268.959 446.04 269.27 445.457 269.27Z" fill="#5E2FF0"/>
<path d="M457.024 262.865C456.753 262.865 456.481 262.787 456.209 262.671L413.395 237.751C412.58 237.324 412.308 236.315 412.774 235.5C413.24 234.723 414.249 234.452 415.025 234.918L457.878 259.799C458.655 260.264 458.926 261.274 458.46 262.05C458.15 262.593 457.607 262.865 457.024 262.865Z" fill="#5E2FF0"/>
<path d="M468.63 256.5C468.32 256.5 468.048 256.422 467.776 256.267L424.962 231.386C424.186 230.92 423.914 229.911 424.38 229.135C424.807 228.358 425.816 228.087 426.631 228.552L469.445 253.433C470.222 253.86 470.493 254.87 470.028 255.685C469.756 256.189 469.174 256.5 468.63 256.5Z" fill="#5E2FF0"/>
<path d="M480.197 250.134C479.925 250.134 479.614 250.056 479.381 249.901L436.529 225.02C435.752 224.554 435.481 223.545 435.946 222.769C436.412 221.954 437.421 221.682 438.198 222.148L481.012 247.029C481.827 247.494 482.099 248.504 481.633 249.28C481.322 249.823 480.779 250.134 480.197 250.134Z" fill="#5E2FF0"/>
<path d="M491.764 243.729C491.492 243.729 491.221 243.652 490.949 243.496L448.096 218.615C447.32 218.15 447.048 217.14 447.514 216.364C447.98 215.588 448.989 215.316 449.765 215.782L492.618 240.663C493.394 241.129 493.666 242.138 493.2 242.914C492.89 243.458 492.346 243.729 491.764 243.729Z" fill="#5E2FF0"/>
<path d="M503.37 237.363C503.06 237.363 502.788 237.286 502.516 237.13L459.702 212.249C458.887 211.783 458.654 210.774 459.081 209.998C459.547 209.183 460.556 208.95 461.332 209.377L504.185 234.297C504.962 234.724 505.233 235.733 504.767 236.548C504.457 237.053 503.914 237.363 503.37 237.363Z" fill="#E5E5E5"/>
<path opacity="0.1" d="M356.491 249.746L405.438 278.043L465.719 243.225L416.772 214.967L356.491 249.746Z" fill="#5A00FF"/>
<path d="M468.553 188.145V241.012L414.56 275.559L409.669 278.664C409.643 278.69 409.617 278.703 409.591 278.703C409.164 278.936 408.621 279.091 408.038 279.13C407.573 279.169 407.107 279.091 406.796 278.897L399.033 274.278C398.257 273.812 397.791 272.958 397.791 272.065V237.403C397.791 236.626 398.102 235.928 398.645 235.462C398.774 235.358 398.917 235.255 399.072 235.151L434.045 215.083L440.023 198.936C440.489 197.655 441.343 196.607 442.507 195.947L462.303 184.535C465.059 182.944 468.553 184.923 468.553 188.145Z" fill="#4F1FE5"/>
<path d="M397.83 236.859C397.804 237.041 397.791 237.222 397.791 237.403V272.066C397.791 272.958 398.257 273.812 399.033 274.278L406.796 278.897C407.573 279.324 408.931 279.13 409.669 278.664L414.56 275.559L408.194 244.894C404.972 243.38 399.15 238.994 397.83 236.859Z" fill="#5E2FF0"/>
<path d="M443.362 211.823L413.978 228.98C412.736 229.678 411.96 231.037 411.96 232.473V251.338C411.96 254.482 415.376 256.423 418.054 254.87L451.048 235.617V216.248C451.048 212.289 446.778 209.843 443.362 211.823Z" fill="#E5E5E5"/>
<path d="M446.585 212.638L416.619 230.144C415.377 230.843 414.601 232.202 414.601 233.638V252.502C414.601 255.647 417.978 257.587 420.695 255.996L447.4 240.431C449.651 239.111 451.049 236.704 451.049 234.065V215.2C451.049 212.91 448.565 211.474 446.585 212.638Z" fill="white"/>
<path d="M420.539 252.735C420.034 252.735 419.568 252.23 419.568 251.648V235.074C419.568 234.491 420.034 233.987 420.539 233.987C421.082 233.987 421.509 234.491 421.509 235.074V251.648C421.509 252.23 421.082 252.735 420.539 252.735Z" fill="#E5E5E5"/>
<path d="M425.624 249.28C425.119 249.28 424.692 248.814 424.692 248.193V231.658C424.692 231.037 425.119 230.571 425.624 230.571C426.167 230.571 426.594 231.037 426.594 231.658V248.193C426.594 248.814 426.167 249.28 425.624 249.28Z" fill="#E5E5E5"/>
<path d="M430.748 245.865C430.204 245.865 429.777 245.36 429.777 244.778V228.204C429.777 227.621 430.204 227.117 430.748 227.117C431.252 227.117 431.679 227.621 431.679 228.204V244.778C431.679 245.36 431.252 245.865 430.748 245.865Z" fill="#E5E5E5"/>
<path d="M435.833 242.411C435.289 242.411 434.862 241.945 434.862 241.324V224.789C434.862 224.167 435.289 223.702 435.833 223.702C436.337 223.702 436.764 224.167 436.764 224.789V241.324C436.764 241.945 436.337 242.411 435.833 242.411Z" fill="#E5E5E5"/>
<path d="M440.916 238.994C440.372 238.994 439.945 238.49 439.945 237.907V221.333C439.945 220.751 440.372 220.246 440.916 220.246C441.42 220.246 441.886 220.751 441.886 221.333V237.907C441.886 238.49 441.42 238.994 440.916 238.994Z" fill="#E5E5E5"/>
<path d="M446.002 235.539C445.458 235.539 445.031 235.074 445.031 234.453V217.917C445.031 217.296 445.458 216.83 446.002 216.83C446.545 216.83 446.972 217.296 446.972 217.917V234.453C446.972 235.074 446.545 235.539 446.002 235.539Z" fill="#E5E5E5"/>
<path d="M471.658 194.123V243.458C471.658 243.536 471.619 243.575 471.541 243.613L409.591 278.703C409.164 278.936 408.62 279.091 408.038 279.13V245.127C408.038 245.011 408.116 244.933 408.193 244.894L411.959 242.721L414.598 241.207L419.566 238.334L421.507 237.209L424.69 235.423L426.592 234.298L429.775 232.473L431.677 231.386L434.86 229.562L436.762 228.436L439.945 226.651L441.886 225.525L442.662 225.098L445.03 218.655L445.69 216.869L447.359 212.328L447.708 211.435L449.338 206.971L468.552 195.909L471.658 194.123Z" fill="#855DFF"/>
<path d="M435.676 252.153L439.169 249.824L439.092 236.82C439.092 235.113 440.295 232.939 441.77 231.93C443.245 230.959 444.487 231.542 444.487 233.211L444.565 246.253L448.058 243.924L444.992 249.436L441.925 254.948L438.781 253.55L435.676 252.153Z" fill="#BF9CFF"/>
<path d="M559.963 289.687C561.554 294.966 551.85 302.574 538.265 306.727C524.679 310.88 512.336 309.988 510.744 304.747C509.153 299.507 518.857 291.899 532.442 287.746C546.028 283.593 558.333 284.447 559.963 289.687Z" fill="#E8E9EB" fill-opacity="0.2"/>
<path d="M490.326 152.278C490.326 152.278 484.97 153.326 482.719 167.533C480.428 181.779 475.343 178.285 475.809 185.35C476.314 192.453 482.796 194.704 488.269 190.124C493.781 185.505 501.234 185.544 506.513 186.631C511.831 187.679 509.618 181.662 507.794 175.219C506.008 168.775 507.91 164.971 506.784 160.352C505.698 155.694 498.944 150.376 490.326 152.278Z" fill="#252B3D"/>
<path d="M507.328 204.758C507.354 204.836 507.367 204.913 507.367 204.991C507.393 205.12 507.419 205.237 507.445 205.34C508.803 212.017 518.546 223.157 518.546 223.157L523.553 220.246C518.818 213.88 513.539 200.644 513.539 200.644L510.239 202.817L507.328 204.758Z" fill="#AE97F8"/>
<path d="M503.486 196.801C504.107 199.867 505.621 202.585 507.135 204.642C507.213 204.771 507.29 204.888 507.368 204.991C507.445 205.069 507.51 205.146 507.562 205.224C508.028 205.806 508.455 206.311 508.843 206.777C509.542 205.923 510.279 205.108 510.978 204.292C511.56 203.594 511.987 202.817 512.492 202.119C512.802 201.614 513.151 201.11 513.54 200.644C510.357 193.618 507.601 178.907 507.601 178.907C507.601 178.907 502.128 189.969 503.486 196.801Z" fill="#AE97F8"/>
<path d="M507.134 204.642C507.211 204.771 507.289 204.888 507.367 204.991C507.393 205.12 507.418 205.237 507.444 205.34C507.496 205.315 507.535 205.276 507.561 205.224C508.221 204.642 509.152 203.943 510.278 203.516C510.433 203.477 510.511 203.361 510.511 203.206C510.537 203.154 510.537 203.102 510.511 203.05C510.472 202.934 510.356 202.856 510.239 202.817C510.187 202.817 510.123 202.83 510.045 202.856C508.803 203.283 507.832 204.021 507.134 204.642Z" fill="#8A68F8"/>
<path d="M543.426 283.126C542.805 283.592 542.533 284.407 542.688 285.145C542.805 285.805 543.076 286.775 543.542 287.94C544.552 290.618 545.017 291.744 545.017 291.744C545.017 291.744 546.298 292.83 548.782 292.403L549.714 292.209C549.714 292.209 555.886 293.529 558.448 292.908C561.786 292.093 564.542 289.453 560.777 287.241C557.206 285.184 553.091 285.3 551.15 283.32C550.956 283.088 549.908 282.816 549.598 282.661C547.191 281.457 545.638 281.418 543.426 283.126Z" fill="#37474F"/>
<path d="M550.954 286.931C551.071 286.892 551.148 286.775 551.187 286.62C551.187 286.62 551.265 285.572 551.925 285.029C552.546 284.524 553.555 284.873 553.594 284.912C553.749 284.951 553.904 284.873 553.982 284.718C554.06 284.524 553.943 284.369 553.788 284.291C553.749 284.291 552.468 283.825 551.537 284.524C550.644 285.223 550.527 286.543 550.527 286.581C550.527 286.775 550.644 286.931 550.838 286.931C550.89 286.931 550.928 286.931 550.954 286.931Z" fill="white"/>
<path d="M552.276 287.28C552.392 287.241 552.47 287.125 552.47 287.008C552.47 287.008 552.586 285.921 553.246 285.417C553.867 284.912 554.876 285.261 554.876 285.261C555.07 285.339 555.226 285.261 555.303 285.067C555.342 284.912 555.264 284.718 555.109 284.679C555.07 284.64 553.751 284.175 552.858 284.912C551.965 285.611 551.849 286.931 551.849 286.969C551.849 287.163 551.965 287.28 552.159 287.319C552.185 287.319 552.224 287.306 552.276 287.28Z" fill="white"/>
<path d="M553.71 287.552C553.827 287.513 553.904 287.397 553.904 287.241C553.904 287.241 554.021 286.193 554.681 285.65C555.302 285.145 556.311 285.533 556.311 285.533C556.505 285.572 556.66 285.495 556.738 285.339C556.777 285.184 556.699 284.99 556.544 284.912C556.505 284.912 555.185 284.447 554.292 285.145C553.4 285.844 553.283 287.164 553.283 287.203C553.283 287.397 553.4 287.552 553.594 287.552C553.62 287.552 553.658 287.552 553.71 287.552Z" fill="white"/>
<path d="M540.631 278.314L544.318 284.33C544.318 284.33 547.074 285.223 549.054 283.282L545.405 276.645C545.405 276.645 541.951 276.8 540.631 278.314Z" fill="#FCB38F"/>
<path d="M547.386 275.597L548.9 278.78C548.9 278.78 546.067 281.769 541.874 282.662L540.399 279.906C540.399 279.906 544.863 277.926 547.386 275.597Z" fill="#51557C"/>
<path d="M505.931 231.347C505.931 231.347 518.352 241.284 521.185 243.458C524.019 245.592 526.309 250.988 528.172 255.879C529.958 260.537 542.03 280.604 542.03 280.604L547.037 277.46C547.037 277.46 536.634 243.768 534.305 239.77C531.976 235.811 517.77 222.924 517.77 222.924C517.77 222.924 507.833 226.223 505.931 231.347Z" fill="#252B3D"/>
<path d="M483.805 224.825C483.805 224.825 481.67 234.413 483.494 242.254C484.969 248.581 510.239 241.749 510.782 235.888C511.287 230.027 508.298 221.836 508.298 221.836L483.805 224.825Z" fill="#252B3D"/>
<path d="M510.044 225.797C500.689 228.98 490.908 231.037 483.222 225.952C484.581 218.266 485.862 208.33 485.085 203.827C483.804 196.297 476.546 183.604 482.64 180.925C484.076 180.266 486.366 179.645 488.967 179.062C492.421 178.325 496.458 177.626 500.029 177.122C501.699 176.889 503.601 176.927 504.726 177.083C507.249 177.471 508.142 178.558 507.443 181.081C506.589 184.147 506.434 187.447 507.909 190.785C510.393 196.413 506.551 199.48 506.007 204.487C505.541 208.524 508.53 219.625 510.044 225.797Z" fill="#9979FF"/>
<path d="M496.653 186.631C497.326 186.631 497.947 186.437 498.516 186.049C502.32 183.642 500.224 177.121 500.108 176.811L499.448 177.043C499.448 177.121 501.466 183.332 498.167 185.467C497.196 186.088 496.109 186.049 494.906 185.428C492.422 184.03 490.365 180.304 490.365 178.596H489.666C489.666 180.692 491.995 184.613 494.596 186.049C495.294 186.437 495.98 186.631 496.653 186.631Z" fill="white"/>
<path d="M495.722 204.758C502.204 204.758 505.697 202.895 505.853 202.817C506.047 202.701 506.086 202.507 506.008 202.313C505.892 202.157 505.698 202.08 505.503 202.196C505.465 202.196 500.535 204.797 491.646 203.788C491.452 203.788 491.258 203.943 491.258 204.137C491.219 204.331 491.374 204.486 491.568 204.525C493.043 204.68 494.441 204.758 495.722 204.758Z" fill="#8A68F8"/>
<path d="M497.235 191.638C497.286 191.638 497.325 191.638 497.351 191.638C501.427 190.396 502.32 187.601 502.358 187.485C502.436 187.291 502.32 187.097 502.126 187.019C501.931 186.98 501.737 187.058 501.699 187.252C501.66 187.368 500.806 189.814 497.157 190.939C496.963 190.978 496.847 191.172 496.885 191.366C496.963 191.522 497.079 191.638 497.235 191.638Z" fill="#8A68F8"/>
<path d="M492.111 224.167C501.039 224.167 506.085 219.276 506.279 219.043C506.434 218.926 506.434 218.694 506.318 218.538C506.162 218.383 505.93 218.383 505.774 218.538C505.735 218.577 500.728 223.468 492.111 223.468C491.917 223.429 491.762 223.623 491.762 223.817C491.762 224.011 491.917 224.167 492.111 224.167Z" fill="#8A68F8"/>
<path d="M493.159 222.497C496.497 222.419 500.689 219.741 500.844 219.624C501.038 219.508 501.077 219.275 500.961 219.12C500.844 218.965 500.611 218.887 500.456 219.003C500.417 219.042 496.264 221.72 493.159 221.759C492.926 221.798 492.771 221.953 492.771 222.147C492.809 222.342 492.965 222.497 493.159 222.497Z" fill="#8A68F8"/>
<path d="M491.724 172.462C491.724 172.462 486.949 170.716 485.979 165.786C485.048 160.895 485.319 153.714 492.034 151.579C498.711 149.445 504.882 151.502 506.396 157.674C506.396 157.674 501.273 169.978 491.724 172.462Z" fill="#252B3D"/>
<path d="M499.256 174.83L498.867 178.207L498.673 180.186C494.792 181.856 490.833 179.371 490.871 179.022C491.298 177.508 491.648 174.907 491.725 172.462C491.803 172.41 491.881 172.371 491.958 172.346C493.977 171.453 499.256 174.83 499.256 174.83Z" fill="#FCB38F"/>
<path d="M499.253 174.83L498.865 178.207C495.023 176.848 492.888 173.976 491.956 172.346C493.974 171.453 499.253 174.83 499.253 174.83Z" fill="#FD8471"/>
<path d="M505.232 164.078C505.232 164.078 506.746 162.292 507.678 163.884C508.648 165.514 506.901 169.978 504.417 168.736L505.232 164.078Z" fill="#FD8471"/>
<path d="M505.968 167.999C505.968 168.154 506.163 168.27 506.318 168.27C506.512 168.232 506.628 168.037 506.59 167.882C506.551 167.688 506.395 167.572 506.201 167.61C506.046 167.649 505.93 167.805 505.968 167.999Z" fill="white"/>
<path d="M505.075 167.339C505.152 167.339 505.23 167.3 505.269 167.184C505.735 165.825 507.249 165.321 507.249 165.321C507.365 165.282 507.443 165.166 507.404 165.049C507.365 164.933 507.249 164.855 507.132 164.894C507.054 164.933 505.424 165.476 504.881 167.068C504.842 167.184 504.881 167.3 504.997 167.339C505.023 167.339 505.049 167.339 505.075 167.339Z" fill="#D6615D"/>
<path d="M506.59 166.718C506.616 166.718 506.655 166.705 506.706 166.679C506.784 166.64 506.823 166.485 506.784 166.407C506.745 166.368 506.512 165.98 506.008 165.708C505.891 165.631 505.775 165.67 505.697 165.786C505.658 165.902 505.697 166.019 505.814 166.058C506.202 166.291 506.396 166.601 506.396 166.601C506.435 166.679 506.512 166.718 506.59 166.718Z" fill="#D6615D"/>
<path d="M506.436 166.33C506.41 166.821 506.359 167.287 506.281 167.727C505.66 171.57 502.283 179.372 495.49 175.413C493.899 174.442 492.656 173.511 491.725 172.463C491.026 171.686 490.444 170.871 489.978 169.94C489.784 169.59 489.706 169.202 489.59 168.814C489.564 168.762 489.538 168.698 489.512 168.62C489.512 168.594 489.512 168.555 489.512 168.504C489.163 167.417 488.891 166.291 488.697 165.243C488.464 163.923 488.309 162.681 488.193 161.672C488.037 159.809 488.852 157.984 490.366 156.859C494.481 153.87 499.216 154.258 502.399 155.073C504.612 155.655 506.203 157.596 506.359 159.848C506.436 160.934 506.514 162.177 506.514 163.419C506.514 164.389 506.514 165.398 506.436 166.33Z" fill="#FCB38F"/>
<path d="M503.602 162.642C503.602 162.448 503.757 162.293 503.99 162.293C504.494 162.293 505.154 162.371 505.775 162.565C507.017 162.992 507.211 163.38 507.211 163.38C507.211 163.38 507.056 163.535 505.387 163.186C504.96 163.108 504.417 163.069 503.912 163.03C503.718 162.992 503.602 162.836 503.602 162.642Z" fill="#252B3D"/>
<path d="M499.253 162.37C499.292 162.137 499.098 161.905 498.865 161.866C498.244 161.788 497.468 161.711 496.691 161.827C495.139 162.021 494.828 162.409 494.828 162.409C494.828 162.409 494.983 162.642 497.002 162.603C497.506 162.603 498.205 162.681 498.749 162.759C498.981 162.759 499.214 162.603 499.253 162.37Z" fill="#252B3D"/>
<path d="M500.456 169.28C500.482 169.28 500.495 169.28 500.495 169.28L501.931 168.737L501.349 165.282C501.31 165.127 501.194 165.01 501.038 165.049C500.844 165.088 500.767 165.243 500.767 165.398L501.271 168.348L500.301 168.737C500.146 168.775 500.068 168.969 500.146 169.086C500.185 169.241 500.34 169.319 500.456 169.28Z" fill="#FD8471"/>
<path d="M492.268 168.503C492.268 168.503 491.569 169.861 489.978 169.939C489.849 169.577 489.719 169.202 489.59 168.813C490.366 168.969 491.531 169.046 492.268 168.503Z" fill="#FD8471"/>
<path d="M491.724 172.463C491.026 171.687 490.443 170.871 489.978 169.94C489.783 169.591 489.706 169.202 489.589 168.814C489.563 168.762 489.538 168.698 489.512 168.62C489.706 168.62 489.978 168.698 490.404 168.814C490.404 168.814 492.229 170.91 491.724 172.463Z" fill="#252B3D"/>
<path d="M502.863 170.793C502.514 171.764 501.621 173.511 499.409 173.2C497.157 172.928 496.769 171.143 496.691 169.939L502.863 170.793Z" fill="white"/>
<path d="M497.856 165.554C497.817 166.097 497.507 166.524 497.157 166.524C496.847 166.485 496.575 166.019 496.614 165.476C496.653 164.933 496.925 164.506 497.274 164.544C497.623 164.544 497.895 165.01 497.856 165.554Z" fill="#252B3D"/>
<path d="M504.96 165.981C504.921 166.524 504.611 166.912 504.262 166.912C503.912 166.873 503.679 166.446 503.718 165.903C503.718 165.36 504.029 164.933 504.378 164.933C504.727 164.971 504.999 165.437 504.96 165.981Z" fill="#252B3D"/>
<path d="M490.287 164.467C490.287 164.467 488.735 162.875 487.919 164.467C487.143 166.058 488.735 169.978 491.452 168.814L490.287 164.467Z" fill="#FCB38F"/>
<path d="M489.705 168.542C489.705 168.697 489.899 168.853 490.054 168.814C490.248 168.775 490.365 168.62 490.326 168.426C490.287 168.27 490.132 168.115 489.976 168.154C489.782 168.193 489.666 168.348 489.705 168.542Z" fill="white"/>
<path d="M490.637 167.533C490.56 167.533 490.482 167.494 490.443 167.416C489.9 166.136 488.464 165.786 488.425 165.786C488.347 165.747 488.27 165.631 488.27 165.514C488.308 165.437 488.425 165.359 488.541 165.398C488.619 165.398 490.172 165.786 490.831 167.261C490.87 167.339 490.793 167.494 490.715 167.533C490.689 167.533 490.663 167.533 490.637 167.533Z" fill="#FD8471"/>
<path d="M489.162 167.067C489.136 167.067 489.11 167.054 489.084 167.028C488.968 166.99 488.929 166.873 488.968 166.757C488.968 166.757 489.162 166.33 489.666 166.058C489.744 165.98 489.86 166.019 489.938 166.136C489.977 166.213 489.977 166.33 489.86 166.407C489.511 166.64 489.356 166.951 489.356 166.951C489.317 166.99 489.239 167.028 489.162 167.067Z" fill="#FD8471"/>
<path d="M488.463 163.884C489.085 163.69 489.628 163.768 489.977 163.923C490.249 164.04 490.443 164.234 490.637 164.467C490.689 164.492 490.728 164.531 490.754 164.583C490.831 164.557 490.909 164.518 490.987 164.467C491.168 164.337 491.323 164.156 491.452 163.923C491.802 163.38 492.229 162.953 492.345 162.448C492.539 161.633 493.432 160.895 493.432 160.895C500.225 163.03 505.62 157.13 505.62 157.13C503.524 150.648 492.073 153.753 489.085 155.306C486.135 156.897 485.203 164.816 488.463 163.884Z" fill="#252B3D"/>
<path d="M504.106 157.596C504.106 157.596 503.524 162.138 506.629 163.69C506.629 163.69 507.949 154.569 504.106 157.596Z" fill="#252B3D"/>
<path fill-rule="evenodd" clip-rule="evenodd" d="M496.77 168.464C495.14 168.386 493.859 166.989 493.937 165.32C493.963 165.19 493.989 165.061 494.014 164.931C493.743 164.854 493.122 164.699 493.122 164.737C492.772 164.66 492.19 164.543 491.491 164.504C491.375 164.504 490.909 164.504 490.754 164.582C490.56 164.388 490.327 164.116 490.133 164C490.637 163.961 491.491 163.922 491.918 163.961C492.384 164.039 493.665 164.272 494.17 164.388C494.635 163.224 495.8 162.447 497.081 162.525C498.75 162.603 499.992 164.039 499.914 165.669C499.837 167.299 498.401 168.58 496.77 168.464ZM497.081 162.991C495.684 162.913 494.48 163.961 494.403 165.358C494.325 166.756 495.412 167.92 496.809 167.998C498.168 168.076 499.371 167.028 499.449 165.63C499.526 164.272 498.439 163.068 497.081 162.991Z" fill="white"/>
<path fill-rule="evenodd" clip-rule="evenodd" d="M504.922 168.93C503.253 168.853 502.011 167.416 502.088 165.786C502.166 164.156 503.602 162.875 505.232 162.953C506.863 163.069 508.144 164.466 508.027 166.097C507.95 167.766 506.552 169.008 504.922 168.93ZM505.194 163.418C503.835 163.341 502.632 164.428 502.554 165.825C502.477 167.184 503.563 168.387 504.922 168.464C506.319 168.542 507.523 167.455 507.6 166.097C507.639 164.699 506.591 163.496 505.194 163.418Z" fill="white"/>
<path d="M502.283 165.126C502.283 165.126 501.778 164.35 501.04 164.311C500.342 164.272 499.798 164.971 499.798 164.971L499.41 164.699C499.449 164.66 500.109 163.767 501.079 163.845C502.05 163.884 502.671 164.816 502.671 164.893L502.283 165.126Z" fill="white"/>
<path d="M515.4 291.394C514.663 291.665 514.119 292.286 514.003 293.063C513.925 293.761 513.847 294.732 513.886 295.974C513.964 298.846 514.003 300.011 514.003 300.011C514.003 300.011 514.857 301.525 517.341 301.913L518.078 302.029C518.078 302.029 523.668 305.406 526.269 305.639C529.684 305.989 533.178 304.436 530.383 301.098C527.705 297.954 523.784 296.712 522.62 294.188C522.465 293.917 521.611 293.257 521.378 293.063C519.476 291.083 518.04 290.54 515.4 291.394Z" fill="#37474F"/>
<path d="M521.109 297.448C521.225 297.448 521.341 297.371 521.38 297.254C521.419 297.215 521.846 296.245 522.622 295.973C523.399 295.74 524.253 296.4 524.253 296.4C524.369 296.517 524.563 296.517 524.68 296.361C524.796 296.245 524.796 296.012 524.641 295.934C524.602 295.896 523.554 295.003 522.428 295.391C521.341 295.74 520.837 296.944 520.798 296.982C520.759 297.138 520.837 297.332 520.992 297.409C521.018 297.435 521.057 297.448 521.109 297.448Z" fill="white"/>
<path d="M522.234 298.225C522.35 298.225 522.466 298.148 522.505 298.031C522.505 298.031 522.932 297.061 523.747 296.789C524.524 296.518 525.339 297.216 525.378 297.216C525.494 297.333 525.688 297.294 525.805 297.177C525.921 297.022 525.882 296.828 525.766 296.712C525.727 296.673 524.679 295.819 523.553 296.168C522.466 296.556 521.962 297.721 521.923 297.799C521.845 297.954 521.923 298.148 522.078 298.225C522.13 298.225 522.182 298.225 522.234 298.225Z" fill="white"/>
<path d="M523.475 298.963C523.63 298.963 523.747 298.886 523.786 298.769C523.786 298.73 524.213 297.76 525.028 297.488C525.804 297.255 526.619 297.915 526.619 297.915C526.774 298.032 526.968 297.993 527.085 297.876C527.201 297.721 527.163 297.527 527.046 297.411C527.007 297.372 525.92 296.518 524.834 296.906C523.747 297.255 523.203 298.459 523.203 298.498C523.126 298.653 523.203 298.847 523.359 298.925C523.41 298.95 523.449 298.963 523.475 298.963Z" fill="white"/>
<path d="M514.197 285.922L515.401 292.87C515.401 292.87 517.574 294.616 520.136 293.452L519.205 285.96C519.205 285.96 515.944 284.912 514.197 285.922Z" fill="#FCB38F"/>
<path d="M494.052 233.171C494.052 233.171 516.021 242.487 517.264 247.572C518.506 252.696 520.641 288.057 520.641 288.057C520.641 288.057 517.341 289.92 513.693 289.222C513.693 289.222 511.519 277.344 510.471 274.161C509.462 270.978 507.133 259.489 506.744 255.258C506.744 255.258 487.569 250.173 484.775 245.437C478.68 235.073 494.052 233.171 494.052 233.171Z" fill="#252B3D"/>
<path d="M520.99 285.301L521.378 288.795C521.378 288.795 517.691 290.658 513.46 290.153L512.955 287.048C512.955 287.048 517.846 286.66 520.99 285.301Z" fill="#51557C"/>
<path d="M503.798 246.757L488.194 237.868C487.379 237.402 487.418 236.237 488.233 235.772L506.554 225.485C506.903 225.291 507.33 225.291 507.718 225.485L523.361 233.753C524.176 234.18 524.215 235.383 523.4 235.849L505.04 246.757C504.652 246.989 504.186 246.989 503.798 246.757Z" fill="#86A0C8"/>
<path d="M503.798 244.932L488.194 236.043C487.379 235.577 487.418 234.374 488.233 233.908L506.554 223.661C506.903 223.428 507.33 223.428 507.718 223.622L523.361 231.89C524.176 232.356 524.215 233.52 523.4 234.025L505.04 244.932C504.652 245.165 504.186 245.165 503.798 244.932Z" fill="#3A4059"/>
<path d="M487.611 236.78V235.034L503.759 243.923V246.756L488.271 237.906C487.883 237.673 487.611 237.246 487.611 236.78Z" fill="#51557C"/>
<path d="M503.758 225.834V245.747C503.758 246.795 504.612 247.533 505.543 247.494H508.959V245.786L533.995 231.346C534.539 230.997 534.888 230.415 534.888 229.794V210.968H536.519V208.134H533.103C532.831 208.134 532.52 208.212 532.249 208.367L504.612 224.321C504.068 224.631 503.758 225.213 503.758 225.834Z" fill="#51557C"/>
<path d="M535.626 208.368L507.989 224.321C507.445 224.631 507.135 225.214 507.135 225.835V245.747C507.135 247.106 508.61 247.96 509.774 247.261L537.372 231.308C537.916 230.997 538.265 230.415 538.265 229.794V209.881C538.265 208.523 536.79 207.669 535.626 208.368Z" fill="#6B749B"/>
<path d="M521.963 228.629C521.924 230.182 522.856 231.463 523.982 231.463C525.107 231.463 526.039 230.182 526.039 228.629C526.078 227.077 525.146 225.796 524.02 225.796C522.895 225.796 521.963 227.077 521.963 228.629Z" fill="#9CA6C8"/>
<path d="M480.272 209.921C482.368 209.61 484.736 208.756 486.832 208.291C486.78 208.032 486.728 207.76 486.676 207.475C486.676 207.372 486.663 207.268 486.638 207.165C486.612 207.035 486.586 206.906 486.56 206.777C485.357 198.587 484.774 180.149 484.774 180.149C484.774 180.149 478.486 180.227 477.632 187.175C477.05 191.794 479.262 204.758 480.272 209.921Z" fill="#AE97F8"/>
<path d="M480.272 209.92C482.369 216.209 496.653 231.153 496.653 231.153L500.34 226.689C490.753 213.957 487.531 208.678 486.794 207.436C486.69 207.255 486.638 207.165 486.638 207.165L483.611 208.484L480.272 209.92Z" fill="#AE97F8"/>
<path d="M483.573 208.406C483.599 208.432 483.611 208.458 483.611 208.484C483.637 208.51 483.663 208.523 483.689 208.523C483.806 208.6 483.961 208.6 484.077 208.523C484.97 207.979 485.902 207.669 486.678 207.475C486.73 207.475 486.769 207.462 486.794 207.436C486.691 207.255 486.639 207.164 486.639 207.164C486.613 207.035 486.587 206.905 486.562 206.776C485.708 206.931 484.66 207.28 483.689 207.902C483.534 208.018 483.456 208.251 483.573 208.406Z" fill="#8A68F8"/>
<path d="M500.34 226.689C500.34 226.689 503.523 227.039 503.756 228.242V230.299V235.035C503.756 235.035 499.292 234.686 496.652 231.153L500.34 226.689Z" fill="#FCB38F"/>
<path d="M426.685 146.236C426.374 146.042 425.947 146.042 425.637 146.236C372.047 175.738 326.002 199.279 272.412 228.781L246.211 214.225L246.638 71.4213L323.571 26.6664L323.688 72.4693L325.706 71.3436V24.8032C325.706 24.4151 325.512 24.0657 325.163 23.8716C324.852 23.6776 324.425 23.6776 324.115 23.8716L245.008 69.8686C244.697 70.0627 244.503 70.412 244.503 70.8002L244.076 214.846C244.076 215.235 244.27 215.623 244.62 215.778L271.868 230.955C272.05 231.033 272.231 231.072 272.412 231.072C272.593 231.072 272.774 231.033 272.955 230.955L425.093 148.992V223.843L427.228 222.562V147.167C427.228 146.779 427.034 146.43 426.685 146.236Z" fill="#AE97F8"/>
<path d="M248.968 70.2962C248.968 72.3922 247.26 74.1001 245.164 74.1001C243.068 74.1001 241.36 72.3922 241.36 70.2962C241.36 68.2001 243.068 66.4922 245.164 66.4922C247.26 66.4922 248.968 68.2001 248.968 70.2962Z" fill="#D8C4FF"/>
<path d="M328.463 24.804C328.463 26.9 326.755 28.6079 324.659 28.6079C322.563 28.6079 320.855 26.9 320.855 24.804C320.855 22.7079 322.563 21 324.659 21C326.755 21 328.463 22.7079 328.463 24.804Z" fill="#D8C4FF"/>
<path d="M248.968 214.071C248.968 216.167 247.26 217.875 245.164 217.875C243.068 217.875 241.36 216.167 241.36 214.071C241.36 211.975 243.068 210.267 245.164 210.267C247.26 210.267 248.968 211.975 248.968 214.071Z" fill="#D8C4FF"/>
<path d="M276.877 230.024C276.877 232.159 275.17 233.828 273.073 233.828C270.977 233.828 269.27 232.159 269.27 230.024C269.27 227.928 270.977 226.259 273.073 226.259C275.17 226.259 276.877 227.928 276.877 230.024Z" fill="#D8C4FF"/>
<path d="M429.569 147.804C429.569 149.9 427.9 151.569 425.804 151.569C423.669 151.569 422 149.9 422 147.804C422 145.708 423.669 144 425.804 144C427.9 144 429.569 145.708 429.569 147.804Z" fill="#D8C4FF"/>
<path d="M262.671 136.012V160.505L237.673 176.458L235.422 177.895C235.396 177.921 235.383 177.933 235.383 177.933C235.189 178.05 234.917 178.128 234.646 178.128C234.452 178.128 234.219 178.089 234.063 178.011L230.492 175.876C230.143 175.643 229.91 175.255 229.91 174.867V158.797C229.91 158.448 230.065 158.137 230.298 157.904C230.376 157.853 230.441 157.814 230.492 157.788L246.679 148.472L249.435 140.981C249.668 140.437 250.056 139.933 250.599 139.622L259.76 134.343C261.041 133.606 262.671 134.537 262.671 136.012Z" fill="#5D3DC1"/>
<path d="M229.949 158.564C229.923 158.642 229.91 158.719 229.91 158.797V174.867C229.91 175.255 230.143 175.643 230.492 175.876L234.063 178.011C234.413 178.205 235.073 178.127 235.422 177.894L237.673 176.458L234.723 162.29C233.21 161.553 230.531 159.534 229.949 158.564Z" fill="#6F41FF"/>
<path d="M250.988 146.959L237.402 154.916C236.82 155.227 236.471 155.848 236.471 156.546V165.28C236.471 166.716 238.062 167.609 239.304 166.91L254.559 157.982V149.016C254.559 147.192 252.579 146.066 250.988 146.959Z" fill="#E5E5E5"/>
<path d="M252.503 147.347L238.606 155.46C238.024 155.77 237.675 156.391 237.675 157.051V165.823C237.675 167.26 239.266 168.152 240.508 167.415L252.891 160.195C253.9 159.613 254.56 158.487 254.56 157.284V148.55C254.56 147.463 253.395 146.804 252.503 147.347Z" fill="white"/>
<path d="M240.43 165.902C240.197 165.902 240.003 165.669 240.003 165.397V157.75C240.003 157.479 240.197 157.246 240.43 157.246C240.702 157.246 240.896 157.479 240.896 157.75V165.397C240.896 165.669 240.702 165.902 240.43 165.902Z" fill="#E5E5E5"/>
<path d="M242.798 164.31C242.565 164.31 242.332 164.077 242.332 163.805V156.158C242.332 155.887 242.565 155.654 242.798 155.654C243.031 155.654 243.225 155.887 243.225 156.158V163.805C243.225 164.077 243.031 164.31 242.798 164.31Z" fill="#E5E5E5"/>
<path d="M245.166 162.718C244.894 162.718 244.7 162.486 244.7 162.214V154.567C244.7 154.295 244.894 154.062 245.166 154.062C245.399 154.062 245.593 154.295 245.593 154.567V162.214C245.593 162.486 245.399 162.718 245.166 162.718Z" fill="#E5E5E5"/>
<path d="M247.494 161.127C247.261 161.127 247.067 160.894 247.067 160.623V152.976C247.067 152.704 247.261 152.471 247.494 152.471C247.766 152.471 247.96 152.704 247.96 152.976V160.623C247.96 160.894 247.766 161.127 247.494 161.127Z" fill="#E5E5E5"/>
<path d="M249.864 159.535C249.631 159.535 249.437 159.302 249.437 159.031V151.384C249.437 151.112 249.631 150.879 249.864 150.879C250.096 150.879 250.329 151.112 250.329 151.384V159.031C250.329 159.302 250.096 159.535 249.864 159.535Z" fill="#E5E5E5"/>
<path d="M252.229 157.944C251.958 157.944 251.764 157.749 251.764 157.439V149.792C251.764 149.521 251.958 149.288 252.229 149.288C252.462 149.288 252.656 149.521 252.656 149.792V157.439C252.656 157.749 252.462 157.944 252.229 157.944Z" fill="#E5E5E5"/>
<path d="M264.108 138.768V161.631C264.108 161.657 264.095 161.682 264.069 161.708L235.384 177.933C235.19 178.05 234.918 178.127 234.646 178.127V162.407C234.646 162.355 234.672 162.316 234.724 162.291L236.471 161.281L237.674 160.583L240.003 159.224L240.896 158.719L242.332 157.904L243.225 157.361L244.7 156.546L245.593 156.041L247.068 155.187L247.96 154.683L249.435 153.829L250.328 153.324L250.678 153.091L251.764 150.141L252.075 149.326L252.851 147.191L253.006 146.803L253.783 144.746L262.672 139.583L264.108 138.768Z" fill="#9E7FFF"/>
<path d="M461.295 172.386L458.539 178.402V173.977L461.295 172.386Z" fill="#855DFF"/>
<path d="M458.538 178.402L457.18 177.626V174.753L458.538 173.977V178.402Z" fill="#4F1FE5"/>
<path d="M445.768 157.364V177.393L449.222 179.412L448.912 159.227L445.768 157.364Z" fill="#4F1FE5"/>
<path d="M466.845 148.863V169.203L449.223 179.411L448.912 159.227L466.845 148.863Z" fill="#5E2FF0"/>
<path d="M445.768 157.364L463.701 147L466.845 148.863L448.912 159.227L445.768 157.364Z" fill="#855DFF"/>
<path d="M452.366 164.544L454.229 163.302L454.268 170.172C454.268 171.065 454.928 171.376 455.704 170.871C456.481 170.328 457.102 169.202 457.102 168.309L457.063 161.439L458.926 160.197L457.257 159.459L455.627 158.722L453.996 161.633L452.366 164.544Z" fill="#BF9CFF"/>
<path d="M458.188 167.223L460.013 165.981L459.974 159.11C459.974 158.218 460.595 157.092 461.41 156.548C462.187 156.044 462.808 156.316 462.808 157.247L462.885 164.118L464.71 162.876L463.079 165.787L461.488 168.698L459.819 167.96L458.188 167.223Z" fill="#BF9CFF"/>
<path d="M147.797 326.077C147.797 330.567 136.524 334.233 122.594 334.233C108.663 334.233 97.3447 330.567 97.3447 326.077C97.3447 321.586 108.663 317.92 122.594 317.92C136.524 317.92 147.797 321.586 147.797 326.077Z" fill="#E8E9EB" fill-opacity="0.2"/>
<path d="M140.738 289.004V321.035C140.738 326.351 132.581 330.704 122.592 330.704C112.556 330.704 104.445 326.351 104.445 321.035V289.004H140.738Z" fill="#D3BBFE"/>
<path d="M140.738 289.004C140.738 294.319 132.581 298.673 122.592 298.673C112.556 298.673 104.445 294.319 104.445 289.004C104.445 283.642 112.556 279.335 122.592 279.335C132.581 279.335 140.738 283.642 140.738 289.004Z" fill="#E0CFFF"/>
<path d="M138.447 289.004C138.447 289.34 138.34 289.691 138.126 290.058C136.705 292.441 131.069 295.648 122.591 295.648C114.114 295.648 108.478 292.441 107.057 290.058C106.813 289.691 106.69 289.34 106.69 289.004C106.69 286.667 112.739 282.313 122.591 282.313C132.444 282.313 138.447 286.667 138.447 289.004Z" fill="#CDB2FF"/>
<path d="M122.225 289.875C122.194 289.875 122.179 289.875 122.179 289.875C121.675 289.829 121.308 289.417 121.354 288.913C121.4 288.592 123.554 256.606 115.626 237.589C115.443 237.131 115.626 236.627 116.084 236.444C116.542 236.26 117.046 236.444 117.23 236.902C125.341 256.332 123.141 288.729 123.095 289.05C123.049 289.508 122.683 289.875 122.225 289.875Z" fill="#E0CFFF"/>
<path d="M122.224 271.041C121.812 271.041 121.445 270.72 121.353 270.308C119.062 258.714 107.927 255.415 107.789 255.369C107.331 255.232 107.056 254.774 107.194 254.315C107.331 253.857 107.835 253.582 108.294 253.72C108.798 253.857 120.574 257.34 123.095 269.987C123.186 270.445 122.866 270.904 122.407 270.995C122.346 271.026 122.285 271.041 122.224 271.041Z" fill="#E0CFFF"/>
<path d="M121.171 257.156C120.713 257.156 120.3 256.79 120.3 256.332C119.75 244.463 125.57 235.711 125.845 235.344C126.12 234.977 126.67 234.84 127.036 235.115C127.449 235.39 127.541 235.94 127.266 236.352C127.22 236.444 121.538 245.013 122.042 256.24C122.042 256.744 121.675 257.156 121.217 257.156C121.186 257.156 121.171 257.156 121.171 257.156Z" fill="#E0CFFF"/>
<path d="M121.903 263.985C121.842 263.985 121.796 263.985 121.765 263.985C121.261 263.893 120.941 263.435 121.032 262.976C121.857 258.669 124.79 255.461 129.51 253.674C132.992 252.391 136.2 252.299 136.338 252.299C136.842 252.299 137.208 252.712 137.254 253.17C137.254 253.674 136.842 254.041 136.383 254.041C136.246 254.041 124.423 254.361 122.774 263.297C122.682 263.71 122.315 263.985 121.903 263.985Z" fill="#E0CFFF"/>
<path d="M102.197 268.888C91.7036 270.583 89 265.955 89 265.955C89 265.955 94.0865 250.604 101.327 249.137C107.009 247.946 107.925 251.979 108.063 253.766C108.109 254.224 108.063 254.545 108.063 254.545C108.063 254.545 108.75 254.407 109.621 254.499C110.904 254.636 112.599 255.14 113.379 256.928C114.662 259.769 112.966 267.146 102.197 268.888Z" fill="#A189F7"/>
<path d="M109.622 254.499C103.802 256.286 96.4244 264.764 96.3786 264.856C96.2411 264.993 96.0578 265.085 95.8745 265.085C95.7218 265.085 95.5843 265.024 95.4621 264.901C95.233 264.672 95.1871 264.306 95.4163 264.031C95.737 263.664 102.152 256.286 108.064 253.766C108.11 254.224 108.064 254.545 108.064 254.545C108.064 254.545 108.751 254.408 109.622 254.499Z" fill="#E0CFFF"/>
<path d="M116.909 237.315C116.756 237.284 116.588 237.254 116.405 237.223C116.221 237.468 116.023 237.681 115.809 237.865C113.059 240.431 108.752 240.66 105.819 238.186C104.536 237.132 102.978 234.84 102.153 232.641C98.579 223.522 101.649 215.319 107.79 211.149C107.79 211.149 115.259 209.27 120.85 218.848C126.348 228.196 123.003 237.773 116.909 237.315Z" fill="#A189F7"/>
<path d="M116.91 237.315C116.757 237.284 116.589 237.253 116.406 237.223C116.222 237.467 116.024 237.681 115.81 237.864C112.694 232.045 109.028 215.685 108.89 214.952C108.799 214.632 109.028 214.311 109.349 214.219C109.669 214.127 110.036 214.357 110.082 214.677C110.128 214.861 113.885 231.724 116.91 237.315Z" fill="#E0CFFF"/>
<path d="M148.573 229.251C148.573 229.251 138.491 245.381 131.159 244.464C125.065 243.685 125.935 238.232 126.394 236.399C126.485 236.078 126.577 235.849 126.577 235.849C126.577 235.849 126.119 235.803 125.477 235.574C124.561 235.208 123.323 234.566 122.682 233.329C122.499 232.917 122.315 232.458 122.269 231.908C122.178 230.992 122.682 229.709 123.644 228.38C125.935 225.218 131.159 221.965 138.629 223.935C144.448 225.447 148.573 229.251 148.573 229.251Z" fill="#A189F7"/>
<path d="M142.617 228.974C142.663 229.341 142.433 229.616 142.067 229.662C133.864 230.441 128.365 234.657 126.395 236.398C126.487 236.077 126.578 235.848 126.578 235.848C126.578 235.848 126.12 235.802 125.479 235.573C127.541 233.694 133.223 229.249 141.975 228.424C142.296 228.379 142.617 228.654 142.617 228.974Z" fill="#E0CFFF"/>
<path d="M149.765 271.498C149.765 271.498 131.115 267.833 129.373 260.638C128.044 255.185 132.444 253.764 134.643 253.398C135.33 253.306 135.789 253.306 135.789 253.306C135.789 253.306 135.697 253.031 135.697 252.573C135.605 251.382 135.743 248.999 137.942 247.899C140.738 246.524 150.04 249.503 151.231 260.317C151.873 266.32 149.765 271.498 149.765 271.498Z" fill="#A189F7"/>
<path d="M146.602 266.184C146.51 266.215 146.434 266.23 146.373 266.23C146.098 266.23 145.869 266.092 145.777 265.863C142.661 258.165 135.512 253.903 134.642 253.399C135.329 253.307 135.787 253.307 135.787 253.307C135.787 253.307 135.696 253.032 135.696 252.574C137.62 253.72 143.944 257.981 146.923 265.359C147.06 265.68 146.923 266.047 146.602 266.184Z" fill="#E0CFFF"/>
<path d="M597.45 308.964C597.45 312.503 588.601 315.391 577.656 315.391C566.757 315.391 557.908 312.503 557.908 308.964C557.908 305.471 566.757 302.583 577.656 302.583C588.601 302.583 597.45 305.471 597.45 308.964Z" fill="#E8E9EB" fill-opacity="0.2"/>
<path d="M591.908 279.901V305.005C591.908 309.197 585.527 312.597 577.656 312.597C569.831 312.597 563.45 309.197 563.45 305.005V279.901H591.908Z" fill="#D3BBFE"/>
<path d="M591.908 279.901C591.908 284.093 585.527 287.493 577.656 287.493C569.831 287.493 563.45 284.093 563.45 279.901C563.45 275.709 569.831 272.356 577.656 272.356C585.527 272.356 591.908 275.709 591.908 279.901Z" fill="#E0CFFF"/>
<path d="M590.092 279.901C590.092 280.18 589.999 280.475 589.812 280.786C588.741 282.649 584.316 285.117 577.656 285.117C571.043 285.117 566.618 282.649 565.5 280.786C565.314 280.475 565.221 280.18 565.221 279.901C565.221 278.085 569.971 274.685 577.656 274.685C585.388 274.685 590.092 278.085 590.092 279.901Z" fill="#CDB2FF"/>
<path d="M577.564 278.504L576.539 277.665L576.027 277.246L574.443 275.989C574.443 275.989 578.169 240.172 593.353 238.822C598.057 238.403 601.457 244.131 591.909 254.844C583.013 264.811 577.564 278.504 577.564 278.504Z" fill="#A189F7"/>
<path d="M576.539 277.665L576.026 277.246C577.889 269.282 581.382 261.83 584.084 256.8C587.344 250.838 590.185 246.833 590.232 246.833C590.325 246.693 590.511 246.646 590.651 246.739C590.791 246.833 590.837 247.065 590.744 247.205C590.697 247.205 587.856 251.164 584.643 257.126C581.941 262.156 578.402 269.701 576.539 277.665Z" fill="#E0CFFF"/>
<path d="M570.019 267.139L570.811 266.067L571.23 265.508L572.394 263.925C572.394 263.925 559.586 230.251 544.542 232.906C539.931 233.698 538.068 240.125 550.085 247.996C561.263 255.309 570.019 267.139 570.019 267.139Z" fill="#A189F7"/>
<path d="M570.811 266.068L571.231 265.509C567.365 258.336 562.055 252.002 558.143 247.857C553.486 242.92 549.666 239.799 549.666 239.799C549.527 239.659 549.294 239.706 549.201 239.846C549.108 239.986 549.108 240.172 549.247 240.265C549.294 240.312 553.066 243.385 557.677 248.276C561.636 252.468 566.946 258.848 570.811 266.068Z" fill="#E0CFFF"/>
<path d="M581.29 280.739C580.358 276.454 576.679 258.523 578.588 241.756C580.87 221.077 572.021 217.211 566.851 221.635C551.202 235.003 572.44 275.29 575.421 280.739H581.29Z" fill="#BEACFF"/>
<path d="M579.286 280.739C575.002 269.98 572.906 258.523 571.928 250.465C570.717 240.778 570.763 233.745 570.763 233.698C570.763 233.419 570.577 233.232 570.297 233.232C570.065 233.232 569.878 233.419 569.878 233.698C569.832 233.745 569.785 240.824 570.996 250.605C572.021 258.616 574.07 269.98 578.308 280.739H579.286Z" fill="#E0CFFF"/>
</svg>
