<svg width="60" height="60" viewBox="0 0 60 60" fill="none" xmlns="http://www.w3.org/2000/svg">
<path d="M46.1 11H22.9C22.1312 11.0009 21.3941 11.3068 20.8504 11.8504C20.3068 12.3941 20.0009 13.1312 20 13.9V37.1C20.0033 37.4294 20.0634 37.7559 20.1777 38.0649L39.7854 18.4571H36.1571C35.8275 18.4571 35.5114 18.3262 35.2783 18.0931C35.0452 17.86 34.9143 17.5439 34.9143 17.2143C34.9143 16.8847 35.0452 16.5685 35.2783 16.3355C35.5114 16.1024 35.8275 15.9714 36.1571 15.9714H42.7857C43.115 15.9726 43.4304 16.1039 43.6633 16.3367C43.8961 16.5696 44.0274 16.885 44.0286 17.2143V23.8429C44.0286 24.1725 43.8976 24.4886 43.6645 24.7217C43.4315 24.9548 43.1153 25.0857 42.7857 25.0857C42.4561 25.0857 42.14 24.9548 41.9069 24.7217C41.6738 24.4886 41.5429 24.1725 41.5429 23.8429V20.2146L21.9351 39.8223C22.2441 39.9366 22.5706 39.9967 22.9 40H46.1C46.8688 39.9991 47.6059 39.6932 48.1496 39.1496C48.6932 38.6059 48.9991 37.8688 49 37.1V13.9C48.9991 13.1312 48.6932 12.3941 48.1496 11.8504C47.6059 11.3068 46.8688 11.0009 46.1 11Z" fill="#283474"/>
<path d="M52.2857 4H17.619C16.6343 4.00107 15.6902 4.39274 14.9938 5.08907C14.2975 5.78541 13.9058 6.72953 13.9048 7.71429V28.7619H7.71429C6.72953 28.763 5.78541 29.1546 5.08907 29.851C4.39274 30.5473 4.00107 31.4914 4 32.4762V52.2857C4.00107 53.2705 4.39274 54.2146 5.08907 54.9109C5.78541 55.6073 6.72953 55.9989 7.71429 56H27.5238C28.5086 55.9989 29.4527 55.6073 30.149 54.9109C30.8454 54.2146 31.237 53.2705 31.2381 52.2857V46.0952H52.2857C53.2705 46.0942 54.2146 45.7025 54.9109 45.0062C55.6073 44.3098 55.9989 43.3657 56 42.381V7.71429C55.9989 6.72953 55.6073 5.78541 54.9109 5.08907C54.2146 4.39274 53.2705 4.00107 52.2857 4ZM28.7619 52.2857C28.7615 52.614 28.631 52.9287 28.3989 53.1608C28.1668 53.3929 27.8521 53.5235 27.5238 53.5238H7.71429C7.38603 53.5235 7.07133 53.3929 6.83922 53.1608C6.60711 52.9287 6.47655 52.614 6.47619 52.2857V32.4762C6.47655 32.1479 6.60711 31.8332 6.83922 31.6011C7.07133 31.369 7.38603 31.2385 7.71429 31.2381H13.9048V42.381C13.9058 43.3657 14.2975 44.3098 14.9938 45.0062C15.6902 45.7025 16.6343 46.0942 17.619 46.0952H28.7619V52.2857ZM53.5238 42.381C53.5235 42.7092 53.3929 43.0239 53.1608 43.256C52.9287 43.4881 52.614 43.6187 52.2857 43.619H17.619C17.2908 43.6187 16.9761 43.4881 16.744 43.256C16.5119 43.0239 16.3813 42.7092 16.381 42.381V7.71429C16.3813 7.38603 16.5119 7.07133 16.744 6.83922C16.9761 6.60711 17.2908 6.47655 17.619 6.47619H52.2857C52.614 6.47655 52.9287 6.60711 53.1608 6.83922C53.3929 7.07133 53.5235 7.38603 53.5238 7.71429V42.381Z" fill="black"/>
</svg>
