<svg width="56" height="56" viewBox="0 0 56 56" fill="none" xmlns="http://www.w3.org/2000/svg">
<path d="M51.0781 0H4.92188C2.20795 0 0 2.21661 0 4.94118V51.0588C0 53.7834 2.20795 56 4.92188 56H51.0781C53.792 56 56 53.7834 56 51.0588V4.94118C56 2.21661 53.792 0 51.0781 0ZM4.92188 3.29412H51.0781C51.9828 3.29412 52.7188 4.03299 52.7188 4.94118V13.1765H3.28125V4.94118C3.28125 4.03299 4.01723 3.29412 4.92188 3.29412ZM51.0781 52.7059H4.92188C4.01723 52.7059 3.28125 51.967 3.28125 51.0588V16.4706H52.7188V51.0588C52.7188 51.967 51.9828 52.7059 51.0781 52.7059Z" fill="black"/>
<path d="M34.0148 21.1369C33.19 20.7698 32.2347 21.1666 31.8812 22.0231L22.1318 45.6474C21.7783 46.5039 22.1604 47.4961 22.9852 47.8631C23.8103 48.2303 24.7655 47.8332 25.1188 46.9769L34.8682 23.3526C35.2217 22.4959 34.8396 21.5039 34.0148 21.1369Z" fill="black"/>
<path d="M19.6243 26.638C19.0327 25.9049 17.9537 25.7861 17.2147 26.3726L8.64301 33.1725C7.78595 33.8522 7.78538 35.1472 8.64301 35.8275L17.2147 42.6274C17.954 43.214 19.033 43.095 19.6243 42.362C20.2157 41.6288 20.0959 40.559 19.3565 39.9726L12.4582 34.5L19.3565 29.0275C20.0959 28.441 20.2157 27.3713 19.6243 26.638V26.638Z" fill="#283474"/>
<path d="M47.357 33.1726L38.7853 26.3727C38.046 25.786 36.9671 25.9049 36.3757 26.6381C35.7843 27.3712 35.9041 28.4411 36.6435 29.0275L43.5418 34.5001L36.6435 39.9726C35.9041 40.5591 35.7843 41.6288 36.3757 42.362C36.968 43.0959 38.047 43.2133 38.7853 42.6274L47.357 35.8274C48.2141 35.1478 48.2146 33.8528 47.357 33.1726Z" fill="#283474"/>
<path d="M8.5 10C9.32843 10 10 9.32843 10 8.5C10 7.67157 9.32843 7 8.5 7C7.67157 7 7 7.67157 7 8.5C7 9.32843 7.67157 10 8.5 10Z" fill="#283474"/>
<path d="M14.5 10C15.3284 10 16 9.32843 16 8.5C16 7.67157 15.3284 7 14.5 7C13.6716 7 13 7.67157 13 8.5C13 9.32843 13.6716 10 14.5 10Z" fill="#283474"/>
<path d="M20.5 10C21.3284 10 22 9.32843 22 8.5C22 7.67157 21.3284 7 20.5 7C19.6716 7 19 7.67157 19 8.5C19 9.32843 19.6716 10 20.5 10Z" fill="#283474"/>
<path d="M37.75 10H48.25C49.2165 10 50 9.3284 50 8.5C50 7.6716 49.2165 7 48.25 7H37.75C36.7835 7 36 7.6716 36 8.5C36 9.3284 36.7835 10 37.75 10Z" fill="black"/>
</svg>
