<svg width="687" height="381" viewBox="0 0 687 381" fill="none" xmlns="http://www.w3.org/2000/svg">
<path d="M382.867 295.32C403.173 307.068 403.173 326.09 382.867 337.837C362.522 349.546 329.574 349.546 309.229 337.837C288.924 326.09 288.924 307.068 309.229 295.32C329.574 283.611 362.522 283.611 382.867 295.32Z" fill="#E8E9EB" fill-opacity="0.2"/>
<path d="M511.424 332.896L552.695 309.104C553.657 308.56 553.657 307.64 552.695 307.096L450.71 248.013C449.748 247.427 448.201 247.427 447.239 247.971L405.968 271.763C405.007 272.349 405.007 273.227 405.968 273.77L507.954 332.896C508.915 333.439 510.462 333.439 511.424 332.896Z" fill="#E8E9EB" fill-opacity="0.2"/>
<path d="M502.687 309.898L506.241 327.46L509.67 329.467L513.098 327.502L516.694 309.898L509.67 305.842L502.687 309.898Z" fill="#5E2FF0"/>
<path opacity="0.1" d="M502.687 309.898L506.241 327.46L509.67 329.467L513.098 327.502L516.694 309.898L509.67 305.842L502.687 309.898Z" fill="black"/>
<path d="M509.67 329.467V313.912L502.687 309.898L506.241 327.46L509.67 329.467Z" fill="#C0ACFF"/>
<path opacity="0.1" d="M502.687 309.898L504.986 321.229L509.67 323.947L514.353 321.271L516.694 309.898L509.67 305.842L502.687 309.898Z" fill="black"/>
<path d="M533.42 292.127L536.974 309.731L540.403 311.696L543.832 309.731L547.428 292.127L540.403 288.113L533.42 292.127Z" fill="#E0E0E0"/>
<path opacity="0.1" d="M533.42 292.127L536.974 309.731L540.403 311.696L543.832 309.731L547.428 292.127L540.403 288.113L533.42 292.127Z" fill="black"/>
<path d="M540.403 311.696V296.183L533.42 292.127L536.974 309.731L540.403 311.696Z" fill="#552AD8"/>
<path opacity="0.1" d="M533.42 292.127L535.72 303.5L540.403 306.218L545.086 303.5L547.428 292.127L540.403 288.113L533.42 292.127Z" fill="black"/>
<path opacity="0.1" d="M411.781 257.378L415.335 274.982L418.764 276.948L422.193 274.982L425.747 257.378L418.764 253.364L411.781 257.378Z" fill="#5E2FF0"/>
<path d="M418.764 276.948V261.434L411.781 257.378L415.335 274.982L418.764 276.948Z" fill="#5E2FF0"/>
<path opacity="0.1" d="M411.781 257.378L414.081 268.752L418.764 271.47L423.447 268.752L425.747 257.378L418.764 253.364L411.781 257.378Z" fill="#5E2FF0"/>
<path d="M509.67 321.105L547.763 299.11V216.694L509.67 238.689V321.105Z" fill="#E0CFFF"/>
<path d="M509.671 238.688L409.818 180.984L409.776 263.442L509.671 321.104V238.688Z" fill="#A175F2"/>
<path d="M409.818 180.985L509.671 238.689L547.764 216.694L447.869 159.032L409.818 180.985Z" fill="#EEE6FF"/>
<path d="M504.233 279.5L415.253 228.11V258.383L414.249 258.969L503.23 310.359L504.233 309.773V279.5Z" fill="#5E2FF0"/>
<path d="M503.23 280.085L414.249 228.695V258.968L503.23 310.358V280.085Z" fill="#EEE5FF"/>
<path d="M460.454 261.101L453.053 256.836C452.091 256.293 451.297 256.544 451.297 257.38C451.297 258.258 452.091 259.429 453.053 259.972L460.454 264.237C461.416 264.823 462.21 264.53 462.21 263.694C462.21 262.816 461.416 261.645 460.454 261.101Z" fill="#5E2FF0"/>
<path d="M504.233 242.995L415.253 191.605V221.837L414.249 222.423L503.23 273.812L504.233 273.227V242.995Z" fill="#5E2FF0"/>
<path d="M503.23 243.58L414.249 192.19V222.422L503.23 273.812V243.58Z" fill="#EEE5FF"/>
<path d="M460.454 224.555L453.053 220.29C452.091 219.747 451.297 219.998 451.297 220.876C451.297 221.754 452.091 222.883 453.053 223.426L460.454 227.733C461.416 228.277 462.21 228.026 462.21 227.148C462.21 226.27 461.416 225.141 460.454 224.555Z" fill="#5E2FF0"/>
<path d="M450.753 183.493C446.111 186.127 446.111 190.476 450.753 193.11C455.352 195.786 462.837 195.786 467.478 193.11C472.078 190.476 472.078 186.127 467.478 183.493C462.837 180.817 455.352 180.817 450.753 183.493Z" fill="#E4DBFF"/>
<path d="M466.476 188.888C470.49 184.79 472.832 174.545 468.901 171.284H448.956C445.025 174.545 447.409 184.79 451.423 188.888C451.451 188.943 451.493 188.985 451.548 189.013C451.576 189.069 451.618 189.111 451.674 189.138C451.785 189.25 451.911 189.361 452.05 189.473C452.078 189.501 452.106 189.529 452.134 189.557C452.217 189.612 452.315 189.682 452.426 189.766C452.594 189.905 452.775 190.017 452.97 190.1C456.273 192.024 461.626 192.024 464.929 190.1C465.096 190.017 465.277 189.905 465.473 189.766C465.556 189.71 465.64 189.64 465.723 189.557C465.779 189.529 465.821 189.501 465.849 189.473C465.988 189.361 466.114 189.25 466.225 189.138C466.253 189.083 466.295 189.041 466.351 189.013C466.406 188.957 466.448 188.915 466.476 188.888Z" fill="#D3BBFE"/>
<path d="M450.712 169.987C446.155 172.622 446.155 176.887 450.712 179.521C455.27 182.155 462.629 182.155 467.187 179.521C471.745 176.887 471.745 172.622 467.187 169.987C462.629 167.353 455.27 167.353 450.712 169.987Z" fill="#E0CFFF"/>
<path d="M453.932 171.869C451.172 173.458 451.172 176.05 453.932 177.639C456.692 179.228 461.208 179.228 463.968 177.639C466.727 176.05 466.727 173.458 463.968 171.869C461.208 170.238 456.692 170.238 453.932 171.869Z" fill="#5E2FF0"/>
<path d="M463.967 174.587C461.207 172.998 456.691 172.998 453.931 174.587C453.137 175.047 452.593 175.548 452.259 176.134C452.593 176.677 453.137 177.179 453.931 177.639C456.691 179.228 461.207 179.228 463.967 177.639C464.719 177.179 465.263 176.677 465.598 176.134C465.263 175.548 464.719 175.047 463.967 174.587Z" fill="#CDB2FF"/>
<path d="M454.516 176.134C454.516 176.134 452.593 174.252 450.92 171.283C449.248 168.314 448.913 164.384 449.791 163.882C450.67 163.38 454.182 167.353 454.182 167.353C454.182 167.353 453.68 164.927 453.806 162.293C453.973 159.659 454.6 157.234 455.353 156.774C456.105 156.272 457.82 159.617 458.531 162.042C459.241 164.426 459.701 166.433 459.701 166.433C459.701 166.433 460.161 163.171 460.998 160.871C461.876 158.363 462.67 157.777 463.297 158.028C463.883 158.279 464.301 159.45 464.51 162.795C464.636 165.137 464.343 167.562 464.343 167.562C464.343 167.562 465.597 166.224 466.977 164.886C468.482 163.422 469.11 163.213 469.57 163.506C469.988 163.757 470.113 166.056 467.772 170.28C465.681 174.043 463.339 176.134 463.339 176.134C463.339 176.134 460.078 178.224 454.516 176.134Z" fill="#A189F7"/>
<path d="M512.388 222.004L510.924 222.715L483.452 206.868L484.916 206.157L512.388 222.004Z" fill="#7957F4"/>
<path d="M484.915 206.156L511.049 221.251L514.854 182.155L488.72 167.06L484.915 206.156Z" fill="#E9DDFF"/>
<path fill-rule="evenodd" clip-rule="evenodd" d="M485.125 162.084L517.656 180.859L513.182 226.938L480.65 208.163L485.125 162.084ZM483.452 206.909L510.924 222.757L514.855 182.155L487.382 166.307L483.452 206.909Z" fill="#A175F2"/>
<path d="M483.452 206.868L484.916 206.157L488.721 167.06L487.383 166.308L483.452 206.868Z" fill="#7957F4"/>
<path d="M485.124 162.084L486.629 161.374L519.161 180.148L517.656 180.859L485.124 162.084Z" fill="#DECCFE"/>
<path d="M519.162 180.148L517.657 180.859L513.183 226.939L514.688 226.27L519.162 180.148Z" fill="#E9DDFF"/>
<path d="M486.085 205.404L510.17 219.328L510.797 212.722L506.323 193.403L502.058 200.01L502.936 205.571L495.828 185.041L486.712 198.839L486.085 205.404Z" fill="#5E2FF0"/>
<path d="M506.699 185.249C507.661 185.835 508.372 187.131 508.288 188.218C508.163 189.305 507.285 189.724 506.323 189.138C505.319 188.595 504.609 187.257 504.734 186.169C504.818 185.082 505.696 184.664 506.699 185.249Z" fill="#5E2FF0"/>
<path d="M445.608 122.235L541.907 177.849V95.976L445.608 40.4048V122.235Z" fill="#E9DDFF"/>
<path d="M543.789 178.936L541.908 180.065L443.728 123.364L445.609 122.235L543.789 178.936Z" fill="#7957F4"/>
<path fill-rule="evenodd" clip-rule="evenodd" d="M440.131 33.1289L545.461 93.927V186.253L440.131 125.413V33.1289ZM443.727 123.406L541.907 180.106V96.0177L443.727 39.3174V123.406Z" fill="#D3BBFE"/>
<path d="M443.728 123.364L445.609 122.236V40.4049L443.728 39.2759V123.364Z" fill="#A189F7"/>
<path d="M440.131 33.129L442.054 32L547.385 92.798L545.461 93.927L440.131 33.129Z" fill="#E9DDFF"/>
<path d="M547.384 92.7979L545.461 93.9268V186.253L547.384 185.124V92.7979Z" fill="#E9DDFF"/>
<path d="M540.318 116.632V118.848L443.727 63.026L445.608 61.897L540.318 116.632Z" fill="#7957F4"/>
<path d="M495.827 69.3816L493.945 68.2944V152.383L495.827 151.296V69.3816Z" fill="#A189F7"/>
<path d="M490.35 66.2456L493.946 68.2945L493.904 152.383L490.35 150.334V66.2456Z" fill="#A175F2"/>
<path d="M443.727 63.0259V67.1237L541.948 124.033V119.935L443.727 63.0259Z" fill="#A189F7"/>
<path d="M493.945 92.0868L495.827 90.916L541.906 117.552V119.935L493.945 92.0868Z" fill="#7957F4"/>
<path d="M550.95 299.004C541.668 304.44 541.668 313.221 550.95 318.657C560.275 324.093 575.328 324.093 584.611 318.657C593.894 313.221 593.894 304.44 584.611 299.004C575.328 293.568 560.275 293.568 550.95 299.004Z" fill="#E8E9EB" fill-opacity="0.2"/>
<path d="M553.922 311.59C546.605 304.022 542.298 273.288 549.448 267.309H585.743C592.893 273.288 588.586 304.022 581.269 311.59C581.213 311.646 581.157 311.715 581.101 311.799C581.018 311.883 580.934 311.966 580.851 312.05C580.628 312.245 580.405 312.44 580.181 312.635C580.126 312.691 580.056 312.733 579.972 312.761C579.805 312.9 579.624 313.04 579.429 313.179C579.122 313.43 578.816 313.639 578.509 313.806C572.488 317.319 562.703 317.319 556.682 313.806C556.375 313.611 556.069 313.402 555.762 313.179C555.567 313.067 555.386 312.942 555.218 312.803C555.163 312.747 555.093 312.691 555.009 312.635C554.786 312.44 554.577 312.245 554.382 312.05C554.271 311.966 554.173 311.869 554.089 311.757C554.034 311.701 553.978 311.646 553.922 311.59Z" fill="#D3BBFE"/>
<path d="M582.606 264.925C590.885 269.734 590.885 277.595 582.606 282.446C574.327 287.254 560.863 287.254 552.583 282.446C544.304 277.595 544.304 269.734 552.583 264.925C560.863 260.075 574.327 260.075 582.606 264.925Z" fill="#E0CFFF"/>
<path d="M578.633 267.225C584.696 270.779 584.696 276.55 578.633 280.104C572.528 283.658 562.66 283.658 556.555 280.104C550.492 276.55 550.492 270.779 556.555 267.225C562.66 263.671 572.528 263.671 578.633 267.225Z" fill="#5E2FF0"/>
<path d="M556.556 273.33C562.661 269.776 572.529 269.776 578.634 273.33C580.306 274.333 581.519 275.504 582.272 276.717C581.519 277.971 580.306 279.1 578.634 280.104C572.529 283.658 562.661 283.658 556.556 280.104C554.883 279.1 553.671 277.971 552.918 276.717C553.671 275.504 554.883 274.333 556.556 273.33Z" fill="#CDB2FF"/>
<path d="M583.901 210.65L570.102 221.563L583.441 215.417C583.441 215.417 583.524 222.107 581.099 228.045C581.099 228.045 574.534 231.975 570.729 235.404L580.974 231.348C580.974 231.348 581.643 238.122 578.841 248.366C578.13 251.084 575.078 256.228 573.196 260.033C572.318 261.789 571.356 263.503 570.227 265.176C570.144 265.287 570.074 265.399 570.018 265.51C567.677 264.172 565.252 262.876 562.743 261.622C561.07 258.151 558.938 249.621 558.185 242.638C555.216 215.877 575.454 200.531 591.72 195.388C591.72 195.388 586.117 202.413 583.901 210.65Z" fill="#D7CDFC"/>
<path d="M572.36 211.737C569.559 214.581 567.886 218.302 566.632 222.024C565.377 225.787 564.583 229.676 564.165 233.606C563.37 241.467 564.248 249.496 567.092 256.855C567.175 257.064 567.092 257.273 566.883 257.357C566.673 257.44 566.464 257.315 566.381 257.148C563.621 249.621 562.827 241.467 563.788 233.564C564.29 229.634 565.126 225.703 566.464 221.982C567.761 218.26 569.475 214.539 572.36 211.737Z" fill="white"/>
<path d="M524.19 224.657C524.19 224.657 524.204 224.671 524.232 224.699C524.567 225.117 530.212 231.849 538.616 244.937L552.624 247.195L542.296 248.993L547.857 257.774L561.614 260.618L550.868 262.374C550.868 262.374 553.837 272.869 561.531 277.218C565.796 279.643 567.886 280.02 569.141 278.807C570.019 277.929 570.228 272.911 570.981 268.437C571.733 263.921 571.775 256.645 567.552 247.823C566.423 245.481 564.918 243.307 563.161 241.341C552.959 230.01 533.724 224.532 524.19 224.657Z" fill="#A189F7"/>
<path d="M538.826 229.257C546.06 232.435 552.917 236.784 558.311 242.68C560.988 245.607 563.287 248.952 564.96 252.59C566.591 256.227 567.636 260.116 568.012 264.089C568.012 264.116 567.998 264.13 567.971 264.13C567.943 264.13 567.929 264.116 567.929 264.089C567.134 260.2 566.005 256.437 564.249 252.924C562.577 249.37 560.402 246.067 557.852 243.098C552.625 237.16 545.934 232.686 538.826 229.299C538.798 229.299 538.784 229.285 538.784 229.257C538.812 229.229 538.826 229.229 538.826 229.257Z" fill="white"/>
<path d="M607.568 230.428C606.522 230.428 605.31 230.47 604.055 230.595C600.166 231.014 595.4 232.101 590.549 233.899C588.96 234.484 587.329 235.153 585.74 235.906C584.96 236.296 584.179 236.7 583.399 237.119C579.51 239.209 575.914 241.802 573.071 244.896C571.691 246.443 570.478 248.116 569.517 249.914C569.391 250.123 569.266 250.374 569.14 250.625C568.861 251.238 568.597 251.837 568.346 252.423C565.377 259.155 565.126 263.838 565.293 268.981C565.419 272.995 566.799 277.595 567.593 278.347C567.705 278.459 567.816 278.543 567.928 278.598C569.098 279.351 570.896 278.933 574.283 277.009C581.141 273.204 583.817 263.545 583.817 263.545L574.325 261.914L586.493 259.489L591.427 251.795L582.354 250.123L594.689 248.241C602.174 236.742 607.233 230.805 607.526 230.47C607.554 230.442 607.568 230.428 607.568 230.428Z" fill="#A189F7"/>
<path d="M604.055 230.595C600.166 231.014 595.4 232.101 590.549 233.899C588.96 234.484 587.329 235.153 585.74 235.906C584.96 236.296 584.179 236.7 583.399 237.119C579.51 239.209 575.914 241.802 573.071 244.896C571.691 246.443 570.478 248.116 569.517 249.914C569.391 250.123 569.266 250.374 569.14 250.625C568.861 251.238 568.597 251.837 568.346 252.423C565.377 259.155 565.126 263.838 565.293 268.981C565.419 272.995 566.799 277.595 567.593 278.347C567.705 278.459 567.816 278.543 567.928 278.598C568.137 278.766 568.429 278.849 568.68 278.891C567.844 272.661 570.896 256.897 575.538 250.374C580.346 243.642 591.804 233.857 607.526 230.47V230.428C606.48 230.428 605.31 230.47 604.055 230.595Z" fill="#A189F7"/>
<path d="M568.639 278.891C568.304 274.292 568.68 269.65 569.558 265.134C570.437 260.618 571.816 256.144 574.116 252.088C576.458 247.991 579.803 244.687 583.357 241.76C586.995 238.875 590.967 236.45 595.191 234.652C595.218 234.624 595.246 234.624 595.274 234.652C595.274 234.68 595.26 234.694 595.232 234.694C591.218 236.91 587.33 239.419 583.859 242.346C582.061 243.809 580.388 245.356 578.841 247.029C577.252 248.66 575.789 250.416 574.66 252.381C572.36 256.312 570.896 260.744 569.935 265.218C568.973 269.692 568.513 274.292 568.722 278.891C568.722 278.919 568.708 278.933 568.68 278.933C568.652 278.933 568.639 278.919 568.639 278.891Z" fill="white"/>
<path d="M324.52 292.864C324.398 289.108 322.234 250.935 322.234 250.935L341.259 264.612C338.279 286.291 337.013 292.905 336.809 296.539C336.85 296.62 336.891 296.906 336.891 297.437C336.687 301.724 331.502 303.888 327.419 306.582C325.827 307.644 321.132 310.828 316.437 312.869C313.497 314.135 307.618 314.094 306.965 312.298C311.946 308.95 317.702 305.317 321.703 301.438C323.581 299.601 324.725 297.355 324.52 292.864Z" fill="#FFA8A7"/>
<path d="M301.169 316.666C300.965 316.666 300.515 319.238 301.699 320.382C303.128 321.729 307.293 323.974 312.968 323.403C318.602 322.872 321.745 321.198 324.073 319.361C326.4 317.524 329.625 314.952 332.197 314.462C334.606 314.013 337.219 313.033 337.995 312.298C338.77 311.604 338.811 308.297 338.811 308.297L301.169 316.666Z" fill="#263238"/>
<path d="M336.892 295.477C336.892 295.477 337.504 295.477 337.627 296.253C337.749 297.151 337.913 299.805 338.239 301.315C338.688 303.438 339.015 307.725 338.647 309.399C338.28 311.114 334.361 312.134 331.87 312.992C329.339 313.89 326.318 315.809 323.705 317.85C320.969 319.973 315.335 322.015 311.661 321.933C306.027 321.81 302.475 320.137 301.413 318.054C300.148 315.441 300.638 313.686 307.17 310.869C308.436 310.338 312.763 307.97 314.478 306.827C318.397 304.255 320.969 301.479 322.97 297.069C323.215 296.579 323.46 296.008 323.95 295.763C324.317 295.559 324.766 295.6 325.215 295.681C326.277 295.844 329.339 296.375 330.319 296.865C331.176 297.314 332.36 297.845 332.319 298.988C332.278 299.356 332.156 299.764 332.033 300.131C331.952 300.335 331.87 300.662 332.074 300.785C332.238 300.907 332.483 300.785 332.687 300.662C333.381 300.05 333.871 299.274 334.483 298.58C334.81 298.212 335.136 297.845 335.545 297.559C335.912 297.314 336.361 297.192 336.688 296.865C336.688 296.865 336.851 296.008 336.892 295.477Z" fill="#455A64"/>
<path d="M307.006 310.869C315.09 311.727 318.479 317.034 317.458 320.913C315.417 321.566 313.335 321.974 311.661 321.933C306.027 321.811 302.23 320.137 301.209 318.055C299.984 315.605 301.168 312.87 307.006 310.869Z" fill="#FAFAFA"/>
<path d="M318.029 312.053C318.111 312.053 318.192 312.026 318.274 311.971C318.437 311.808 318.478 311.563 318.356 311.4C317.253 309.93 314.069 307.97 311.129 308.174C310.925 308.215 310.762 308.419 310.762 308.623C310.762 308.828 310.966 308.991 311.17 308.991C313.946 308.787 316.845 310.746 317.702 311.89C317.784 311.971 317.906 312.053 318.029 312.053Z" fill="#F0F0F0"/>
<path d="M321.296 310.053C321.377 310.053 321.459 310.025 321.54 309.971C321.704 309.848 321.745 309.604 321.622 309.399C320.561 307.97 317.335 305.97 314.396 306.215C314.192 306.215 314.028 306.419 314.028 306.664C314.028 306.868 314.232 307.031 314.437 307.031C317.213 306.827 320.152 308.746 320.969 309.889C321.051 310.012 321.173 310.053 321.296 310.053Z" fill="#F0F0F0"/>
<path d="M324.522 307.521C324.604 307.549 324.685 307.521 324.767 307.44C324.93 307.317 324.971 307.072 324.849 306.909C323.787 305.439 320.562 303.48 317.622 303.684C317.418 303.725 317.255 303.888 317.255 304.133C317.296 304.337 317.459 304.5 317.704 304.5C320.439 304.296 323.379 306.215 324.236 307.399C324.277 307.481 324.4 307.521 324.522 307.521Z" fill="#F0F0F0"/>
<path d="M327.705 304.99C327.786 304.99 327.868 304.963 327.95 304.908C328.154 304.786 328.154 304.541 328.031 304.377C326.561 302.295 323.091 300.866 320.152 301.111C319.947 301.111 319.784 301.315 319.784 301.52C319.784 301.724 319.988 301.887 320.192 301.887C322.846 301.683 326.112 303.03 327.419 304.827C327.46 304.949 327.582 304.99 327.705 304.99Z" fill="#F0F0F0"/>
<path d="M358.979 262.693L379.025 259.345C379.31 271.225 378.453 287.066 378.045 298.008C377.963 300.131 378.902 314.298 378.208 318.666C377.147 325.158 368.41 324.586 367.756 320.708C367.103 316.829 366.817 300.376 366.695 298.661C366.45 291.516 362.612 279.432 359.999 266.653C359.877 266.04 359.101 263.305 358.979 262.693Z" fill="#FFA8A7"/>
<path d="M364.572 323.484C364.572 327.321 365.103 329.894 366.45 332.18C367.838 334.507 370.696 335.364 373.636 334.874C376.616 334.425 380.495 332.874 381.515 329.649C382.577 326.423 382.577 324.178 382.128 320.585L364.572 323.484Z" fill="#263238"/>
<path d="M378.086 296.824C379.311 296.946 379.27 301.927 379.597 307.071C380.005 312.583 381.679 314.951 382.047 319.483C382.496 324.668 382.006 326.954 379.76 329.934C377.515 332.915 370.125 335.528 366.859 330.873C364.205 327.117 364.328 323.075 364.94 317.972C365.553 312.705 366.043 308.99 366.083 304.948C366.083 301.111 365.512 297.477 366.573 297.11C366.614 297.681 366.655 298.416 366.696 298.988C366.737 299.396 366.737 301.478 367.39 301.56C367.512 301.07 367.512 300.621 367.512 300.09C367.512 299.682 367.594 299.192 367.921 298.865C368.247 298.579 369.35 298.334 369.839 298.294C371.023 298.171 372.248 298.049 373.432 298.008C374.031 298.008 374.643 298.021 375.269 298.049C375.719 298.089 376.331 298.171 376.78 298.334C377.025 298.457 377.311 298.62 377.392 298.906C377.433 299.069 377.433 299.273 377.392 299.477C377.365 299.831 377.392 300.185 377.474 300.539C377.515 300.702 377.637 300.906 377.801 300.866C377.923 300.825 378.005 300.702 378.005 300.58C378.046 299.927 378.005 299.477 378.005 298.783C378.046 298.416 378.046 298.13 378.046 297.763C378.086 297.436 378.086 297.15 378.086 296.824Z" fill="#455A64"/>
<path d="M382.209 322.504C382.209 325.688 381.842 327.852 380.086 330.179C377.841 333.159 369.839 335.772 366.573 331.118C364.94 328.832 364.654 326.178 364.572 323.483C366.94 320.217 379.025 319.401 382.209 322.504Z" fill="#FAFAFA"/>
<path d="M368.043 318.095C368.098 318.095 368.152 318.081 368.207 318.054C368.247 318.054 373.31 316.298 378.658 317.727C378.903 317.768 379.148 317.687 379.189 317.442C379.271 317.237 379.148 317.033 378.903 316.952C373.228 315.482 368.084 317.278 367.88 317.319C367.635 317.401 367.512 317.646 367.635 317.85C367.676 318.013 367.88 318.095 368.043 318.095Z" fill="#F0F0F0"/>
<path d="M378.618 313.889C378.781 313.889 378.945 313.808 378.985 313.644C379.108 313.44 378.985 313.195 378.74 313.113C373.474 311.195 367.962 313.318 367.758 313.399C367.513 313.481 367.431 313.726 367.513 313.93C367.636 314.134 367.88 314.216 368.125 314.134C368.166 314.093 373.515 312.052 378.414 313.848C378.468 313.876 378.536 313.889 378.618 313.889Z" fill="#F0F0F0"/>
<path d="M378.536 310.256C378.7 310.256 378.863 310.174 378.945 310.011C379.026 309.806 378.904 309.602 378.7 309.521C372.902 307.275 367.676 309.643 367.472 309.725C367.227 309.847 367.146 310.092 367.268 310.296C367.391 310.46 367.676 310.541 367.881 310.46C367.921 310.419 372.943 308.173 378.332 310.215C378.414 310.242 378.482 310.256 378.536 310.256Z" fill="#F0F0F0"/>
<path d="M378.454 306.173C378.618 306.173 378.74 306.091 378.822 305.969C378.944 305.765 378.822 305.52 378.618 305.438C373.147 303.274 367.513 305.683 367.268 305.765C367.064 305.887 366.982 306.132 367.104 306.296C367.186 306.5 367.472 306.581 367.676 306.5C367.758 306.459 373.188 304.132 378.25 306.173C378.305 306.2 378.373 306.2 378.454 306.173Z" fill="#EBEBEB"/>
<path d="M372.003 170.465C373.269 193.328 376.086 235.339 376.086 235.339C376.372 237.993 378.78 249.751 379.025 259.345C379.434 274.737 378.821 285.434 378.821 285.434C378.821 285.434 370.329 288.577 364.205 286.128C364.205 286.128 356.366 255.14 354.325 245.137C351.875 233.175 346.119 209.741 346.119 209.741L341.995 241.3C341.995 241.3 343.302 252.568 341.995 261.836C341.138 268.164 338.77 284.74 338.77 284.74C338.77 284.74 330.605 287.352 323.95 285.229C323.95 285.229 321.296 244.035 320.888 238.197C320.479 232.318 319.173 202.433 320.602 165.647L372.003 170.465Z" fill="#283474"/>
<path d="M346.118 209.74L342.688 189.286C342.688 189.286 336.156 189.204 331.257 184.387C331.257 184.387 331.788 189.082 340.892 192.103L344.036 209.087L341.994 241.299L346.118 209.74Z" fill="#37474F"/>
<path d="M327.542 103.59C320.928 104.366 318.233 109.142 314.559 116.614C311.619 122.534 305.904 135.966 305.904 135.966C305.904 135.966 288.021 131.475 284.837 129.433C282.632 128.086 283.041 127.188 279.448 124.861C276.917 123.187 274.222 122.452 272.63 120.819C271.364 119.512 269.364 121.554 271.364 124.33C272.058 125.269 273.487 126.453 273.487 126.453C273.487 126.453 271.078 125.963 269.731 125.024C266.873 122.983 265.607 120.37 262.096 119.921C260.586 119.757 260.3 120.778 260.831 121.962C260.382 122.125 259.32 123.023 260.014 124.493C259.116 124.738 259.075 126.453 259.402 126.943C258.953 127.555 258.218 129.433 261.484 133.026C262.913 134.659 266.138 137.231 267.036 137.68C267.281 137.803 270.711 138.783 274.957 139.599C278.958 140.375 280.142 140.824 283.571 142.253C287.491 143.927 297.493 149.071 306.312 152.378C313.702 155.113 315.743 150.908 319.254 144.335C321.54 140.048 326.929 125.718 326.929 125.718C329.747 117.104 330.114 108.857 327.542 103.59Z" fill="#FFA8A7"/>
<path d="M271.078 132.005C275.447 130.413 280.264 132.332 281.693 135.843C281.693 133.802 280.55 132.046 278.509 131.026C276.712 130.168 273.364 130.413 271.078 132.005Z" fill="#F28F8F"/>
<path d="M326.97 103.59C320.764 104.855 319.376 106.284 314.845 115.389C310.435 124.371 305.577 135.476 305.577 135.476L294.023 132.74C294.023 132.74 294.676 134.904 293.329 139.599C292.022 144.253 289.246 145.682 289.246 145.682C289.246 145.682 298.146 150.214 305.209 152.786C312.272 155.358 313.824 154.134 316.069 150.867C318.315 147.601 328.317 124.452 328.317 124.452C328.317 124.452 332.278 110.49 326.97 103.59Z" fill="#455A64"/>
<path d="M294.635 132.863L289.94 131.475C289.94 131.475 290.634 134.455 289.654 137.885C288.266 142.662 285.857 144.131 285.857 144.131L290.553 146.499C290.553 146.499 295.778 140.498 294.635 132.863Z" fill="#37474F"/>
<path d="M323.295 119.554C324.357 111.919 327.827 101.426 339.667 100.937L352.486 101.916C356.243 102.896 370.246 107.265 370.246 107.265L371.104 137.762C371.104 137.762 372.043 157.318 371.757 170.097C360.815 176.997 335.666 179.528 320.723 168.178C320.315 157.645 322.275 127.107 323.295 119.554Z" fill="#F0F0F0"/>
<path d="M328.482 74.6843C326.522 70.275 328.4 64.3959 330.686 61.6197C333.993 57.6187 339.178 55.8631 346.976 56.3122C352.937 56.6388 358.816 59.0884 359.959 65.1717C364.777 66.5598 364.246 74.4394 363.103 77.9097C360.735 84.9319 355.999 91.0968 355.958 94.6895L328.482 74.6843Z" fill="#263238"/>
<path d="M328.563 91.2188C329.543 94.6075 331.503 97.0979 334.646 97.5878C336.524 97.8736 339.627 97.5878 339.627 97.5878V102.12C334.361 109.632 350.691 110.244 356.285 102.038L356.162 88.0752C356.162 88.0752 358.081 90.239 361.225 88.1568C363.389 86.7279 364.94 83.0534 363.348 79.7056C361.755 76.3987 358.612 77.7868 357.632 78.8075C356.693 79.7873 355.591 81.7062 354.774 81.4612C353.549 81.0529 353.141 80.2772 352.814 79.4607C352.243 78.0317 351.835 76.2354 351.753 73.0509C350.855 72.6018 350.242 72.1527 349.507 71.3361C348.16 69.8255 348.038 68.0291 347.956 66.3961C341.179 64.3139 332.523 65.2529 329.706 67.4167C328.114 70.3154 328.073 76.9294 327.828 80.7671C327.583 84.9315 327.787 88.4018 328.563 91.2188Z" fill="#FFA8A7"/>
<path d="M339.627 97.5474C343.097 97.3432 350.079 95.6693 351.916 93.7505C353.753 91.7908 354.529 87.8306 354.529 87.8306C354.529 87.8306 354.284 92.8114 352.855 95.0569C351.426 97.2616 347.792 98.2414 345.588 98.813C343.383 99.3846 339.668 99.7928 339.668 99.7928L339.627 97.5474Z" fill="#F28F8F"/>
<path d="M341.75 79.2571C341.75 80.0737 342.403 80.7677 343.179 80.7269C343.955 80.7269 344.608 80.0737 344.608 79.2571C344.608 78.4406 343.955 77.7465 343.179 77.7874C342.362 77.7874 341.75 78.4406 341.75 79.2571Z" fill="#263238"/>
<path d="M330.237 75.8684L333.707 75.256C333.584 74.2762 332.727 73.6229 331.747 73.7862C330.808 73.9495 330.114 74.8886 330.237 75.8684Z" fill="#263238"/>
<path d="M342.281 75.2564L345.67 76.3179C345.996 75.4197 345.507 74.4399 344.568 74.1133C343.669 73.8275 342.649 74.3582 342.281 75.2564Z" fill="#263238"/>
<path d="M330.769 79.0531C330.809 79.8696 331.422 80.5228 332.238 80.5228C333.014 80.5228 333.667 79.8696 333.667 79.0531C333.667 78.1957 333.014 77.5425 332.197 77.5425C331.422 77.5425 330.769 78.2365 330.769 79.0531Z" fill="#263238"/>
<path d="M338.075 76.0322L337.096 86.3206L331.584 84.6875L338.075 76.0322Z" fill="#F28F8F"/>
<path d="M342.403 87.4229C342.975 88.7293 342.321 90.2399 341.015 90.7707C339.708 91.3422 338.198 90.689 337.667 89.3825L342.403 87.4229Z" fill="#B16668"/>
<path d="M341.995 88.811C340.77 88.811 339.708 89.7092 339.545 90.934C340.035 91.0157 340.525 90.9749 341.015 90.7707C341.872 90.4441 342.403 89.7092 342.566 88.8519C342.376 88.8246 342.185 88.811 341.995 88.811Z" fill="#F28F8F"/>
<path d="M320.438 130.087C321.826 117.308 323.459 108.163 326.97 103.59C326.97 103.59 330.073 102.651 339.667 100.12V100.937C338.116 102.121 337.095 103.55 336.523 104.366C334.972 106.734 333.094 110.735 331.298 117.635C328.807 127.025 327.582 147.969 327.46 159.278C327.337 170.587 326.807 184.019 326.807 184.019C326.807 184.019 321.091 182.876 318.968 179.978C318.968 179.978 319.376 139.722 320.438 130.087Z" fill="#7957F4"/>
<path d="M351.549 116.41C352.773 111.266 355.019 103.141 356.162 100.487L370.492 105.672C374.412 107.469 377.514 110.408 376.535 117.022L372.37 146.132L373.391 179.365C367.267 188.878 347.874 188.02 347.874 188.02C347.874 188.02 347.548 178.303 348.119 152.215C348.446 137.599 349.997 122.983 351.549 116.41Z" fill="#7957F4"/>
<path d="M350.486 122.208C351.303 114.614 354.365 103.386 356.243 98.6096V96.4458C356.243 96.4458 362.898 99.9161 365.715 101.549C368.532 103.182 369.389 105.264 369.389 105.264L364 103.305C364 103.305 361.387 104.285 358.162 107.959C354.977 111.633 350.486 122.208 350.486 122.208Z" fill="#455A64"/>
<path d="M339.667 98.6094L339.626 102.12C339.626 102.12 336.197 105.387 334.033 110.49C331.828 115.593 330.318 122.207 330.318 122.207C330.318 122.207 328.725 115.838 330.603 108.775C331.787 104.243 333.094 102.692 334.033 101.712C336.605 98.936 339.626 97.5479 339.626 97.5479L339.667 98.6094Z" fill="#455A64"/>
<path d="M387.394 176.997C388.497 171.772 390.171 167.036 390.987 162.463C392.988 151.276 392.865 150.378 391.885 145.642C389.109 132.006 387.231 124.984 384.863 118.125C381.679 108.816 380.658 108.694 370.86 106.081C366.532 110.082 366.777 122.085 369.512 128.577C372.656 138.293 376.82 152.705 376.82 152.705C376.657 154.951 376.534 169.444 374.983 175.977C374.452 178.222 372.901 179.161 371.635 179.896C369.186 181.325 368.165 184.714 366.369 186.592C364.98 188.061 363.878 188.551 364.041 189.001C364.286 189.613 365.43 190.021 367.185 189.531C368.369 189.245 369.471 188.674 370.41 187.857C370.9 187.49 371.227 186.918 371.799 186.633C372.574 186.183 372.574 186.959 372.533 187.531C372.411 188.511 372.003 189.409 371.635 190.348C371.023 191.94 370.329 193.451 369.512 194.92C368.777 196.268 367.961 196.88 366.654 198.513C365.879 199.493 364.817 200.391 364.491 201.534C364.286 202.351 364.246 203.657 365.185 203.984C365.634 204.106 366.246 203.576 366.614 203.372C367.063 203.045 367.593 202.473 368.165 202.392C368.655 202.31 369.267 202.555 369.757 202.637C370.574 202.718 371.472 202.678 372.207 202.392C372.615 202.228 372.901 202.024 373.187 201.779C373.309 201.657 373.472 201.453 373.595 201.371C374.126 201.167 374.901 201.371 375.473 201.208C376.779 200.84 377.474 199.616 378.698 199.085C379.392 198.799 380.046 198.432 380.617 197.901C381.352 197.248 382.291 196.186 382.74 195.288C384.496 191.613 386.333 186.796 386.66 182.754C386.782 180.958 387.068 178.998 387.394 176.997Z" fill="#FFA8A7"/>
<path d="M370.329 105.672C376.29 107.224 379.433 107.51 381.965 110.776C384.537 114.042 387.721 126.331 389.15 131.679C390.62 137.068 392.539 146.295 392.825 148.01C393.151 149.684 393.07 151.725 392.171 157.073C391.151 163.238 389.069 173.404 389.069 173.404C389.069 173.404 387.558 173.853 382.536 172.833C377.515 171.812 375.432 171.118 375.432 171.118L376.453 152.705L368.002 126.657C368.002 126.657 363.715 111.347 370.329 105.672Z" fill="#455A64"/>
<path d="M375.555 167.729L375.31 172.71C375.31 172.71 376.943 174.833 381.883 175.772C386.21 176.589 388.823 174.793 388.823 174.793L389.844 169.934C389.844 169.934 386.904 171.322 382.413 170.587C377.351 169.771 375.555 167.729 375.555 167.729Z" fill="#37474F"/>
<path d="M95.5167 324.744L110.552 333.421C112.472 334.541 115.551 334.541 117.47 333.421L243.993 260.403C245.873 259.283 245.873 257.524 243.993 256.404L228.958 247.726C227.038 246.607 223.919 246.607 222 247.726L95.5167 320.745C93.5973 321.865 93.5973 323.664 95.5167 324.744Z" fill="#E8E9EB" fill-opacity="0.2"/>
<path d="M138.304 332.102L144.382 335.621C146.261 336.701 149.381 336.701 151.3 335.621L257.109 274.519C259.028 273.399 259.028 271.6 257.109 270.52L251.031 267.001C249.111 265.882 245.992 265.882 244.113 267.001L138.304 328.103C136.384 329.183 136.384 330.983 138.304 332.102Z" fill="#A175F2"/>
<path d="M74.043 137.359L76.0424 138.558L117.59 114.565L115.551 113.366L74.043 137.359Z" fill="#7957F4"/>
<path d="M115.552 113.365L76.0439 136.158V39.1463L115.552 16.353V113.365Z" fill="#E0CFFF"/>
<path fill-rule="evenodd" clip-rule="evenodd" d="M121.428 116.765L72.2422 145.156V36.9483L121.428 8.55664V116.765ZM117.589 15.1947L76.0411 39.1476V138.558L117.589 114.565V15.1947Z" fill="#CDB2FF"/>
<path d="M117.589 114.565L115.55 113.365V16.354L117.589 15.1943V114.565Z" fill="#7957F4"/>
<path d="M121.429 8.55663L119.35 7.39697L70.1641 35.7886L72.2435 36.9483L121.429 8.55663Z" fill="#D3BBFE"/>
<path d="M70.1641 35.7886L72.2435 36.9482V145.156L70.1641 143.997V35.7886Z" fill="#C7B5FF"/>
<path d="M112.591 111.006L79.001 130.401V42.7464L112.591 23.3521V111.006Z" fill="#F0F0F0"/>
<path d="M112.591 111.006L79.001 130.401V42.7464L112.591 23.3521V111.006Z" fill="#E0CFFF"/>
<path d="M79.001 97.8102C80.6005 97.9302 82.24 97.8902 83.7996 97.7703C89.3979 97.3704 94.9163 96.1707 100.195 94.2113C104.234 92.7317 108.312 90.7723 112.591 90.6523V111.006L108.072 113.606C106.233 112.006 104.154 110.766 101.834 110.167C95.3562 108.447 88.7181 111.726 82.0801 112.486C81.0404 112.606 80.0407 112.646 79.001 112.646V97.8102Z" fill="#A175F2"/>
<path d="M79.001 83.5341C86.5188 81.2948 94.2365 79.4553 99.5949 73.937C103.914 69.4983 105.953 63.3401 107.393 57.3018C108.792 51.2636 109.792 45.0255 112.511 39.4671C112.538 39.4138 112.564 39.3604 112.591 39.3071V74.2169C112.191 74.8167 111.751 75.4565 111.311 76.0563C106.393 82.7744 99.1151 88.3327 90.7975 88.7726C86.9187 88.9725 82.8798 88.0528 79.001 88.0928V83.5341Z" fill="#A175F2"/>
<path d="M79.001 61.1811C84.7993 56.1026 87.8784 47.945 86.4788 40.3472C86.3721 39.7874 86.2389 39.2276 86.0789 38.6677L98.9951 31.1899C98.9418 32.043 98.9018 32.8961 98.8751 33.7492C98.7552 38.6677 98.9151 43.6663 97.8354 48.5048C95.996 56.5425 90.4376 63.7004 83.1198 67.4993C81.7868 68.1924 80.4139 68.7656 79.001 69.2188V61.1811Z" fill="#A175F2"/>
<path d="M108.672 313.146C109.831 299.43 112.95 285.794 107.352 265.8C102.673 249.005 92.8364 234.809 79.6403 231.81C74.2019 230.571 70.0031 231.25 67.084 234.809C61.9255 241.128 66.884 249.445 72.7223 254.724C75.2815 257.043 96.9552 272.798 99.2745 300.79L99.7543 316.465C99.9143 317.265 100.834 317.665 101.594 317.265L108.672 313.146Z" fill="#7957F4"/>
<path opacity="0.3" d="M108.672 313.146C109.831 299.43 112.95 285.794 107.352 265.8C102.673 249.005 92.8364 234.809 79.6403 231.81C74.2019 230.571 70.0031 231.25 67.084 234.809C61.9255 241.128 66.884 249.445 72.7223 254.724C75.2815 257.043 96.9552 272.798 99.2745 300.79L99.7543 316.465C99.9143 317.265 100.834 317.665 101.594 317.265L108.672 313.146Z" fill="white"/>
<path d="M105.114 307.867C104.874 307.787 104.674 307.547 104.674 307.267C105.474 273.757 96.0364 252.203 74.4827 240.967C74.1628 240.847 74.1228 240.407 74.2828 240.127C74.4827 239.847 74.8026 239.807 75.1225 239.967C96.9561 250.804 106.713 273.357 105.913 307.267C105.874 307.627 105.594 307.867 105.274 307.867C105.22 307.867 105.167 307.867 105.114 307.867Z" fill="white"/>
<path d="M95.3562 320.825C95.1162 315.986 92.9969 307.868 85.0392 295.912C78.1612 285.555 66.0048 278.517 64.3653 272.479C62.3659 265.241 68.764 259.882 78.921 262.802C91.1574 266.361 104.633 286.195 104.873 315.346L95.3562 320.825Z" fill="#E8E9EB" fill-opacity="0.2"/>
<path opacity="0.7" d="M95.3562 320.825C95.1162 315.986 92.9969 307.868 85.0392 295.912C78.1612 285.555 66.0048 278.517 64.3653 272.479C62.3659 265.241 68.764 259.882 78.921 262.802C91.1574 266.361 104.633 286.195 104.873 315.346L95.3562 320.825Z" fill="#E8E9EB"/>
<path d="M100.156 314.906C99.9157 314.826 99.7557 314.626 99.7157 314.386C96.7566 288.714 81.4011 272.759 73.2835 269.719C72.9636 269.6 72.8037 269.24 72.9236 268.92C73.0436 268.6 73.4035 268.44 73.7234 268.56C82.6807 271.919 97.9163 288.034 100.915 314.226C100.955 314.586 100.715 314.866 100.396 314.906C100.316 314.933 100.236 314.933 100.156 314.906Z" fill="white"/>
<path d="M214.4 2.15831L109.391 62.8205C105.992 64.7799 103.913 68.2189 103.713 72.1777V316.186C103.713 320.025 106.112 324.504 109.031 326.183C111.95 327.903 117.029 327.703 120.388 325.783L225.037 265.361C228.356 263.442 231.035 258.763 231.035 254.924V11.7555C231.035 7.91662 228.676 3.43794 225.757 1.71844C222.838 0.0389365 217.759 0.238877 214.4 2.15831Z" fill="#5E2FF0"/>
<path opacity="0.3" d="M214.4 2.15831L109.391 62.8205C105.992 64.7799 103.913 68.2189 103.713 72.1777V316.186C103.713 320.025 106.112 324.504 109.031 326.183C111.95 327.903 117.029 327.703 120.388 325.783L225.037 265.361C228.356 263.442 231.035 258.763 231.035 254.924V11.7555C231.035 7.91662 228.676 3.43794 225.757 1.71844C222.838 0.0389365 217.759 0.238877 214.4 2.15831Z" fill="white"/>
<path d="M118.908 326.463C115.709 327.742 111.551 327.662 109.031 326.183C106.112 324.503 103.713 320.025 103.713 316.186V72.1775C103.753 70.698 104.113 69.0584 105.232 67.019L114.99 72.5374C113.19 74.8168 112.23 77.1761 112.19 79.5754V321.064C112.19 325.703 115.11 327.902 118.908 326.463Z" fill="#5E2FF0"/>
<path opacity="0.3" d="M118.908 326.463C115.709 327.742 111.551 327.662 109.031 326.183C106.112 324.503 103.713 320.025 103.713 316.186V72.1775C103.753 70.698 104.113 69.0584 105.232 67.019L114.99 72.5374C113.19 74.8168 112.23 77.1761 112.19 79.5754V321.064C112.19 325.703 115.11 327.902 118.908 326.463Z" fill="black"/>
<path d="M117.51 70.3782C114.551 72.0578 112.191 76.1765 112.191 79.5755V321.065C112.191 326.263 115.87 328.382 120.349 325.783L225.038 265.361C228.357 263.441 231.036 258.763 231.036 254.924V11.7555C231.036 7.91661 228.357 6.35707 225.038 8.2765L117.51 70.3782Z" fill="#7957F4"/>
<path d="M122.948 85.2538C119.789 87.0933 117.229 91.532 117.229 95.1709V302.95C117.229 306.589 119.789 308.068 122.948 306.269L221.399 249.406C224.558 247.606 227.157 243.127 227.157 239.489V31.7096C227.157 28.0707 224.558 26.5911 221.399 28.3906L122.948 85.2538Z" fill="#5E2FF0"/>
<path opacity="0.5" d="M122.948 85.2538C119.789 87.0933 117.229 91.532 117.229 95.1709V302.95C117.229 306.589 119.789 308.068 122.948 306.269L221.399 249.406C224.558 247.606 227.157 243.127 227.157 239.489V31.7096C227.157 28.0707 224.558 26.5911 221.399 28.3906L122.948 85.2538Z" fill="black" fill-opacity="0.5"/>
<path d="M219.879 234.69V29.2705L122.948 85.254C119.789 87.0935 117.229 91.5322 117.229 95.1711V300.591L214.161 244.647C217.32 242.808 219.879 238.329 219.879 234.69Z" fill="#263238"/>
<path d="M163.974 51.4241L181.409 41.347C182.449 40.7472 183.289 41.1871 183.289 42.3067C183.289 43.4264 182.449 44.826 181.409 45.4258L163.974 55.5029C162.934 56.1027 162.095 55.6628 162.095 54.5431C162.095 53.4235 162.934 52.0239 163.974 51.4241Z" fill="black"/>
<path d="M193.925 34.1094C194.885 33.5495 195.685 33.9894 195.685 35.1091C195.685 36.2687 194.885 37.6283 193.925 38.1882C192.926 38.748 192.166 38.3081 192.166 37.1485C192.166 36.0288 192.926 34.6692 193.925 34.1094Z" fill="black"/>
<path d="M201.004 30.0303C201.963 29.4704 202.763 29.9103 202.763 31.03C202.763 32.1896 201.963 33.5492 201.004 34.1091C200.004 34.6689 199.244 34.229 199.244 33.0694C199.244 31.9497 200.004 30.5901 201.004 30.0303Z" fill="black"/>
<path d="M144.421 62.7007C145.38 62.1408 146.18 62.5807 146.18 63.7004C146.18 64.86 145.38 66.2197 144.421 66.7795C143.421 67.3393 142.621 66.8994 142.621 65.7398C142.621 64.6201 143.421 63.2605 144.421 62.7007Z" fill="black"/>
<path d="M151.499 58.6216C152.458 58.0617 153.258 58.5016 153.258 59.6213C153.258 60.7809 152.458 62.1405 151.499 62.7004C150.499 63.2602 149.699 62.8203 149.699 61.6607C149.699 60.541 150.499 59.1814 151.499 58.6216Z" fill="black"/>
<path d="M246.752 37.2688L143.263 96.9312C141.983 97.691 140.943 99.4905 140.943 100.97V319.946C140.943 321.425 141.983 323.225 143.263 323.984L144.702 324.784C146.022 325.544 148.101 325.544 149.381 324.784L252.91 265.002C254.19 264.282 255.23 262.443 255.23 260.963V42.1074C255.23 40.6278 254.19 38.8283 252.87 38.0685L251.431 37.2288C250.151 36.509 248.072 36.509 246.752 37.2688Z" fill="#A175F2"/>
<path d="M255.231 261.124C255.231 263.203 253.791 264.483 251.992 265.522L150.262 324.265C148.502 325.305 147.062 324.465 147.062 322.386V105.489C147.062 103.21 148.262 101.091 150.262 99.9309L251.992 41.1482C253.431 40.3485 255.231 41.3882 255.231 43.0277V261.124Z" fill="#E9DDFF"/>
<path fill-rule="evenodd" clip-rule="evenodd" d="M255.23 43.027V261.123C255.23 263.202 253.79 264.482 251.991 265.522L150.261 324.264C149.741 324.544 149.261 324.704 148.821 324.704C147.781 324.704 147.062 323.864 147.062 322.385V105.489C147.062 103.209 148.261 101.09 150.261 99.9303L251.991 41.1476C252.351 40.9477 252.71 40.8677 253.07 40.8677C254.19 40.8677 255.23 41.7874 255.23 43.027ZM252.431 41.9474L150.7 100.73C149.021 101.69 147.941 103.529 147.941 105.489V322.385C147.941 322.905 148.061 323.785 148.821 323.785C149.141 323.785 149.461 323.705 149.821 323.505L251.551 264.762C253.47 263.642 254.31 262.523 254.31 261.123V43.027C254.31 42.2673 253.67 41.7874 253.07 41.7874C252.857 41.7874 252.644 41.8407 252.431 41.9474Z" fill="#D3BBFE"/>
<path d="M255.23 42.1074V43.0271C255.23 41.3876 253.43 40.3479 251.991 41.1476L150.26 99.9304C149.261 100.49 148.461 101.33 147.901 102.29C147.901 102.316 147.888 102.343 147.861 102.37L141.583 98.7307C142.023 97.9709 142.583 97.3311 143.263 96.9312L246.752 37.2688C248.072 36.509 250.151 36.509 251.431 37.2288L252.87 38.0685C254.19 38.8283 255.23 40.6278 255.23 42.1074Z" fill="#D3BBFE"/>
<path fill-rule="evenodd" clip-rule="evenodd" d="M166.935 103.169C166.908 103.169 166.895 103.129 166.895 103.049V102.29L165.695 102.969C165.642 102.996 165.615 102.956 165.615 102.85V102.61C165.615 102.53 165.615 102.476 165.615 102.45C165.642 102.396 165.655 102.343 165.655 102.29L166.935 98.8907C166.935 98.8374 166.948 98.7974 166.975 98.7707C167.002 98.7441 167.028 98.7174 167.055 98.6907L167.215 98.5708C167.268 98.5441 167.308 98.5441 167.335 98.5708C167.361 98.5974 167.375 98.6507 167.375 98.7307V101.37L167.615 101.21C167.668 101.183 167.708 101.183 167.735 101.21C167.761 101.237 167.775 101.29 167.775 101.37V101.57C167.775 101.65 167.761 101.703 167.735 101.73C167.708 101.783 167.668 101.823 167.615 101.85L167.375 102.01V102.77C167.375 102.85 167.361 102.916 167.335 102.969C167.308 102.996 167.268 103.023 167.215 103.049L167.015 103.169C166.962 103.196 166.935 103.196 166.935 103.169ZM166.975 101.61V99.7304L166.095 102.09L166.975 101.61Z" fill="#455A64"/>
<path d="M168.335 101.93C168.095 101.663 167.975 101.156 167.975 100.41C167.975 99.6636 168.095 99.0104 168.335 98.4506C168.548 97.9174 168.868 97.5309 169.294 97.291C169.454 97.1843 169.614 97.131 169.774 97.131C169.907 97.1043 170.027 97.1177 170.134 97.171C170.161 97.171 170.174 97.1976 170.174 97.251C170.174 97.251 170.161 97.2776 170.134 97.3309L170.054 97.7308C170.027 97.7575 170.001 97.7842 169.974 97.8108C169.974 97.8108 169.961 97.8108 169.934 97.8108C169.774 97.7308 169.574 97.7575 169.334 97.8908C169.068 98.0507 168.854 98.3173 168.694 98.6905C168.534 99.0638 168.454 99.5436 168.454 100.13C168.454 100.717 168.521 101.103 168.654 101.29C168.814 101.476 169.028 101.49 169.294 101.33C169.401 101.276 169.507 101.21 169.614 101.13C169.694 101.05 169.761 100.957 169.814 100.85V99.6503L169.334 99.9302C169.281 99.9568 169.254 99.9568 169.254 99.9302C169.228 99.9035 169.214 99.8502 169.214 99.7702V99.6103C169.214 99.5303 169.228 99.4637 169.254 99.4103C169.254 99.357 169.281 99.317 169.334 99.2904L170.134 98.8505C170.187 98.8238 170.227 98.8238 170.254 98.8505C170.281 98.8772 170.294 98.9438 170.294 99.0504V100.77C170.294 100.85 170.281 100.903 170.254 100.93C170.254 100.983 170.241 101.023 170.214 101.05C170.001 101.45 169.694 101.756 169.294 101.97C168.868 102.21 168.548 102.196 168.335 101.93Z" fill="#455A64"/>
<path d="M178.213 95.9323C178.213 96.5322 177.893 97.172 177.533 97.3719C177.173 97.6118 176.854 97.2919 176.854 96.7321C176.854 96.1323 177.173 95.4925 177.533 95.2925C177.893 95.0526 178.213 95.3725 178.213 95.9323Z" fill="#455A64"/>
<path d="M177.535 93.5735C176.855 93.9734 176.256 94.8931 175.936 95.9328C175.896 96.1727 175.936 96.3727 176.016 96.4127C176.136 96.4926 176.335 96.3327 176.415 96.0528C176.615 95.333 177.055 94.6532 177.535 94.3733C178.015 94.0933 178.455 94.2933 178.655 94.7731C178.735 94.9731 178.935 94.8931 179.055 94.6932C179.135 94.4932 179.175 94.2533 179.135 94.1333C178.815 93.4135 178.215 93.1736 177.535 93.5735Z" fill="#455A64"/>
<path d="M177.536 91.893C176.536 92.4528 175.616 93.8124 175.096 95.3319C175.016 95.5719 175.056 95.8118 175.176 95.8518C175.296 95.9318 175.456 95.8118 175.536 95.5319C175.976 94.2923 176.696 93.1726 177.536 92.6927C178.375 92.2129 179.095 92.4928 179.535 93.2526C179.615 93.4125 179.775 93.3325 179.935 93.1326C180.015 92.9326 180.055 92.6927 179.975 92.5328C179.455 91.613 178.575 91.2931 177.536 91.893Z" fill="#455A64"/>
<path d="M195.328 84.0955C195.328 84.0688 195.328 84.0289 195.328 83.9755C195.328 83.9222 195.341 83.8689 195.368 83.8156L196.328 82.0561C196.354 82.0294 196.381 81.9895 196.408 81.9361C196.434 81.9095 196.461 81.8828 196.488 81.8562L196.848 81.6562C196.874 81.6296 196.901 81.6296 196.928 81.6562C196.954 81.6829 196.968 81.7229 196.968 81.7762V86.2549C196.968 86.3082 196.954 86.3615 196.928 86.4148C196.901 86.4681 196.874 86.4948 196.848 86.4948L196.488 86.7347C196.461 86.7347 196.434 86.7347 196.408 86.7347C196.381 86.7081 196.368 86.6681 196.368 86.6148V83.1758L195.728 84.2954C195.701 84.3488 195.675 84.3888 195.648 84.4154C195.621 84.4154 195.595 84.4021 195.568 84.3754L195.328 84.0955Z" fill="#455A64"/>
<path d="M197.607 82.7762C197.607 82.7495 197.607 82.7095 197.607 82.6562C197.607 82.6029 197.621 82.5496 197.647 82.4963L198.607 80.7368C198.634 80.7101 198.66 80.6701 198.687 80.6168C198.714 80.5901 198.74 80.5635 198.767 80.5368L199.127 80.3369C199.154 80.3102 199.18 80.3102 199.207 80.3369C199.234 80.3635 199.247 80.4035 199.247 80.4569V84.9355C199.247 84.9889 199.234 85.0422 199.207 85.0955C199.18 85.1488 199.154 85.1755 199.127 85.1755L198.767 85.4154C198.74 85.4154 198.714 85.4154 198.687 85.4154C198.66 85.3887 198.647 85.3487 198.647 85.2954V81.8564L198.007 83.0161C197.981 83.0428 197.954 83.0694 197.927 83.0961C197.901 83.0961 197.874 83.0827 197.847 83.0561L197.607 82.7762Z" fill="#455A64"/>
<path d="M200.606 80.8569C200.659 80.8302 200.686 80.8302 200.686 80.8569C200.712 80.8836 200.726 80.9236 200.726 80.9769V81.6567C200.726 81.71 200.712 81.7633 200.686 81.8166C200.686 81.8699 200.659 81.8966 200.606 81.8966L200.206 82.1365C200.179 82.1632 200.153 82.1632 200.126 82.1365C200.099 82.1099 200.086 82.0699 200.086 82.0166V81.3368C200.086 81.2834 200.099 81.2435 200.126 81.2168C200.153 81.1635 200.179 81.1235 200.206 81.0968L200.606 80.8569ZM200.606 83.2962C200.632 83.2695 200.659 83.2695 200.686 83.2962C200.712 83.3228 200.726 83.3628 200.726 83.4162V84.096C200.726 84.1493 200.712 84.1893 200.686 84.2159C200.659 84.2692 200.632 84.3092 200.606 84.3359L200.166 84.5758C200.139 84.6025 200.113 84.6025 200.086 84.5758C200.059 84.5492 200.046 84.5092 200.046 84.4559V83.7761C200.046 83.7227 200.059 83.6694 200.086 83.6161C200.113 83.5628 200.139 83.5361 200.166 83.5361L200.606 83.2962Z" fill="#455A64"/>
<path fill-rule="evenodd" clip-rule="evenodd" d="M203.046 82.9359C202.992 82.9626 202.952 82.9626 202.926 82.9359C202.926 82.9093 202.926 82.8693 202.926 82.816V81.9762L201.526 82.776C201.473 82.8026 201.433 82.8026 201.406 82.776C201.38 82.7493 201.366 82.7227 201.366 82.696V82.1762C201.393 82.1228 201.406 82.0695 201.406 82.0162C201.433 81.9362 201.46 81.8696 201.486 81.8163L202.846 78.3373C202.926 78.204 202.992 78.1107 203.046 78.0574L203.406 77.8574C203.432 77.8574 203.459 77.8707 203.486 77.8974C203.512 77.8974 203.526 77.9241 203.526 77.9774V80.7766L203.885 80.5366C203.939 80.51 203.979 80.51 204.005 80.5366C204.005 80.5633 204.005 80.6033 204.005 80.6566V81.1365C204.005 81.1898 204.005 81.2431 204.005 81.2964C203.979 81.3497 203.939 81.3897 203.885 81.4164L203.526 81.6563V82.4961C203.526 82.5227 203.512 82.5627 203.486 82.616C203.459 82.6693 203.432 82.7093 203.406 82.736L203.046 82.9359ZM202.926 81.0965V79.6169L202.126 81.5363L202.926 81.0965Z" fill="#455A64"/>
<path d="M204.846 77.2172C204.846 77.1639 204.86 77.1105 204.886 77.0572C204.913 77.0306 204.94 77.0039 204.966 76.9772L206.646 75.9775C206.699 75.9775 206.726 75.9775 206.726 75.9775C206.752 76.0042 206.766 76.0442 206.766 76.0975V76.6173C206.766 76.644 206.752 76.684 206.726 76.7373C206.726 76.7906 206.699 76.8306 206.646 76.8573L205.406 77.5771L205.326 78.4968C205.406 78.4168 205.486 78.3502 205.566 78.2969C205.646 78.2169 205.713 78.1636 205.766 78.1369C205.953 78.0569 206.113 78.0036 206.246 77.977C206.379 77.977 206.499 78.0036 206.606 78.0569C206.712 78.1369 206.806 78.2702 206.886 78.4568C206.939 78.6168 206.966 78.8167 206.966 79.0566C206.966 79.3499 206.939 79.6298 206.886 79.8964C206.806 80.1363 206.712 80.3496 206.606 80.5362C206.499 80.7495 206.379 80.9228 206.246 81.056C206.086 81.216 205.926 81.336 205.766 81.4159C205.579 81.5492 205.406 81.6159 205.246 81.6159C205.086 81.6425 204.966 81.6159 204.886 81.5359C204.78 81.4559 204.7 81.3493 204.646 81.216C204.593 81.0827 204.566 80.9361 204.566 80.7761C204.566 80.7228 204.58 80.6695 204.606 80.6162C204.633 80.5629 204.66 80.5229 204.686 80.4962L205.046 80.2963C205.073 80.2696 205.1 80.2696 205.126 80.2963C205.153 80.2963 205.18 80.3229 205.206 80.3762C205.206 80.4829 205.233 80.5495 205.286 80.5762C205.313 80.6295 205.353 80.6562 205.406 80.6562C205.459 80.6828 205.513 80.6828 205.566 80.6562C205.646 80.6295 205.713 80.6028 205.766 80.5762C205.953 80.4696 206.099 80.3096 206.206 80.0963C206.313 79.9097 206.366 79.6831 206.366 79.4165C206.366 79.2033 206.313 79.0566 206.206 78.9767C206.099 78.8967 205.953 78.91 205.766 79.0166C205.686 79.07 205.619 79.1233 205.566 79.1766C205.513 79.2299 205.473 79.2832 205.446 79.3365C205.419 79.3632 205.379 79.4032 205.326 79.4565C205.3 79.4832 205.273 79.5098 205.246 79.5365L204.846 79.7764C204.793 79.8031 204.753 79.8031 204.726 79.7764C204.7 79.7498 204.686 79.7098 204.686 79.6565L204.846 77.2172Z" fill="#455A64"/>
<path d="M153.94 111.248V109.808L155.22 109.048V110.528L153.94 111.248Z" fill="#455A64"/>
<path d="M155.82 110.168V107.249L157.1 106.529V109.448L155.82 110.168Z" fill="#455A64"/>
<path d="M157.698 109.048V104.73L158.978 104.01V108.328L157.698 109.048Z" fill="#455A64"/>
<path d="M159.579 107.968V102.21L160.859 101.45V107.248L159.579 107.968Z" fill="#455A64"/>
<path fill-rule="evenodd" clip-rule="evenodd" d="M247.832 53.3044V55.9437C247.832 56.5435 247.592 57.1833 247.272 57.3433L242.594 60.0625C242.487 60.1158 242.394 60.1158 242.314 60.0625C242.261 60.0358 242.194 59.9825 242.114 59.9025C241.994 59.7026 241.914 59.4226 241.914 59.0627V56.4235C241.914 55.8237 242.154 55.1839 242.474 55.0239L247.153 52.3047C247.312 52.2248 247.472 52.2647 247.632 52.4647C247.752 52.6646 247.832 52.9445 247.832 53.3044ZM242.474 59.5826L247.153 56.9034C247.352 56.7834 247.552 56.2636 247.552 55.8237V53.1845C247.552 53.0245 247.552 52.8646 247.472 52.7846C247.472 52.7579 247.459 52.7446 247.432 52.7446C247.379 52.7179 247.326 52.7313 247.272 52.7846L242.594 55.4638C242.354 55.5838 242.194 56.0636 242.194 56.5435V59.1827C242.194 59.3427 242.194 59.5026 242.274 59.5426C242.327 59.6226 242.394 59.6359 242.474 59.5826Z" fill="#455A64"/>
<path d="M243.473 55.3833V58.5024L242.754 58.9423C242.674 58.9822 242.594 58.9423 242.594 58.8623V56.543C242.594 56.2231 242.754 55.8232 242.914 55.7432L243.473 55.3833Z" fill="#455A64"/>
<path d="M243.833 55.2235L244.713 54.7036V57.8227L243.833 58.3026V55.2235Z" fill="#455A64"/>
<path d="M245.033 54.5037L245.913 53.9839V57.143L245.033 57.6228V54.5037Z" fill="#455A64"/>
<path d="M247.152 53.5039V55.7432C247.152 56.1831 246.912 56.543 246.552 56.7429L246.272 56.9429V53.8238L246.952 53.4239C247.032 53.3839 247.152 53.4239 247.152 53.5039Z" fill="#455A64"/>
<path d="M247.993 53.224C248.113 53.144 248.233 53.5039 248.233 54.0637V54.5436C248.233 55.1034 248.113 55.5833 247.993 55.7033L247.753 55.8632V53.3439C247.753 53.3439 247.873 53.304 247.993 53.224Z" fill="#455A64"/>
<path d="M234.836 61.1819L239.355 57.1431L237.955 63.0613L237.315 60.5821L234.836 61.1819Z" fill="#455A64"/>
<path fill-rule="evenodd" clip-rule="evenodd" d="M199.127 95.6518C199.207 95.5985 199.26 95.5985 199.287 95.6518C199.34 95.7051 199.38 95.7851 199.407 95.8917L201.246 102.13C201.246 102.157 201.246 102.183 201.246 102.21C201.246 102.29 201.22 102.383 201.166 102.49C201.14 102.57 201.1 102.623 201.046 102.65L200.487 102.97C200.407 103.023 200.34 103.023 200.287 102.97C200.26 102.943 200.233 102.903 200.207 102.85L199.887 101.73L197.528 103.13L197.168 104.569C197.168 104.649 197.141 104.729 197.088 104.809C197.061 104.916 196.994 104.996 196.888 105.049L196.368 105.369C196.288 105.396 196.235 105.382 196.208 105.329C196.155 105.302 196.128 105.249 196.128 105.169C196.128 105.142 196.141 105.116 196.168 105.089L198.007 96.6915C198.034 96.5315 198.061 96.4116 198.087 96.3316C198.141 96.2516 198.207 96.185 198.287 96.1317L199.127 95.6518ZM199.527 100.49L198.727 97.6912L197.887 101.45L199.527 100.49Z" fill="#455A64"/>
<path d="M203.046 101.17C203.046 101.276 203.019 101.37 202.966 101.45C202.939 101.53 202.886 101.583 202.806 101.61L202.246 101.93C202.193 101.983 202.153 101.983 202.126 101.93C202.073 101.903 202.046 101.85 202.046 101.77V94.1718C202.046 94.0652 202.073 93.9719 202.126 93.8919C202.153 93.8119 202.193 93.7586 202.246 93.732L202.806 93.4121C202.886 93.3587 202.939 93.3587 202.966 93.4121C203.019 93.4387 203.046 93.492 203.046 93.572V101.17Z" fill="#455A64"/>
<path fill-rule="evenodd" clip-rule="evenodd" d="M204.045 97.8907C204.045 97.4642 204.098 97.0377 204.205 96.6111C204.285 96.1846 204.405 95.7714 204.565 95.3715C204.725 94.9983 204.911 94.665 205.125 94.3718C205.365 94.0785 205.618 93.8519 205.884 93.692C206.178 93.532 206.431 93.4654 206.644 93.492C206.884 93.5187 207.084 93.6253 207.244 93.812C207.404 93.9719 207.524 94.2118 207.604 94.5317C207.711 94.825 207.764 95.1716 207.764 95.5714V96.0913C207.764 96.1713 207.737 96.2646 207.684 96.3712C207.657 96.4512 207.617 96.5045 207.564 96.5311L205.045 97.9707C205.045 98.1573 205.071 98.304 205.125 98.4106C205.151 98.5172 205.205 98.5972 205.285 98.6505C205.365 98.6772 205.458 98.6905 205.564 98.6905C205.671 98.6639 205.778 98.6239 205.884 98.5706C206.044 98.4639 206.178 98.3573 206.284 98.2506C206.391 98.144 206.471 98.0374 206.524 97.9307C206.578 97.8508 206.631 97.7841 206.684 97.7308C206.711 97.6775 206.751 97.6375 206.804 97.6108L207.404 97.2509C207.457 97.2243 207.511 97.2243 207.564 97.2509C207.617 97.3043 207.631 97.3709 207.604 97.4509C207.604 97.5575 207.577 97.7175 207.524 97.9307C207.444 98.144 207.324 98.3706 207.164 98.6105C207.031 98.8771 206.857 99.1304 206.644 99.3703C206.431 99.6102 206.178 99.8102 205.884 99.9701C205.618 100.13 205.365 100.197 205.125 100.17C204.911 100.143 204.725 100.037 204.565 99.8502C204.405 99.6636 204.285 99.4103 204.205 99.0904C204.098 98.7438 204.045 98.3439 204.045 97.8907ZM205.884 95.0916C205.751 95.1715 205.631 95.2782 205.524 95.4115C205.418 95.5448 205.338 95.6781 205.285 95.8114C205.205 95.9447 205.151 96.0913 205.125 96.2512C205.071 96.4112 205.045 96.5445 205.045 96.6511L206.724 95.6914C206.724 95.5848 206.711 95.4648 206.684 95.3315C206.657 95.2249 206.604 95.1449 206.524 95.0916C206.471 95.0116 206.391 94.9716 206.284 94.9716C206.178 94.9716 206.044 95.0116 205.884 95.0916Z" fill="#455A64"/>
<path d="M209.644 91.8928C209.591 91.8662 209.538 91.8262 209.484 91.7729C209.431 91.7196 209.404 91.6262 209.404 91.4929V90.5332C209.404 90.4533 209.418 90.3866 209.444 90.3333C209.498 90.2533 209.538 90.2 209.564 90.1733C209.591 90.1733 209.604 90.1733 209.604 90.1733C209.631 90.1733 209.644 90.1733 209.644 90.1733L212.283 91.373C212.363 91.3996 212.417 91.4396 212.443 91.4929C212.497 91.5463 212.523 91.6262 212.523 91.7329V92.2127C212.523 92.346 212.497 92.4527 212.443 92.5326C212.417 92.6393 212.363 92.7459 212.283 92.8525L209.644 97.0913C209.644 97.118 209.631 97.1446 209.604 97.1713C209.604 97.1713 209.591 97.1713 209.564 97.1713C209.538 97.1979 209.498 97.1979 209.444 97.1713C209.418 97.1446 209.404 97.0913 209.404 97.0113V96.0516C209.404 95.9183 209.431 95.7983 209.484 95.6917C209.538 95.5851 209.591 95.4918 209.644 95.4118L211.364 92.6526L209.644 91.8928Z" fill="#455A64"/>
<path d="M156.699 121.484L158.378 122.284C158.432 122.31 158.485 122.35 158.538 122.404C158.591 122.457 158.618 122.537 158.618 122.644V123.643C158.618 123.697 158.605 123.763 158.578 123.843C158.552 123.897 158.512 123.937 158.458 123.963C158.458 123.963 158.445 123.963 158.418 123.963C158.418 123.99 158.405 123.99 158.378 123.963L155.739 122.764C155.686 122.737 155.632 122.697 155.579 122.644C155.552 122.617 155.539 122.537 155.539 122.404V121.924C155.539 121.791 155.552 121.684 155.579 121.604C155.632 121.524 155.686 121.431 155.739 121.324L158.378 117.045C158.405 117.019 158.418 117.005 158.418 117.005C158.445 116.979 158.458 116.965 158.458 116.965C158.512 116.939 158.552 116.939 158.578 116.965C158.605 116.992 158.618 117.045 158.618 117.125V118.125C158.618 118.232 158.591 118.338 158.538 118.445C158.485 118.578 158.432 118.685 158.378 118.765L156.699 121.484Z" fill="#5E2FF0"/>
<path d="M161.058 119.085C161.058 116.726 162.817 113.807 164.976 112.527L168.176 110.648C170.335 109.368 172.094 110.288 172.094 112.647C172.094 115.006 170.335 117.965 168.176 119.205L164.976 121.044C162.817 122.284 161.058 121.404 161.058 119.085Z" fill="#5E2FF0"/>
<path d="M147.062 306.67V309.269V322.386C147.062 324.465 148.502 325.305 150.262 324.265L251.992 265.522C253.791 264.483 255.231 263.203 255.231 261.124V244.249L147.062 306.67Z" fill="#7957F4"/>
<path opacity="0.7" d="M147.062 306.67V309.269V322.386C147.062 324.465 148.502 325.305 150.262 324.265L251.992 265.522C253.791 264.483 255.231 263.203 255.231 261.124V244.249L147.062 306.67Z" fill="white"/>
<path d="M161.059 306.99C160.259 307.47 159.579 308.87 159.579 310.109C159.579 311.389 160.259 312.029 161.059 311.549C161.898 311.069 162.538 309.67 162.538 308.43C162.538 307.15 161.898 306.511 161.059 306.99Z" fill="white"/>
<path fill-rule="evenodd" clip-rule="evenodd" d="M165.178 304.031V309.789C165.178 310.549 164.738 311.429 164.258 311.709L157.9 315.388C157.38 315.668 156.98 315.308 156.98 314.508V308.75C156.98 307.99 157.38 307.11 157.9 306.83L159.02 306.151V305.591C159.02 305.191 159.22 304.791 159.46 304.631L162.659 302.792C162.939 302.632 163.099 302.832 163.099 303.231V303.791L164.258 303.151C164.738 302.872 165.178 303.271 165.178 304.031ZM163.299 307.99C163.299 306.111 162.299 305.151 161.059 305.871C159.86 306.55 158.86 308.67 158.86 310.549C158.86 312.429 159.86 313.388 161.059 312.669C162.299 311.989 163.299 309.869 163.299 307.99Z" fill="white"/>
<path fill-rule="evenodd" clip-rule="evenodd" d="M180.172 297.432C180.172 300.232 178.173 303.631 175.774 305.03C173.334 306.43 171.375 305.31 171.375 302.471C171.375 299.672 173.334 296.273 175.774 294.873C178.173 293.474 180.172 294.633 180.172 297.432ZM178.333 298.672C178.213 298.432 177.853 298.352 177.613 298.472L176.334 299.232V297.392C176.334 297.073 176.054 296.833 175.774 296.833C175.454 296.833 175.214 297.073 175.214 297.392V299.872L173.374 300.911C173.094 301.071 173.015 301.431 173.174 301.671C173.294 301.871 173.454 301.951 173.654 301.951C173.761 301.951 173.854 301.924 173.934 301.871L175.214 301.151V302.791C175.214 303.071 175.454 303.351 175.774 303.351C176.054 303.351 176.334 303.071 176.334 302.791V300.512L178.133 299.432C178.413 299.312 178.493 298.952 178.333 298.672Z" fill="white"/>
<path d="M190.69 287.076L245.314 255.565C247.474 254.325 249.233 255.205 249.233 257.524C249.233 259.884 247.474 262.803 245.314 264.043L190.69 295.553C188.531 296.833 186.771 295.953 186.771 293.594C186.771 291.235 188.531 288.355 190.69 287.076Z" fill="#FAFAFA"/>
<path d="M245.553 256.685C246.993 255.886 248.113 256.565 248.113 258.165C248.113 259.804 246.993 261.804 245.553 262.604C244.154 263.443 242.994 262.764 242.994 261.124C242.994 259.485 244.154 257.525 245.553 256.685Z" fill="#5E2FF0"/>
<path d="M246.992 258.685L245.793 257.525C245.793 257.525 245.793 257.512 245.793 257.485C245.766 257.485 245.726 257.472 245.673 257.445C245.646 257.445 245.633 257.445 245.633 257.445C245.606 257.419 245.58 257.405 245.553 257.405C245.553 257.405 245.54 257.419 245.513 257.445C245.486 257.445 245.473 257.445 245.473 257.445C245.446 257.445 245.42 257.459 245.393 257.485C245.366 257.485 245.353 257.499 245.353 257.525C245.3 257.552 245.273 257.579 245.273 257.605C245.273 257.605 245.26 257.605 245.233 257.605L244.033 260.164C243.953 260.364 244.033 260.564 244.193 260.644C244.247 260.671 244.3 260.684 244.353 260.684C244.473 260.684 244.593 260.604 244.673 260.484L245.193 259.325V261.684C245.193 261.884 245.353 262.004 245.553 262.004C245.753 262.004 245.913 261.884 245.913 261.684V258.605L246.513 259.165C246.673 259.325 246.872 259.325 247.032 259.165C247.152 259.045 247.152 258.805 246.992 258.685Z" fill="#FAFAFA"/>
<path d="M232.476 105.848C232.476 101.969 229.757 100.41 226.398 102.329L173.054 133.12C169.695 135.04 166.975 139.758 166.975 143.637V156.953C166.975 157.113 166.989 157.26 167.015 157.393H166.975C166.975 161.312 166.536 167.39 163.017 168.99C163.017 168.99 165.336 169.669 167.855 167.07C169.415 165.391 170.254 162.991 170.654 161.272C171.374 161.232 172.214 160.952 173.054 160.472L226.398 129.681C229.757 127.762 232.476 123.043 232.476 119.164V105.848Z" fill="#CDB2FF"/>
<path d="M213.201 121.483C213.468 121.323 213.734 121.23 214.001 121.203C214.241 121.15 214.468 121.19 214.681 121.323C214.867 121.43 215.027 121.616 215.161 121.883C215.294 122.149 215.361 122.496 215.361 122.923C215.361 123.296 215.321 123.629 215.241 123.922C215.161 124.242 215.067 124.535 214.961 124.802C214.854 125.069 214.734 125.335 214.601 125.602C214.468 125.842 214.334 126.082 214.201 126.322C214.094 126.535 213.988 126.748 213.881 126.961C213.801 127.201 213.748 127.415 213.721 127.601C213.721 127.708 213.694 127.814 213.641 127.921C213.614 128.028 213.561 128.094 213.481 128.121L212.841 128.521C212.761 128.548 212.695 128.534 212.641 128.481C212.615 128.454 212.601 128.388 212.601 128.281C212.601 127.908 212.641 127.574 212.721 127.281C212.828 126.961 212.935 126.668 213.041 126.401C213.175 126.108 213.308 125.842 213.441 125.602C213.574 125.335 213.694 125.095 213.801 124.882C213.934 124.669 214.028 124.455 214.081 124.242C214.161 124.056 214.201 123.869 214.201 123.682C214.201 123.336 214.108 123.109 213.921 123.002C213.734 122.869 213.494 122.896 213.201 123.082C212.695 123.376 212.322 123.962 212.082 124.842C212.055 124.975 212.028 125.069 212.002 125.122C211.975 125.202 211.922 125.255 211.842 125.282L211.122 125.722C211.069 125.748 211.029 125.748 211.002 125.722C210.975 125.668 210.962 125.602 210.962 125.522C210.962 125.202 211.015 124.842 211.122 124.442C211.255 124.042 211.415 123.656 211.602 123.282C211.815 122.909 212.055 122.563 212.322 122.243C212.588 121.896 212.881 121.643 213.201 121.483ZM213.521 128.881C213.601 128.854 213.668 128.867 213.721 128.921C213.748 128.947 213.761 129.014 213.761 129.121V130.32C213.761 130.4 213.748 130.494 213.721 130.6C213.668 130.707 213.601 130.774 213.521 130.8L212.801 131.24C212.721 131.267 212.668 131.267 212.641 131.24C212.588 131.187 212.561 131.107 212.561 131V129.84C212.561 129.734 212.588 129.627 212.641 129.521C212.668 129.441 212.721 129.374 212.801 129.321L213.521 128.881Z" fill="#5E2FF0"/>
<path d="M218.8 118.204C219.093 118.071 219.36 117.978 219.6 117.925C219.866 117.898 220.106 117.938 220.319 118.044C220.506 118.178 220.666 118.364 220.799 118.604C220.906 118.871 220.959 119.231 220.959 119.684C220.959 120.031 220.919 120.364 220.839 120.684C220.786 120.977 220.693 121.27 220.559 121.563C220.453 121.83 220.333 122.083 220.199 122.323C220.066 122.59 219.946 122.83 219.84 123.043C219.706 123.283 219.6 123.51 219.52 123.723C219.413 123.936 219.36 124.149 219.36 124.363C219.333 124.469 219.306 124.576 219.28 124.683C219.226 124.762 219.173 124.829 219.12 124.882L218.44 125.242C218.387 125.296 218.333 125.296 218.28 125.242C218.227 125.189 218.2 125.122 218.2 125.042C218.227 124.669 218.28 124.336 218.36 124.043C218.44 123.723 218.547 123.416 218.68 123.123C218.787 122.856 218.907 122.59 219.04 122.323C219.173 122.083 219.306 121.857 219.44 121.643C219.546 121.403 219.64 121.19 219.72 121.004C219.8 120.79 219.84 120.59 219.84 120.404C219.84 120.084 219.746 119.857 219.56 119.724C219.373 119.617 219.12 119.657 218.8 119.844C218.32 120.111 217.96 120.697 217.72 121.603C217.694 121.71 217.667 121.803 217.64 121.883C217.614 121.937 217.56 121.99 217.48 122.043L216.76 122.443C216.707 122.47 216.667 122.47 216.641 122.443C216.587 122.417 216.561 122.363 216.561 122.283C216.561 121.963 216.627 121.603 216.76 121.204C216.867 120.804 217.027 120.417 217.24 120.044C217.427 119.671 217.667 119.311 217.96 118.964C218.227 118.644 218.507 118.391 218.8 118.204ZM219.16 125.642C219.213 125.616 219.266 125.629 219.32 125.682C219.373 125.709 219.4 125.776 219.4 125.882V127.042C219.4 127.148 219.373 127.255 219.32 127.362C219.266 127.468 219.213 127.535 219.16 127.562L218.4 128.002C218.347 128.028 218.293 128.015 218.24 127.962C218.187 127.935 218.16 127.868 218.16 127.762V126.602C218.16 126.495 218.187 126.389 218.24 126.282C218.293 126.175 218.347 126.109 218.4 126.082L219.16 125.642Z" fill="#5E2FF0"/>
<path d="M224.478 114.925C224.771 114.792 225.037 114.699 225.277 114.645C225.544 114.619 225.784 114.659 225.997 114.765C226.184 114.898 226.344 115.085 226.477 115.325C226.584 115.592 226.637 115.951 226.637 116.405C226.637 116.751 226.597 117.084 226.517 117.404C226.464 117.698 226.384 117.991 226.277 118.284C226.144 118.551 226.011 118.804 225.877 119.044C225.744 119.31 225.624 119.55 225.517 119.764C225.384 120.004 225.277 120.23 225.197 120.443C225.117 120.657 225.064 120.87 225.037 121.083C225.011 121.19 224.984 121.297 224.957 121.403C224.904 121.483 224.851 121.55 224.798 121.603L224.118 121.963C224.064 122.016 224.011 122.016 223.958 121.963C223.904 121.91 223.891 121.843 223.918 121.763C223.918 121.39 223.958 121.057 224.038 120.763C224.118 120.444 224.224 120.137 224.358 119.844C224.464 119.577 224.584 119.31 224.718 119.044C224.851 118.804 224.984 118.577 225.117 118.364C225.224 118.124 225.317 117.911 225.397 117.724C225.477 117.511 225.517 117.311 225.517 117.124C225.517 116.805 225.424 116.578 225.237 116.445C225.051 116.338 224.798 116.378 224.478 116.565C223.998 116.831 223.638 117.418 223.398 118.324C223.371 118.431 223.345 118.524 223.318 118.604C223.291 118.657 223.238 118.711 223.158 118.764L222.438 119.164C222.385 119.191 222.345 119.191 222.318 119.164C222.265 119.137 222.238 119.084 222.238 119.004C222.238 118.684 222.305 118.324 222.438 117.924C222.545 117.524 222.705 117.138 222.918 116.765C223.105 116.391 223.345 116.031 223.638 115.685C223.904 115.365 224.184 115.112 224.478 114.925ZM224.838 122.363C224.891 122.336 224.944 122.35 224.997 122.403C225.051 122.43 225.077 122.496 225.077 122.603V123.763C225.077 123.869 225.051 123.976 224.997 124.082C224.944 124.189 224.891 124.256 224.838 124.282L224.078 124.722C224.024 124.749 223.971 124.736 223.918 124.682C223.864 124.656 223.838 124.589 223.838 124.482V123.323C223.838 123.216 223.864 123.109 223.918 123.003C223.971 122.896 224.024 122.829 224.078 122.803L224.838 122.363Z" fill="#5E2FF0"/>
<path d="M174.494 141.157C174.214 141.157 173.934 141.037 173.815 140.757C173.575 140.397 173.695 139.878 174.094 139.678L225.519 109.966C225.919 109.766 226.399 109.886 226.639 110.246C226.839 110.646 226.719 111.126 226.319 111.366L174.894 141.077C174.761 141.131 174.628 141.157 174.494 141.157Z" fill="#FAFAFA"/>
<path d="M174.494 147.036C174.214 147.036 173.934 146.876 173.815 146.636C173.575 146.236 173.695 145.756 174.094 145.517L206.565 126.802C206.965 126.602 207.445 126.722 207.685 127.122C207.884 127.482 207.765 128.002 207.365 128.202L174.894 146.916C174.761 146.996 174.628 147.036 174.494 147.036Z" fill="#FAFAFA"/>
<path d="M174.494 152.914C174.214 152.914 173.934 152.794 173.815 152.514C173.575 152.154 173.695 151.674 174.094 151.434L206.565 132.72C206.965 132.52 207.445 132.64 207.685 133C207.884 133.4 207.765 133.88 207.365 134.119L174.894 152.834C174.761 152.887 174.628 152.914 174.494 152.914Z" fill="#FAFAFA"/>
<path d="M158.259 172.309C156.459 173.348 155.02 172.269 155.02 169.869C155.02 167.47 156.459 164.671 158.259 163.671C160.058 162.631 161.498 163.711 161.498 166.11C161.498 168.51 160.058 171.269 158.259 172.309Z" fill="#455A64"/>
<path d="M159.379 167.43L157.1 168.749C156.82 168.909 156.54 169.389 156.5 169.789L156.34 171.189C156.94 172.588 159.539 170.909 160.099 168.829L159.979 167.79C159.939 167.43 159.699 167.27 159.379 167.43Z" fill="#FAFAFA"/>
<path d="M159.34 165.51C159.34 166.31 158.86 167.23 158.26 167.59C157.661 167.91 157.181 167.55 157.181 166.75C157.181 165.95 157.661 165.03 158.26 164.71C158.86 164.351 159.34 164.71 159.34 165.51Z" fill="#FAFAFA"/>
<path d="M206.044 207.458C206.044 203.579 203.325 202.02 199.966 203.939L173.054 219.455C169.695 221.374 166.975 226.093 166.975 229.971V232.611C166.975 232.771 166.989 232.917 167.015 233.051H166.975C166.975 236.969 166.536 243.048 163.017 244.647C163.017 244.647 165.336 245.327 167.855 242.728C169.415 241.048 170.254 238.649 170.654 236.929C171.374 236.889 172.214 236.609 173.054 236.13L199.966 220.614C203.325 218.695 206.044 213.976 206.044 210.097V207.458Z" fill="#E4DBFF"/>
<path d="M158.259 251.086C156.459 252.126 155.02 251.046 155.02 248.647C155.02 246.247 156.459 243.448 158.259 242.448C160.058 241.409 161.498 242.488 161.498 244.888C161.498 247.287 160.058 250.046 158.259 251.086Z" fill="#455A64"/>
<path d="M159.379 246.207L157.1 247.527C156.82 247.687 156.54 248.166 156.5 248.566L156.34 249.966C156.94 251.366 159.539 249.686 160.099 247.607L159.979 246.567C159.939 246.207 159.699 246.047 159.379 246.207Z" fill="#FAFAFA"/>
<path d="M159.34 244.288C159.34 245.087 158.86 246.007 158.26 246.367C157.661 246.687 157.181 246.327 157.181 245.527C157.181 244.727 157.661 243.808 158.26 243.488C158.86 243.128 159.34 243.488 159.34 244.288Z" fill="#FAFAFA"/>
<path d="M173.933 225.573C173.653 225.573 173.373 225.453 173.253 225.173C173.013 224.813 173.133 224.294 173.533 224.094L199.245 209.298C199.645 209.058 200.125 209.178 200.365 209.578C200.565 209.978 200.445 210.458 200.045 210.658L174.333 225.453C174.199 225.533 174.066 225.573 173.933 225.573Z" fill="#FAFAFA"/>
<path d="M173.933 230.692C173.653 230.692 173.373 230.532 173.253 230.292C173.013 229.892 173.133 229.412 173.533 229.172L199.245 214.377C199.645 214.177 200.125 214.297 200.365 214.697C200.565 215.057 200.445 215.536 200.045 215.776L174.333 230.572C174.199 230.652 174.066 230.692 173.933 230.692Z" fill="#FAFAFA"/>
<path d="M232.476 223.814C232.476 219.935 229.757 218.376 226.398 220.295L173.054 251.086C169.695 253.005 166.975 257.724 166.975 261.603V273.879C166.975 274.039 166.989 274.186 167.015 274.319H166.975C166.975 278.238 166.536 284.276 163.017 285.916C163.017 285.916 165.336 286.596 167.855 283.956C169.415 282.317 170.254 279.918 170.654 278.198C171.374 278.158 172.214 277.878 173.054 277.398L226.398 246.607C229.757 244.688 232.476 239.969 232.476 236.09V223.814Z" fill="#E4DBFF"/>
<path d="M158.259 292.354C156.459 293.394 155.02 292.274 155.02 289.915C155.02 287.515 156.459 284.716 158.259 283.676C160.058 282.677 161.498 283.756 161.498 286.156C161.498 288.555 160.058 291.314 158.259 292.354Z" fill="#455A64"/>
<path d="M159.379 287.475L157.1 288.794C156.82 288.954 156.54 289.434 156.5 289.834L156.34 291.234C156.94 292.633 159.539 290.954 160.099 288.874L159.979 287.835C159.939 287.435 159.699 287.315 159.379 287.475Z" fill="#FAFAFA"/>
<path d="M159.34 285.556C159.34 286.355 158.86 287.275 158.26 287.595C157.661 287.955 157.181 287.595 157.181 286.795C157.181 285.996 157.661 285.076 158.26 284.756C158.86 284.396 159.34 284.756 159.34 285.556Z" fill="#FAFAFA"/>
<path d="M174.494 258.564C174.214 258.564 173.934 258.404 173.815 258.164C173.575 257.764 173.695 257.284 174.094 257.084L226.079 227.053C226.439 226.853 226.959 226.973 227.159 227.333C227.399 227.733 227.239 228.213 226.879 228.452L174.894 258.444C174.761 258.524 174.628 258.564 174.494 258.564Z" fill="#FAFAFA"/>
<path d="M174.494 264.441C174.214 264.441 173.934 264.281 173.815 264.041C173.575 263.641 173.695 263.162 174.094 262.922L226.079 232.97C226.439 232.771 226.959 232.89 227.159 233.29C227.399 233.65 227.239 234.13 226.879 234.37L174.894 264.321C174.761 264.401 174.628 264.441 174.494 264.441Z" fill="#FAFAFA"/>
<path d="M174.494 270.32C174.214 270.32 173.934 270.2 173.815 269.92C173.575 269.56 173.695 269.04 174.094 268.84L226.079 238.889C226.439 238.649 226.959 238.809 227.159 239.169C227.399 239.569 227.239 240.049 226.879 240.249L174.894 270.2C174.761 270.28 174.628 270.32 174.494 270.32Z" fill="#FAFAFA"/>
<path d="M276.265 133.52C276.185 133.467 276.092 133.44 275.985 133.44H275.306V144.517L281.864 137.519C282.104 137.239 281.984 136.799 281.704 136.639C281.624 136.599 276.585 133.72 276.265 133.52Z" fill="#BA68C8"/>
<path opacity="0.3" d="M276.265 133.52C276.185 133.467 276.092 133.44 275.985 133.44H275.306V144.517L281.864 137.519C282.104 137.239 281.984 136.799 281.704 136.639C281.624 136.599 276.585 133.72 276.265 133.52Z" fill="white"/>
<path d="M281.864 137.519L275.306 144.517V136.56H281.384C281.904 136.56 282.184 137.159 281.864 137.519Z" fill="#BA68C8"/>
<path d="M275.306 130.001C275.306 128.362 274.186 126.362 272.746 125.562C271.347 124.723 269.027 124.723 267.628 125.562L199.408 164.951C197.968 165.751 196.849 167.75 196.849 169.39V191.343C196.849 192.983 197.968 194.982 199.408 195.782C200.807 196.622 203.127 196.622 204.526 195.782L272.986 156.233C275.306 154.914 275.306 153.594 275.306 151.955V130.001Z" fill="#5E2FF0"/>
<path opacity="0.2" d="M196.849 191.343C196.849 192.982 197.968 194.982 199.408 195.782C200.688 196.541 202.687 196.581 204.086 195.982C202.887 196.461 201.967 195.782 201.967 194.302V172.348C201.967 171.509 202.247 170.589 202.727 169.789L197.568 166.83C197.129 167.67 196.849 168.55 196.849 169.389V191.343Z" fill="black"/>
<path opacity="0.3" d="M275.226 129.241C274.946 128.162 273.946 127.842 272.746 128.522L204.526 167.91C203.807 168.31 203.167 168.99 202.727 169.789L197.608 166.87C198.048 166.031 198.688 165.351 199.408 164.951L267.628 125.562C269.027 124.723 271.347 124.723 272.746 125.562C273.986 126.242 274.986 127.802 275.226 129.241Z" fill="white"/>
<path d="M212.805 172.189C212.525 172.189 212.245 172.029 212.085 171.789C211.885 171.389 212.005 170.91 212.405 170.71L264.35 140.678C264.75 140.479 265.23 140.599 265.47 140.998C265.669 141.358 265.55 141.838 265.15 142.078L213.205 172.069C213.072 172.149 212.938 172.189 212.805 172.189Z" fill="#FAFAFA"/>
<path d="M212.805 178.068C212.525 178.068 212.245 177.908 212.085 177.668C211.885 177.268 212.005 176.788 212.405 176.548L264.35 146.597C264.75 146.397 265.23 146.517 265.47 146.917C265.669 147.277 265.55 147.757 265.15 147.997L213.165 177.948C213.058 178.028 212.938 178.068 212.805 178.068Z" fill="#FAFAFA"/>
<path d="M212.805 183.946C212.525 183.946 212.245 183.826 212.085 183.546C211.885 183.186 212.005 182.666 212.405 182.466L264.35 152.515C264.75 152.275 265.23 152.435 265.47 152.795C265.669 153.195 265.55 153.675 265.15 153.875L213.165 183.866C213.058 183.919 212.938 183.946 212.805 183.946Z" fill="#FAFAFA"/>
<path d="M300.382 14.843C298.119 13.5036 294.932 13.7345 291.468 15.7206C284.447 19.7852 278.72 29.6694 278.72 37.7524C278.72 41.8169 280.152 44.6344 282.461 45.9739C283.431 46.5281 285.833 47.9138 286.803 48.468C289.112 49.8075 292.299 49.6227 295.763 47.5904C302.784 43.5259 308.511 33.6878 308.511 25.5587C308.511 21.5403 307.079 18.6767 304.77 17.3372C303.846 16.7829 301.352 15.3973 300.382 14.843Z" fill="#5026D2"/>
<path d="M288.696 48.6523C288.188 49.5299 287.218 50.7308 285.556 51.7931C283.939 52.8092 282.045 53.0402 280.752 52.994C280.69 52.994 280.629 52.9786 280.567 52.9478C280.29 52.8092 276.272 50.4998 276.225 50.4536C275.948 50.3151 275.902 49.8994 276.225 49.7146C279.228 47.9595 280.013 45.4653 280.198 43.7563L288.696 48.6523Z" fill="#5E2FF0"/>
<path d="M295.764 18.2146C288.743 22.2792 283.062 32.1173 283.062 40.2464C283.062 42.6943 283.616 44.7266 284.54 46.2046C284.355 47.9136 283.524 50.454 280.568 52.2091C280.198 52.44 280.337 52.9943 280.753 52.9943C282.046 53.0405 283.94 52.8096 285.556 51.7934C286.942 50.9158 287.866 49.9459 288.42 49.1145C290.498 49.6226 293.039 49.1607 295.764 47.5903C302.784 43.5257 308.512 33.6877 308.512 25.5585C308.512 17.4756 302.784 14.1963 295.764 18.2146Z" fill="#7957F4"/>
<path d="M300.012 29.9463V27.2212C300.012 24.1266 298.119 22.6947 295.763 24.0342C293.454 25.3737 291.56 28.9763 291.56 32.1171V34.5189C291.56 36.0431 291.052 37.7983 290.174 39.2763C290.143 39.2763 290.128 39.2763 290.128 39.2763C289.943 39.6458 289.805 40.1077 289.805 40.5234C289.805 41.3086 290.267 41.6781 290.867 41.3086L300.705 35.6274C301.306 35.3041 301.767 34.3803 301.767 33.6413C301.767 33.2256 301.629 32.9485 301.444 32.8099C300.567 32.3943 300.012 31.4243 300.012 29.9463Z" fill="white"/>
<path d="M297.796 38.1675C297.796 39.6455 296.918 41.4007 295.763 42.0473C294.655 42.6477 293.777 42.0011 293.777 40.4769L297.796 38.1675Z" fill="white"/>
</svg>
