<svg width="60" height="60" viewBox="0 0 60 60" fill="none" xmlns="http://www.w3.org/2000/svg">
<path d="M47.5313 9.375H22.7813C21.961 9.37599 21.1747 9.70226 20.5947 10.2822C20.0148 10.8622 19.6885 11.6485 19.6875 12.4688V37.2188C19.691 37.5702 19.7551 37.9184 19.877 38.2481L40.7948 17.3304H36.9241C36.5725 17.3304 36.2352 17.1907 35.9866 16.942C35.7379 16.6934 35.5982 16.3561 35.5982 16.0045C35.5982 15.6528 35.7379 15.3156 35.9866 15.0669C36.2352 14.8183 36.5725 14.6786 36.9241 14.6786H43.9955C44.3468 14.6798 44.6833 14.8199 44.9317 15.0683C45.1801 15.3167 45.3202 15.6532 45.3214 16.0045V23.0759C45.3214 23.4275 45.1817 23.7648 44.9331 24.0134C44.6844 24.2621 44.3472 24.4018 43.9955 24.4018C43.6439 24.4018 43.3066 24.2621 43.058 24.0134C42.8093 23.7648 42.6696 23.4275 42.6696 23.0759V19.2052L21.7519 40.123C22.0816 40.2449 22.4298 40.309 22.7813 40.3125H47.5313C48.3515 40.3115 49.1378 39.9852 49.7178 39.4053C50.2977 38.8253 50.624 38.039 50.625 37.2188V12.4688C50.624 11.6485 50.2977 10.8622 49.7178 10.2822C49.1378 9.70226 48.3515 9.37599 47.5313 9.375Z" fill="#283474"/>
<path d="M54.1071 1.875H16.6071C15.5419 1.87616 14.5206 2.29984 13.7674 3.05308C13.0141 3.80633 12.5904 4.82761 12.5893 5.89286V28.6607H5.89286C4.82761 28.6619 3.80633 29.0856 3.05308 29.8388C2.29984 30.592 1.87616 31.6133 1.875 32.6786V54.1071C1.87616 55.1724 2.29984 56.1937 3.05308 56.9469C3.80633 57.7002 4.82761 58.1238 5.89286 58.125H27.3214C28.3867 58.1238 29.408 57.7002 30.1612 56.9469C30.9144 56.1937 31.3381 55.1724 31.3393 54.1071V47.4107H54.1071C55.1724 47.4096 56.1937 46.9859 56.9469 46.2326C57.7002 45.4794 58.1238 44.4581 58.125 43.3929V5.89286C58.1238 4.82761 57.7002 3.80633 56.9469 3.05308C56.1937 2.29984 55.1724 1.87616 54.1071 1.875ZM28.6607 54.1071C28.6603 54.4622 28.5191 54.8027 28.268 55.0537C28.0169 55.3048 27.6765 55.446 27.3214 55.4464H5.89286C5.53778 55.446 5.19735 55.3048 4.94627 55.0537C4.69519 54.8027 4.55396 54.4622 4.55357 54.1071V32.6786C4.55396 32.3235 4.69519 31.9831 4.94627 31.732C5.19735 31.4809 5.53778 31.3397 5.89286 31.3393H12.5893V43.3929C12.5904 44.4581 13.0141 45.4794 13.7674 46.2326C14.5206 46.9859 15.5419 47.4096 16.6071 47.4107H28.6607V54.1071ZM55.4464 43.3929C55.446 43.7479 55.3048 44.0884 55.0537 44.3394C54.8027 44.5905 54.4622 44.7318 54.1071 44.7321H16.6071C16.2521 44.7318 15.9116 44.5905 15.6606 44.3394C15.4095 44.0884 15.2682 43.7479 15.2679 43.3929V5.89286C15.2682 5.53778 15.4095 5.19735 15.6606 4.94627C15.9116 4.69519 16.2521 4.55396 16.6071 4.55357H54.1071C54.4622 4.55396 54.8027 4.69519 55.0537 4.94627C55.3048 5.19735 55.446 5.53778 55.4464 5.89286V43.3929Z" fill="black"/>
</svg>
