<svg width="60" height="60" viewBox="0 0 60 60" fill="none" xmlns="http://www.w3.org/2000/svg">
<path d="M15.137 54.4498H25.0098C24.9891 54.2566 24.9788 54.059 24.9788 53.8598C24.9788 53.6607 24.9891 53.463 25.0098 53.2698H15.137C15.1577 53.463 15.168 53.6607 15.168 53.8598C15.168 54.059 15.1577 54.2566 15.137 54.4498ZM36.0803 54.4498H45.9531C45.9324 54.2566 45.9221 54.059 45.9221 53.8598C45.9221 53.6607 45.9324 53.463 45.9531 53.2698H36.0803C36.1009 53.463 36.1113 53.6607 36.1113 53.8598C36.1113 54.059 36.1009 54.2566 36.0803 54.4498ZM9.60248 49.4729C7.18481 49.4729 5.21704 51.4407 5.21704 53.8598C5.21704 56.279 7.18481 58.2467 9.60248 58.2467C12.0201 58.2467 13.9894 56.279 13.9894 53.8598C13.9894 51.4407 12.0216 49.4729 9.60248 49.4729ZM9.60248 55.2508C8.83543 55.2508 8.21147 54.6283 8.21147 53.8598C8.21147 53.0913 8.83543 52.4688 9.60248 52.4688C10.3695 52.4688 10.995 53.0913 10.995 53.8598C10.995 54.6283 10.371 55.2508 9.60248 55.2508Z" fill="#283474"/>
<path d="M15.1384 53.2697C14.8419 50.4773 12.4729 48.2927 9.60237 48.2927C6.53419 48.2927 4.03687 50.7901 4.03687 53.8597C4.03687 56.9294 6.53419 59.4267 9.60237 59.4267C12.4729 59.4267 14.8419 57.2436 15.1384 54.4497C15.159 54.2565 15.1693 54.0588 15.1693 53.8597C15.1693 53.6606 15.159 53.4644 15.1384 53.2697ZM9.60237 58.2466C7.1847 58.2466 5.21694 56.2789 5.21694 53.8597C5.21694 51.4406 7.1847 49.4728 9.60237 49.4728C12.02 49.4728 13.9893 51.4406 13.9893 53.8597C13.9893 56.2789 12.0215 58.2466 9.60237 58.2466ZM30.5457 49.4728C28.128 49.4728 26.1602 51.4406 26.1602 53.8597C26.1602 56.2789 28.128 58.2466 30.5457 58.2466C32.9633 58.2466 34.9326 56.2789 34.9326 53.8597C34.9326 51.4406 32.9648 49.4728 30.5457 49.4728ZM30.5471 56.0074C29.3612 56.0074 28.3994 55.0457 28.3994 53.8597C28.3994 52.6737 29.3612 51.712 30.5471 51.712C31.7331 51.712 32.6949 52.6737 32.6949 53.8597C32.6949 55.0457 31.7331 56.0074 30.5471 56.0074Z" fill="#283474"/>
<path d="M36.0817 53.2697C35.7852 50.4773 33.4162 48.2927 30.5457 48.2927C27.6752 48.2927 25.3062 50.4773 25.0112 53.2697C24.9905 53.4644 24.9802 53.6606 24.9802 53.8597C24.9802 54.0588 24.9905 54.2565 25.0112 54.4497C25.3062 57.2436 27.6767 59.4267 30.5457 59.4267C33.4148 59.4267 35.7852 57.2436 36.0817 54.4497C36.1024 54.2565 36.1127 54.0588 36.1127 53.8597C36.1127 53.6606 36.1024 53.4644 36.0817 53.2697ZM30.5457 58.2466C28.1281 58.2466 26.1603 56.2789 26.1603 53.8597C26.1603 51.4406 28.1281 49.4728 30.5457 49.4728C32.9634 49.4728 34.9326 51.4406 34.9326 53.8597C34.9326 56.2789 32.9649 58.2466 30.5457 58.2466Z" fill="#283474"/>
<path d="M10.9949 53.86C10.9949 54.6285 10.371 55.251 9.60243 55.251C8.83391 55.251 8.21143 54.6285 8.21143 53.86C8.21143 53.0915 8.83539 52.469 9.60243 52.469C10.3695 52.469 10.9949 53.0915 10.9949 53.86Z" fill="white"/>
<path d="M30.5471 56.0079C31.7333 56.0079 32.6949 55.0463 32.6949 53.8601C32.6949 52.674 31.7333 51.7124 30.5471 51.7124C29.361 51.7124 28.3994 52.674 28.3994 53.8601C28.3994 55.0463 29.361 56.0079 30.5471 56.0079Z" fill="white"/>
<path d="M51.1865 49.4729C48.7673 49.4729 46.7996 51.4407 46.7996 53.8598C46.7996 56.279 48.7673 58.2467 51.1865 58.2467C53.6056 58.2467 55.5734 56.279 55.5734 53.8598C55.5734 51.4407 53.6056 49.4729 51.1865 49.4729ZM51.1865 56.0075C50.0005 56.0075 49.0402 55.0458 49.0402 53.8598C49.0402 52.6738 50.0005 51.7121 51.1865 51.7121C52.3724 51.7121 53.3342 52.6738 53.3342 53.8598C53.3342 55.0458 52.3739 56.0075 51.1865 56.0075Z" fill="#141F39"/>
<path d="M56.7209 53.2697C56.4259 50.4773 54.0569 48.2927 51.1864 48.2927C48.3158 48.2927 45.9469 50.4773 45.6504 53.2697C45.6312 53.4644 45.6194 53.6606 45.6194 53.8597C45.6194 54.0588 45.6312 54.2565 45.6504 54.4497C45.9469 57.2436 48.3158 59.4267 51.1864 59.4267C54.0569 59.4267 56.4259 57.2436 56.7209 54.4497C56.7415 54.2565 56.7533 54.0588 56.7533 53.8597C56.7533 53.6606 56.7415 53.4644 56.7209 53.2697ZM51.1864 58.2466C48.7672 58.2466 46.7995 56.2789 46.7995 53.8597C46.7995 51.4406 48.7672 49.4728 51.1864 49.4728C53.6055 49.4728 55.5733 51.4406 55.5733 53.8597C55.5733 56.2789 53.6055 58.2466 51.1864 58.2466Z" fill="#141F39"/>
<path d="M53.334 53.8601C53.334 55.0461 52.3737 56.0079 51.1863 56.0079C49.9988 56.0079 49.04 55.0461 49.04 53.8601C49.04 52.6742 50.0003 51.7124 51.1863 51.7124C52.3723 51.7124 53.334 52.6742 53.334 53.8601Z" fill="white"/>
<path d="M51.1866 50.7607C49.4755 50.7607 48.0874 52.1488 48.0874 53.8599C48.0874 55.571 49.4755 56.9591 51.1866 56.9591C52.8977 56.9591 54.2872 55.5725 54.2872 53.8599C54.2872 52.1473 52.8991 50.7607 51.1866 50.7607ZM51.1866 56.0076C50.0006 56.0076 49.0403 55.0459 49.0403 53.8599C49.0403 52.6739 50.0006 51.7122 51.1866 51.7122C52.3725 51.7122 53.3343 52.6739 53.3343 53.8599C53.3343 55.0459 52.374 56.0076 51.1866 56.0076Z" fill="white"/>
<path d="M19.9661 20.9922C19.9661 20.7577 20.1564 20.5674 20.3909 20.5674H21.394C22.0887 20.5674 22.6965 20.1381 22.9059 19.4994C23.0313 19.1188 23.1862 18.7456 23.3676 18.3916C23.6759 17.7898 23.552 17.0522 23.0578 16.5596L22.3483 15.85C22.2687 15.7704 22.2244 15.6627 22.2244 15.5491C22.2244 15.4355 22.2687 15.3293 22.3483 15.2482L23.7865 13.81C23.9517 13.6448 24.2217 13.6448 24.3884 13.81L25.0979 14.5195C25.5906 15.0122 26.3266 15.1376 26.93 14.8293C27.284 14.6479 27.6572 14.493 28.0377 14.3676C28.6765 14.1581 29.1057 13.5504 29.1057 12.8556V11.8526C29.1057 11.618 29.296 11.4277 29.5305 11.4277H31.5617C31.7963 11.4277 31.9866 11.618 31.9866 11.8526V12.8556C31.9866 13.5504 32.4158 14.1581 33.0545 14.3676C33.4351 14.493 33.8083 14.6479 34.1623 14.8293C34.7656 15.1376 35.5017 15.0122 35.9944 14.5195L36.7039 13.81C36.8691 13.6448 37.139 13.6448 37.3057 13.81L38.7439 15.2482C38.9091 15.4134 38.9091 15.6834 38.7439 15.85L38.0344 16.5596C37.5417 17.0522 37.4164 17.7883 37.7246 18.3916C37.9061 18.7456 38.061 19.1188 38.1863 19.4994C38.3958 20.1381 39.0035 20.5674 39.6983 20.5674H40.7014C40.9359 20.5674 41.1262 20.7577 41.1262 20.9922V23.0234C41.1262 23.2579 40.9359 23.4482 40.7014 23.4482H39.6983C39.0035 23.4482 38.3958 23.8775 38.1863 24.5162C38.061 24.8968 37.9061 25.27 37.7246 25.624C37.4164 26.2258 37.5403 26.9634 38.0344 27.456L38.7439 28.1656C38.9091 28.3308 38.9091 28.6007 38.7439 28.7674L37.3057 30.2056C37.1405 30.3708 36.8706 30.3708 36.7039 30.2056L35.9944 29.4961C35.5017 29.0034 34.7641 28.878 34.1623 29.1863C33.8083 29.3677 33.4351 29.5226 33.0545 29.648C32.4158 29.8575 31.9866 30.4652 31.9866 31.16V32.163C31.9866 32.3976 31.7963 32.5879 31.5617 32.5879H29.5305C29.296 32.5879 29.1057 32.3976 29.1057 32.163V31.16C29.1057 30.4652 28.6765 29.8575 28.0377 29.648C27.6572 29.5226 27.284 29.3677 26.93 29.1863C26.7087 29.0742 26.4712 29.0182 26.2322 29.0182C25.8207 29.0182 25.4091 29.1834 25.0979 29.4946L24.3884 30.2041C24.2232 30.3693 23.9532 30.3693 23.7865 30.2041L22.3483 28.7659C22.2687 28.6863 22.2244 28.5786 22.2244 28.465C22.2244 28.3514 22.2687 28.2452 22.3483 28.1641L23.0578 27.4546C23.5505 26.9619 23.6759 26.2258 23.3676 25.6225C23.1862 25.2685 23.0313 24.8953 22.9059 24.5147C22.6965 23.876 22.0887 23.4467 21.394 23.4467H20.3909C20.1564 23.4467 19.9661 23.2565 19.9661 23.0219V20.9907V20.9922ZM34.9279 18.812C34.7568 18.6409 34.4809 18.6409 34.3098 18.812L28.8446 24.2772L26.781 22.2136C26.6113 22.0439 26.334 22.0439 26.1644 22.2136C25.9947 22.3832 25.9933 22.6605 26.1644 22.8316L28.2413 24.91C28.408 25.0752 28.6263 25.1593 28.8446 25.1593C29.0629 25.1593 29.2812 25.0752 29.4479 24.91L34.9279 19.4286C35.099 19.259 35.099 18.9817 34.9279 18.812Z" fill="#1C9EEA"/>
<path d="M40.6998 19.3874H39.6967C39.5153 19.3874 39.3545 19.2812 39.3058 19.1308C39.1613 18.6927 38.9828 18.2634 38.7748 17.8548C38.701 17.7117 38.7394 17.5229 38.8677 17.3946L39.5772 16.6851C40.2027 16.0582 40.2027 15.0404 39.5772 14.4149L38.139 12.9767C37.5136 12.3513 36.4943 12.3513 35.8689 12.9767L35.1594 13.6862C35.031 13.8146 34.8422 13.8529 34.6991 13.7792C34.2905 13.5712 33.8613 13.3912 33.4232 13.2481C33.2712 13.198 33.1665 13.0372 33.1665 12.8572V11.8542C33.1665 10.9676 32.4467 10.2478 31.5616 10.2478H29.5304C28.6454 10.2478 27.9255 10.9676 27.9255 11.8542V12.8572C27.9255 13.0372 27.8193 13.198 27.6689 13.2481C27.2308 13.3912 26.8015 13.5712 26.3929 13.7792C26.2498 13.8529 26.0595 13.8146 25.9327 13.6862L25.2232 12.9767C24.5963 12.3513 23.5784 12.3513 22.953 12.9767L21.5148 14.4149C21.2109 14.7173 21.0442 15.12 21.0442 15.5493C21.0442 15.9785 21.2109 16.3812 21.5148 16.6851L22.2243 17.3946C22.3526 17.5229 22.391 17.7117 22.3172 17.8548C22.1093 18.2634 21.9293 18.6927 21.7862 19.1308C21.7361 19.2812 21.5753 19.3874 21.3953 19.3874H20.3908C19.5057 19.3874 18.7859 20.1073 18.7859 20.9923V23.0235C18.7859 23.9086 19.5057 24.6284 20.3908 24.6284H21.3953C21.5753 24.6284 21.7361 24.7332 21.7862 24.8851C21.9293 25.3232 22.1093 25.7524 22.3172 26.161C22.391 26.3041 22.3526 26.4929 22.2243 26.6213L21.5148 27.3308C21.2109 27.6332 21.0442 28.0374 21.0442 28.4651C21.0442 28.8929 21.2109 29.2986 21.5148 29.6009L22.953 31.0392C23.5784 31.6646 24.5963 31.6646 25.2232 31.0392L25.9327 30.3296C26.0595 30.2013 26.2498 30.163 26.3929 30.2367C26.8015 30.4447 27.2308 30.6232 27.6689 30.7677C27.8193 30.8164 27.9255 30.9772 27.9255 31.1586V32.1617C27.9255 33.0468 28.6454 33.7681 29.5304 33.7681H31.5616C32.4467 33.7681 33.1665 33.0468 33.1665 32.1617V31.1586C33.1665 30.9772 33.2712 30.8164 33.4232 30.7677C33.8613 30.6232 34.2905 30.4447 34.6991 30.2367C34.8422 30.163 35.031 30.2013 35.1594 30.3296L35.8689 31.0392C36.4943 31.6646 37.5136 31.6646 38.139 31.0392L39.5772 29.6009C40.2027 28.9755 40.2027 27.9562 39.5772 27.3308L38.8677 26.6213C38.7394 26.4929 38.701 26.3041 38.7748 26.161C38.9828 25.7524 39.1613 25.3232 39.3058 24.8851C39.3545 24.7332 39.5153 24.6284 39.6967 24.6284H40.6998C41.5848 24.6284 42.3062 23.9086 42.3062 23.0235V20.9923C42.3062 20.1073 41.5848 19.3874 40.6998 19.3874ZM34.9278 19.4287L29.4478 24.9102C29.2811 25.0754 29.0628 25.1595 28.8445 25.1595C28.6262 25.1595 28.4079 25.0754 28.2412 24.9102L26.1643 22.8318C25.9932 22.6607 25.9932 22.3848 26.1643 22.2137C26.3354 22.0426 26.6112 22.0441 26.7809 22.2137L28.8445 24.2774L34.3097 18.8122C34.4808 18.6411 34.7567 18.6411 34.9278 18.8122C35.0989 18.9818 35.0989 19.2591 34.9278 19.4287Z" fill="#283474"/>
<path d="M28.2416 24.9097C28.4083 25.0764 28.6266 25.159 28.845 25.159C29.0633 25.159 29.2816 25.0764 29.4483 24.9097L34.9282 19.4297C35.0993 19.2586 35.0993 18.9828 34.9282 18.8117C34.7571 18.6406 34.4813 18.6406 34.3102 18.8117L28.845 24.2769L26.7813 22.2147C26.6102 22.0436 26.3344 22.0436 26.1632 22.2147C25.9921 22.3858 25.9921 22.6617 26.1632 22.8328L28.2402 24.9097H28.2416Z" fill="white"/>
<path d="M11.9533 11.9851C10.2377 15.0976 9.33057 18.6334 9.33057 22.2104C9.33057 33.9108 18.8493 43.4296 30.5497 43.4296C33.4733 43.4296 36.2966 42.8499 38.9474 41.7052L38.0476 39.7684C35.6771 40.7833 33.1562 41.2966 30.5497 41.2966C20.025 41.2966 11.4621 32.7337 11.4621 22.209C11.4621 19.0095 12.2719 15.8395 13.803 13.0442L14.0907 12.5191L16.4243 13.8393V6.61139L9.56658 9.96574L12.235 11.4733L11.9533 11.9851ZM23.043 4.32206C25.4134 3.3072 27.9344 2.79387 30.5408 2.79387C41.0656 2.79387 49.6285 11.3567 49.6285 21.8815C49.6285 25.081 48.8187 28.2509 47.2875 31.0462L46.9999 31.5713L44.6663 30.2511V37.4791L51.524 34.1247L48.8555 32.6172L49.1373 32.1053C50.8528 28.9929 51.76 25.4571 51.76 21.88C51.76 10.1796 42.2412 0.660889 30.5408 0.660889C27.6172 0.660889 24.7939 1.2406 22.1432 2.38527L23.043 4.32206Z" fill="#203A73"/>
<path d="M16.4243 6.61114V13.8391L14.0907 12.5189L13.803 13.044C12.2719 15.8393 11.4621 19.0092 11.4621 22.2087C11.4621 32.7335 20.025 41.2963 30.5497 41.2963C33.1577 41.2963 35.6771 40.783 38.0476 39.7682L38.9474 41.7049C36.2952 42.8496 33.4733 43.4293 30.5497 43.4293C18.8493 43.4293 9.33057 33.9106 9.33057 22.2102C9.33057 18.6346 10.2377 15.0988 11.9533 11.9849L12.235 11.473L9.56658 9.96548L16.4243 6.61114ZM51.76 21.8812C51.76 25.4569 50.8528 28.9926 49.1373 32.1066L48.8555 32.6184L51.524 34.1259L44.6663 37.4803V30.2524L46.9999 31.5726L47.2875 31.0474C48.8187 28.2521 49.6285 25.0822 49.6285 21.8827C49.6285 11.358 41.0656 2.79508 30.5408 2.79508C27.9329 2.79508 25.4134 3.30842 23.043 4.32328L22.1432 2.38649C24.7954 1.24182 27.6172 0.662109 30.5408 0.662109C42.2412 0.662109 51.76 10.1808 51.76 21.8812Z" fill="#141F39"/>
</svg>
